<?xml version="1.0" encoding="UTF-8" standalone="no"?>
<!DOCTYPE svg PUBLIC "-//W3C//DTD SVG 1.1//EN"
 "http://www.w3.org/Graphics/SVG/1.1/DTD/svg11.dtd">
<!-- Generated by graphviz version 2.43.0 (0)
 -->
<!-- Title: include/ipc.h Pages: 1 -->
<svg width="435pt" height="82pt"
 viewBox="0.00 0.00 434.50 82.00" xmlns="http://www.w3.org/2000/svg" xmlns:xlink="http://www.w3.org/1999/xlink">
<g id="graph0" class="graph" transform="scale(1 1) rotate(0) translate(4 78)">
<title>include/ipc.h</title>
<!-- Node1 -->
<g id="Node000001" class="node">
<title>Node1</title>
<g id="a_Node000001"><a xlink:title="IPC utilities for RT&#45;THM (Shared Memory &amp; Semaphores)">
<polygon fill="#999999" stroke="#666666" points="244.5,-74 166.5,-74 166.5,-55 244.5,-55 244.5,-74"/>
<text text-anchor="middle" x="205.5" y="-62" font-family="Helvetica,sans-Serif" font-size="10.00">include/ipc.h</text>
</a>
</g>
</g>
<!-- Node2 -->
<g id="Node000002" class="node">
<title>Node2</title>
<g id="a_Node000002"><a xlink:href="UI_8c.html" target="_top" xlink:title="Ncurses dashboard implementation for RT&#45;THM.">
<polygon fill="white" stroke="#666666" points="53,-19 0,-19 0,0 53,0 53,-19"/>
<text text-anchor="middle" x="26.5" y="-7" font-family="Helvetica,sans-Serif" font-size="10.00">src/UI.c</text>
</a>
</g>
</g>
<!-- Node1&#45;&gt;Node2 -->
<g id="edge1_Node000001_Node000002" class="edge">
<title>Node1&#45;&gt;Node2</title>
<g id="a_edge1_Node000001_Node000002"><a xlink:title=" ">
<path fill="none" stroke="#63b8ff" d="M167.04,-52.11C132.71,-41.95 83.31,-27.32 53.14,-18.39"/>
<polygon fill="#63b8ff" stroke="#63b8ff" points="166.16,-55.5 176.74,-54.98 168.15,-48.79 166.16,-55.5"/>
</a>
</g>
</g>
<!-- Node3 -->
<g id="Node000003" class="node">
<title>Node3</title>
<g id="a_Node000003"><a xlink:href="ipc__utils_8c.html" target="_top" xlink:title="IPC utilities implementation (Shared Memory &amp; Semaphores)">
<polygon fill="white" stroke="#666666" points="154,-19 71,-19 71,0 154,0 154,-19"/>
<text text-anchor="middle" x="112.5" y="-7" font-family="Helvetica,sans-Serif" font-size="10.00">src/ipc_utils.c</text>
</a>
</g>
</g>
<!-- Node1&#45;&gt;Node3 -->
<g id="edge2_Node000001_Node000003" class="edge">
<title>Node1&#45;&gt;Node3</title>
<g id="a_edge2_Node000001_Node000003"><a xlink:title=" ">
<path fill="none" stroke="#63b8ff" d="M181.75,-49.97C164.75,-40.28 142.37,-27.52 127.71,-19.17"/>
<polygon fill="#63b8ff" stroke="#63b8ff" points="180.14,-53.07 190.56,-54.98 183.6,-46.99 180.14,-53.07"/>
</a>
</g>
</g>
<!-- Node4 -->
<g id="Node000004" class="node">
<title>Node4</title>
<g id="a_Node000004"><a xlink:href="main_8c.html" target="_top" xlink:title="RT&#45;THM supervisor process (parent) implementation.">
<polygon fill="white" stroke="#666666" points="239,-19 172,-19 172,0 239,0 239,-19"/>
<text text-anchor="middle" x="205.5" y="-7" font-family="Helvetica,sans-Serif" font-size="10.00">src/main.c</text>
</a>
</g>
</g>
<!-- Node1&#45;&gt;Node4 -->
<g id="edge3_Node000001_Node000004" class="edge">
<title>Node1&#45;&gt;Node4</title>
<g id="a_edge3_Node000001_Node000004"><a xlink:title=" ">
<path fill="none" stroke="#63b8ff" d="M205.5,-44.66C205.5,-35.93 205.5,-25.99 205.5,-19.09"/>
<polygon fill="#63b8ff" stroke="#63b8ff" points="202,-44.75 205.5,-54.75 209,-44.75 202,-44.75"/>
</a>
</g>
</g>
<!-- Node5 -->
<g id="Node000005" class="node">
<title>Node5</title>
<g id="a_Node000005"><a xlink:href="signals_8c.html" target="_top" xlink:title="Signal handling implementation for RT&#45;THM.">
<polygon fill="white" stroke="#666666" points="334,-19 257,-19 257,0 334,0 334,-19"/>
<text text-anchor="middle" x="295.5" y="-7" font-family="Helvetica,sans-Serif" font-size="10.00">src/signals.c</text>
</a>
</g>
</g>
<!-- Node1&#45;&gt;Node5 -->
<g id="edge4_Node000001_Node000005" class="edge">
<title>Node1&#45;&gt;Node5</title>
<g id="a_edge4_Node000001_Node000005"><a xlink:title=" ">
<path fill="none" stroke="#63b8ff" d="M228.94,-49.7C245.34,-40.04 266.73,-27.44 280.78,-19.17"/>
<polygon fill="#63b8ff" stroke="#63b8ff" points="226.8,-46.89 219.96,-54.98 230.35,-52.93 226.8,-46.89"/>
</a>
</g>
</g>
<!-- Node6 -->
<g id="Node000006" class="node">
<title>Node6</title>
<g id="a_Node000006"><a xlink:href="worker_8c.html" target="_top" xlink:title="Worker process implementation for RT&#45;THM.">
<polygon fill="white" stroke="#666666" points="426.5,-19 352.5,-19 352.5,0 426.5,0 426.5,-19"/>
<text text-anchor="middle" x="389.5" y="-7" font-family="Helvetica,sans-Serif" font-size="10.00">src/worker.c</text>
</a>
</g>
</g>
<!-- Node1&#45;&gt;Node6 -->
<g id="edge5_Node000001_Node000006" class="edge">
<title>Node1&#45;&gt;Node6</title>
<g id="a_edge5_Node000001_Node000006"><a xlink:title=" ">
<path fill="none" stroke="#63b8ff" d="M244.79,-52.18C279.2,-42.27 328.46,-28.08 359.71,-19.08"/>
<polygon fill="#63b8ff" stroke="#63b8ff" points="243.7,-48.85 235.06,-54.98 245.64,-55.58 243.7,-48.85"/>
</a>
</g>
</g>
</g>
</svg>
