<?xml version="1.0" encoding="UTF-8" standalone="no"?>
<!DOCTYPE svg PUBLIC "-//W3C//DTD SVG 1.1//EN"
 "http://www.w3.org/Graphics/SVG/1.1/DTD/svg11.dtd">
<!-- Generated by graphviz version 2.43.0 (0)
 -->
<!-- Title: sem_signal_op Pages: 1 -->
<svg width="642pt" height="217pt"
 viewBox="0.00 0.00 642.00 217.00" xmlns="http://www.w3.org/2000/svg" xmlns:xlink="http://www.w3.org/1999/xlink">
<g id="graph0" class="graph" transform="scale(1 1) rotate(0) translate(4 213)">
<title>sem_signal_op</title>
<!-- Node1 -->
<g id="Node000001" class="node">
<title>Node1</title>
<g id="a_Node000001"><a xlink:title="Release semaphore lock (V operation)">
<polygon fill="#999999" stroke="#666666" points="634,-114 545,-114 545,-95 634,-95 634,-114"/>
<text text-anchor="middle" x="589.5" y="-102" font-family="Helvetica,sans-Serif" font-size="10.00">sem_signal_op</text>
</a>
</g>
</g>
<!-- Node2 -->
<g id="Node000002" class="node">
<title>Node2</title>
<g id="a_Node000002"><a xlink:href="main_8c.html#a1594c6785b808f6766d6f6a82852bf61" target="_top" xlink:title="Check for worker timeouts and send pause/resume signals.">
<polygon fill="white" stroke="#666666" points="345,-209 213,-209 213,-190 345,-190 345,-209"/>
<text text-anchor="middle" x="279" y="-197" font-family="Helvetica,sans-Serif" font-size="10.00">check_worker_timeouts</text>
</a>
</g>
</g>
<!-- Node1&#45;&gt;Node2 -->
<g id="edge1_Node000001_Node000002" class="edge">
<title>Node1&#45;&gt;Node2</title>
<g id="a_edge1_Node000001_Node000002"><a xlink:title=" ">
<path fill="none" stroke="#63b8ff" d="M574.56,-122.15C560.13,-139.01 535.95,-163.57 509,-175.5 457.18,-198.43 392.54,-203.33 345.16,-203.13"/>
<polygon fill="#63b8ff" stroke="#63b8ff" points="577.51,-124.08 581.18,-114.14 572.11,-119.62 577.51,-124.08"/>
</a>
</g>
</g>
<!-- Node3 -->
<g id="Node000003" class="node">
<title>Node3</title>
<g id="a_Node000003"><a xlink:href="main_8c.html#a840291bc02cba5474a4cb46a9b9566fe" target="_top" xlink:title="Main entry point for RT&#45;THM supervisor.">
<polygon fill="white" stroke="#666666" points="41,-114 0,-114 0,-95 41,-95 41,-114"/>
<text text-anchor="middle" x="20.5" y="-102" font-family="Helvetica,sans-Serif" font-size="10.00">main</text>
</a>
</g>
</g>
<!-- Node1&#45;&gt;Node3 -->
<g id="edge5_Node000001_Node000003" class="edge">
<title>Node1&#45;&gt;Node3</title>
<g id="a_edge5_Node000001_Node000003"><a xlink:title=" ">
<path fill="none" stroke="#63b8ff" d="M544.52,-116.48C533.03,-119.2 520.62,-121.79 509,-123.5 362.77,-144.98 324.74,-138.28 177,-142.5 132.57,-143.77 119.46,-155.64 77,-142.5 59.15,-136.98 41.93,-123.51 31.53,-114.19"/>
<polygon fill="#63b8ff" stroke="#63b8ff" points="545.45,-119.86 554.32,-114.07 543.78,-113.06 545.45,-119.86"/>
</a>
</g>
</g>
<!-- Node4 -->
<g id="Node000004" class="node">
<title>Node4</title>
<g id="a_Node000004"><a xlink:href="ipc__utils_8c.html#a36bb24831bec33a68c2991a1225c74f1" target="_top" xlink:title="Initialize a worker&#39;s stats entry in shared memory.">
<polygon fill="white" stroke="#666666" points="177,-133 77,-133 77,-114 177,-114 177,-133"/>
<text text-anchor="middle" x="127" y="-121" font-family="Helvetica,sans-Serif" font-size="10.00">init_worker_stats</text>
</a>
</g>
</g>
<!-- Node1&#45;&gt;Node4 -->
<g id="edge3_Node000001_Node000004" class="edge">
<title>Node1&#45;&gt;Node4</title>
<g id="a_edge3_Node000001_Node000004"><a xlink:title=" ">
<path fill="none" stroke="#63b8ff" d="M534.75,-106.72C444.63,-110.44 264.37,-117.87 177.31,-121.47"/>
<polygon fill="#63b8ff" stroke="#63b8ff" points="534.91,-110.21 544.76,-106.3 534.63,-103.22 534.91,-110.21"/>
</a>
</g>
</g>
<!-- Node5 -->
<g id="Node000005" class="node">
<title>Node5</title>
<g id="a_Node000005"><a xlink:href="UI_8c.html#a38bf702c2b7d95494c0fd8e838debce4" target="_top" xlink:title="Draw system status header (time, workers, tasks)">
<polygon fill="white" stroke="#666666" points="505,-95 385,-95 385,-76 505,-76 505,-95"/>
<text text-anchor="middle" x="445" y="-83" font-family="Helvetica,sans-Serif" font-size="10.00">ui_draw_system_info</text>
</a>
</g>
</g>
<!-- Node1&#45;&gt;Node5 -->
<g id="edge6_Node000001_Node000005" class="edge">
<title>Node1&#45;&gt;Node5</title>
<g id="a_edge6_Node000001_Node000005"><a xlink:title=" ">
<path fill="none" stroke="#63b8ff" d="M534.98,-97.36C525.2,-96.06 514.94,-94.69 505.01,-93.37"/>
<polygon fill="#63b8ff" stroke="#63b8ff" points="534.6,-100.84 544.97,-98.7 535.52,-93.91 534.6,-100.84"/>
</a>
</g>
</g>
<!-- Node8 -->
<g id="Node000008" class="node">
<title>Node8</title>
<g id="a_Node000008"><a xlink:href="UI_8c.html#a3e6d8479ebd16234c91a359c675e0329" target="_top" xlink:title="Draw worker statistics table with color&#45;coded status.">
<polygon fill="white" stroke="#666666" points="509,-58 381,-58 381,-39 509,-39 509,-58"/>
<text text-anchor="middle" x="445" y="-46" font-family="Helvetica,sans-Serif" font-size="10.00">ui_draw_workers_table</text>
</a>
</g>
</g>
<!-- Node1&#45;&gt;Node8 -->
<g id="edge11_Node000001_Node000008" class="edge">
<title>Node1&#45;&gt;Node8</title>
<g id="a_edge11_Node000001_Node000008"><a xlink:title=" ">
<path fill="none" stroke="#63b8ff" d="M560.61,-90.33C545.55,-82.98 526.5,-74.17 509,-67.5 500.03,-64.08 490.17,-60.86 480.96,-58.08"/>
<polygon fill="#63b8ff" stroke="#63b8ff" points="559.36,-93.61 569.87,-94.91 562.46,-87.34 559.36,-93.61"/>
</a>
</g>
</g>
<!-- Node9 -->
<g id="Node000009" class="node">
<title>Node9</title>
<g id="a_Node000009"><a xlink:href="worker_8c.html#a46fd66c7fed50332a474537b6c986f4b" target="_top" xlink:title="Main entry point for worker process.">
<polygon fill="white" stroke="#666666" points="325,-19 233,-19 233,0 325,0 325,-19"/>
<text text-anchor="middle" x="279" y="-7" font-family="Helvetica,sans-Serif" font-size="10.00">worker_process</text>
</a>
</g>
</g>
<!-- Node1&#45;&gt;Node9 -->
<g id="edge13_Node000001_Node000009" class="edge">
<title>Node1&#45;&gt;Node9</title>
<g id="a_edge13_Node000001_Node000009"><a xlink:title=" ">
<path fill="none" stroke="#63b8ff" d="M575.67,-86.82C561.56,-68.91 537.12,-42.11 509,-29.5 449.65,-2.87 373.04,-2.05 325.21,-4.96"/>
<polygon fill="#63b8ff" stroke="#63b8ff" points="572.9,-88.95 581.74,-94.79 578.47,-84.72 572.9,-88.95"/>
</a>
</g>
</g>
<!-- Node2&#45;&gt;Node3 -->
<g id="edge2_Node000002_Node000003" class="edge">
<title>Node2&#45;&gt;Node3</title>
<g id="a_edge2_Node000002_Node000003"><a xlink:title=" ">
<path fill="none" stroke="#63b8ff" d="M202.81,-203.99C163.1,-203.16 114.88,-196.84 77,-175.5 51.51,-161.14 33.65,-129.87 25.87,-114.06"/>
<polygon fill="#63b8ff" stroke="#63b8ff" points="202.94,-207.5 212.98,-204.09 203.01,-200.5 202.94,-207.5"/>
</a>
</g>
</g>
<!-- Node4&#45;&gt;Node3 -->
<g id="edge4_Node000004_Node000003" class="edge">
<title>Node4&#45;&gt;Node3</title>
<g id="a_edge4_Node000004_Node000003"><a xlink:title=" ">
<path fill="none" stroke="#63b8ff" d="M66.77,-112.73C57.58,-111.06 48.68,-109.44 41.24,-108.09"/>
<polygon fill="#63b8ff" stroke="#63b8ff" points="66.35,-116.21 76.81,-114.56 67.6,-109.32 66.35,-116.21"/>
</a>
</g>
</g>
<!-- Node6 -->
<g id="Node000006" class="node">
<title>Node6</title>
<g id="a_Node000006"><a xlink:href="UI_8c.html#ae631a5a3ad2c24dd944f5573487f98a3" target="_top" xlink:title="Draw complete dashboard (header + workers + logs)">
<polygon fill="white" stroke="#666666" points="334.5,-76 223.5,-76 223.5,-57 334.5,-57 334.5,-76"/>
<text text-anchor="middle" x="279" y="-64" font-family="Helvetica,sans-Serif" font-size="10.00">ui_draw_dashboard</text>
</a>
</g>
</g>
<!-- Node5&#45;&gt;Node6 -->
<g id="edge7_Node000005_Node000006" class="edge">
<title>Node5&#45;&gt;Node6</title>
<g id="a_edge7_Node000005_Node000006"><a xlink:title=" ">
<path fill="none" stroke="#63b8ff" d="M374.7,-77.47C361.36,-75.93 347.56,-74.33 334.75,-72.84"/>
<polygon fill="#63b8ff" stroke="#63b8ff" points="374.46,-80.97 384.79,-78.64 375.26,-74.01 374.46,-80.97"/>
</a>
</g>
</g>
<!-- Node6&#45;&gt;Node3 -->
<g id="edge8_Node000006_Node000003" class="edge">
<title>Node6&#45;&gt;Node3</title>
<g id="a_edge8_Node000006_Node000003"><a xlink:title=" ">
<path fill="none" stroke="#63b8ff" d="M213.32,-76.08C156.56,-84.49 77.57,-96.19 41.23,-101.58"/>
<polygon fill="#63b8ff" stroke="#63b8ff" points="213.91,-79.53 223.29,-74.61 212.88,-72.61 213.91,-79.53"/>
</a>
</g>
</g>
<!-- Node7 -->
<g id="Node000007" class="node">
<title>Node7</title>
<g id="a_Node000007"><a xlink:href="UI_8c.html#a490ef24341463347d93ff0da36b17180" target="_top" xlink:title="Refresh entire dashboard display.">
<polygon fill="white" stroke="#666666" points="159.5,-57 94.5,-57 94.5,-38 159.5,-38 159.5,-57"/>
<text text-anchor="middle" x="127" y="-45" font-family="Helvetica,sans-Serif" font-size="10.00">ui_refresh</text>
</a>
</g>
</g>
<!-- Node6&#45;&gt;Node7 -->
<g id="edge9_Node000006_Node000007" class="edge">
<title>Node6&#45;&gt;Node7</title>
<g id="a_edge9_Node000006_Node000007"><a xlink:title=" ">
<path fill="none" stroke="#63b8ff" d="M213.48,-58.33C194.83,-55.97 175.3,-53.49 159.63,-51.51"/>
<polygon fill="#63b8ff" stroke="#63b8ff" points="213.06,-61.8 223.42,-59.59 213.94,-54.86 213.06,-61.8"/>
</a>
</g>
</g>
<!-- Node7&#45;&gt;Node3 -->
<g id="edge10_Node000007_Node000003" class="edge">
<title>Node7&#45;&gt;Node3</title>
<g id="a_edge10_Node000007_Node000003"><a xlink:title=" ">
<path fill="none" stroke="#63b8ff" d="M96.24,-61.6C89.84,-64.76 83.16,-68.17 77,-71.5 63.2,-78.97 47.89,-88.14 36.86,-94.91"/>
<polygon fill="#63b8ff" stroke="#63b8ff" points="97.85,-64.7 105.31,-57.18 94.79,-58.41 97.85,-64.7"/>
</a>
</g>
</g>
<!-- Node8&#45;&gt;Node6 -->
<g id="edge12_Node000008_Node000006" class="edge">
<title>Node8&#45;&gt;Node6</title>
<g id="a_edge12_Node000008_Node000006"><a xlink:title=" ">
<path fill="none" stroke="#63b8ff" d="M370.55,-56.56C358.5,-57.88 346.2,-59.23 334.7,-60.5"/>
<polygon fill="#63b8ff" stroke="#63b8ff" points="371.03,-60.03 380.59,-55.46 370.27,-53.07 371.03,-60.03"/>
</a>
</g>
</g>
<!-- Node9&#45;&gt;Node3 -->
<g id="edge14_Node000009_Node000003" class="edge">
<title>Node9&#45;&gt;Node3</title>
<g id="a_edge14_Node000009_Node000003"><a xlink:title=" ">
<path fill="none" stroke="#63b8ff" d="M222.76,-2.97C180.2,-0.6 121.33,-3.29 77,-28.5 50.16,-43.77 32.7,-77.92 25.4,-94.74"/>
<polygon fill="#63b8ff" stroke="#63b8ff" points="222.73,-6.48 232.94,-3.65 223.2,0.51 222.73,-6.48"/>
</a>
</g>
</g>
</g>
</svg>
