<?xml version="1.0" encoding="UTF-8" standalone="no"?>
<!DOCTYPE svg PUBLIC "-//W3C//DTD SVG 1.1//EN"
 "http://www.w3.org/Graphics/SVG/1.1/DTD/svg11.dtd">
<!-- Generated by graphviz version 2.43.0 (0)
 -->
<!-- Title: init_worker_stats Pages: 1 -->
<svg width="334pt" height="64pt"
 viewBox="0.00 0.00 334.00 64.00" xmlns="http://www.w3.org/2000/svg" xmlns:xlink="http://www.w3.org/1999/xlink">
<g id="graph0" class="graph" transform="scale(1 1) rotate(0) translate(4 60)">
<title>init_worker_stats</title>
<!-- Node1 -->
<g id="Node000001" class="node">
<title>Node1</title>
<g id="a_Node000001"><a xlink:title="Initialize a worker&#39;s stats entry in shared memory.">
<polygon fill="#999999" stroke="#666666" points="100,-37 0,-37 0,-18 100,-18 100,-37"/>
<text text-anchor="middle" x="50" y="-25" font-family="Helvetica,sans-Serif" font-size="10.00">init_worker_stats</text>
</a>
</g>
</g>
<!-- Node2 -->
<g id="Node000002" class="node">
<title>Node2</title>
<g id="a_Node000002"><a xlink:href="ipc__utils_8c.html#a10e9222ec21173d9cec5e4a2abc7454b" target="_top" xlink:title="Release semaphore lock (V operation)">
<polygon fill="white" stroke="#666666" points="225,-56 136,-56 136,-37 225,-37 225,-56"/>
<text text-anchor="middle" x="180.5" y="-44" font-family="Helvetica,sans-Serif" font-size="10.00">sem_signal_op</text>
</a>
</g>
</g>
<!-- Node1&#45;&gt;Node2 -->
<g id="edge1_Node000001_Node000002" class="edge">
<title>Node1&#45;&gt;Node2</title>
<g id="a_edge1_Node000001_Node000002"><a xlink:title=" ">
<path fill="none" stroke="#63b8ff" d="M100.31,-34.79C108.67,-36.03 117.38,-37.31 125.83,-38.56"/>
<polygon fill="#63b8ff" stroke="#63b8ff" points="125.58,-42.07 135.98,-40.07 126.6,-35.14 125.58,-42.07"/>
</a>
</g>
</g>
<!-- Node4 -->
<g id="Node000004" class="node">
<title>Node4</title>
<g id="a_Node000004"><a xlink:href="ipc__utils_8c.html#a5d0cc554e478b3289951da79d95b8594" target="_top" xlink:title="Acquire semaphore lock (P operation)">
<polygon fill="white" stroke="#666666" points="221,-19 140,-19 140,0 221,0 221,-19"/>
<text text-anchor="middle" x="180.5" y="-7" font-family="Helvetica,sans-Serif" font-size="10.00">sem_wait_op</text>
</a>
</g>
</g>
<!-- Node1&#45;&gt;Node4 -->
<g id="edge3_Node000001_Node000004" class="edge">
<title>Node1&#45;&gt;Node4</title>
<g id="a_edge3_Node000001_Node000004"><a xlink:title=" ">
<path fill="none" stroke="#63b8ff" d="M100.31,-20.59C109.88,-19.25 119.91,-17.85 129.49,-16.5"/>
<polygon fill="#63b8ff" stroke="#63b8ff" points="130.26,-19.93 139.68,-15.08 129.29,-13 130.26,-19.93"/>
</a>
</g>
</g>
<!-- Node3 -->
<g id="Node000003" class="node">
<title>Node3</title>
<g id="a_Node000003"><a xlink:href="logger_8c.html#a5453dcbc4c790a4aea0e136877073d4d" target="_top" xlink:title="Write formatted log event to file with microsecond timestamp.">
<polygon fill="white" stroke="#666666" points="326,-37 261,-37 261,-18 326,-18 326,-37"/>
<text text-anchor="middle" x="293.5" y="-25" font-family="Helvetica,sans-Serif" font-size="10.00">log_event</text>
</a>
</g>
</g>
<!-- Node2&#45;&gt;Node3 -->
<g id="edge2_Node000002_Node000003" class="edge">
<title>Node2&#45;&gt;Node3</title>
<g id="a_edge2_Node000002_Node000003"><a xlink:title=" ">
<path fill="none" stroke="#63b8ff" d="M225.05,-39.05C233.51,-37.6 242.37,-36.08 250.77,-34.64"/>
<polygon fill="#63b8ff" stroke="#63b8ff" points="251.47,-38.07 260.74,-32.94 250.29,-31.17 251.47,-38.07"/>
</a>
</g>
</g>
<!-- Node4&#45;&gt;Node3 -->
<g id="edge4_Node000004_Node000003" class="edge">
<title>Node4&#45;&gt;Node3</title>
<g id="a_edge4_Node000004_Node000003"><a xlink:title=" ">
<path fill="none" stroke="#63b8ff" d="M221.26,-15.95C230.76,-17.49 240.94,-19.14 250.53,-20.69"/>
<polygon fill="#63b8ff" stroke="#63b8ff" points="250.23,-24.19 260.66,-22.34 251.35,-17.28 250.23,-24.19"/>
</a>
</g>
</g>
</g>
</svg>
