<?xml version="1.0" encoding="UTF-8" standalone="no"?>
<!DOCTYPE svg PUBLIC "-//W3C//DTD SVG 1.1//EN"
 "http://www.w3.org/Graphics/SVG/1.1/DTD/svg11.dtd">
<!-- Generated by graphviz version 2.43.0 (0)
 -->
<!-- Title: include/logger.h Pages: 1 -->
<svg width="544pt" height="82pt"
 viewBox="0.00 0.00 543.50 82.00" xmlns="http://www.w3.org/2000/svg" xmlns:xlink="http://www.w3.org/1999/xlink">
<g id="graph0" class="graph" transform="scale(1 1) rotate(0) translate(4 78)">
<title>include/logger.h</title>
<!-- Node1 -->
<g id="Node000001" class="node">
<title>Node1</title>
<g id="a_Node000001"><a xlink:title="Logging system for RT&#45;THM with microsecond precision.">
<polygon fill="#999999" stroke="#666666" points="317.5,-74 223.5,-74 223.5,-55 317.5,-55 317.5,-74"/>
<text text-anchor="middle" x="270.5" y="-62" font-family="Helvetica,sans-Serif" font-size="10.00">include/logger.h</text>
</a>
</g>
</g>
<!-- Node2 -->
<g id="Node000002" class="node">
<title>Node2</title>
<g id="a_Node000002"><a xlink:href="config_8c.html" target="_top" xlink:title="Configuration parser implementation for RT&#45;THM.">
<polygon fill="white" stroke="#666666" points="71,-19 0,-19 0,0 71,0 71,-19"/>
<text text-anchor="middle" x="35.5" y="-7" font-family="Helvetica,sans-Serif" font-size="10.00">src/config.c</text>
</a>
</g>
</g>
<!-- Node1&#45;&gt;Node2 -->
<g id="edge1_Node000001_Node000002" class="edge">
<title>Node1&#45;&gt;Node2</title>
<g id="a_edge1_Node000001_Node000002"><a xlink:title=" ">
<path fill="none" stroke="#63b8ff" d="M222.95,-52.78C178.07,-42.65 111.78,-27.7 71.24,-18.56"/>
<polygon fill="#63b8ff" stroke="#63b8ff" points="222.22,-56.2 232.74,-54.98 223.76,-49.37 222.22,-56.2"/>
</a>
</g>
</g>
<!-- Node3 -->
<g id="Node000003" class="node">
<title>Node3</title>
<g id="a_Node000003"><a xlink:href="ipc__utils_8c.html" target="_top" xlink:title="IPC utilities implementation (Shared Memory &amp; Semaphores)">
<polygon fill="white" stroke="#666666" points="172,-19 89,-19 89,0 172,0 172,-19"/>
<text text-anchor="middle" x="130.5" y="-7" font-family="Helvetica,sans-Serif" font-size="10.00">src/ipc_utils.c</text>
</a>
</g>
</g>
<!-- Node1&#45;&gt;Node3 -->
<g id="edge2_Node000001_Node000003" class="edge">
<title>Node1&#45;&gt;Node3</title>
<g id="a_edge2_Node000001_Node000003"><a xlink:title=" ">
<path fill="none" stroke="#63b8ff" d="M238.59,-51.42C212.62,-41.59 176.58,-27.95 153.4,-19.17"/>
<polygon fill="#63b8ff" stroke="#63b8ff" points="237.42,-54.72 248.01,-54.98 239.89,-48.17 237.42,-54.72"/>
</a>
</g>
</g>
<!-- Node4 -->
<g id="Node000004" class="node">
<title>Node4</title>
<g id="a_Node000004"><a xlink:href="logger_8c.html" target="_top" xlink:title="Logging system implementation with microsecond precision.">
<polygon fill="white" stroke="#666666" points="262.5,-19 190.5,-19 190.5,0 262.5,0 262.5,-19"/>
<text text-anchor="middle" x="226.5" y="-7" font-family="Helvetica,sans-Serif" font-size="10.00">src/logger.c</text>
</a>
</g>
</g>
<!-- Node1&#45;&gt;Node4 -->
<g id="edge3_Node000001_Node000004" class="edge">
<title>Node1&#45;&gt;Node4</title>
<g id="a_edge3_Node000001_Node000004"><a xlink:title=" ">
<path fill="none" stroke="#63b8ff" d="M256.77,-46.96C249.1,-37.72 239.87,-26.6 233.63,-19.09"/>
<polygon fill="#63b8ff" stroke="#63b8ff" points="254.15,-49.29 263.23,-54.75 259.54,-44.82 254.15,-49.29"/>
</a>
</g>
</g>
<!-- Node5 -->
<g id="Node000005" class="node">
<title>Node5</title>
<g id="a_Node000005"><a xlink:href="main_8c.html" target="_top" xlink:title="RT&#45;THM supervisor process (parent) implementation.">
<polygon fill="white" stroke="#666666" points="348,-19 281,-19 281,0 348,0 348,-19"/>
<text text-anchor="middle" x="314.5" y="-7" font-family="Helvetica,sans-Serif" font-size="10.00">src/main.c</text>
</a>
</g>
</g>
<!-- Node1&#45;&gt;Node5 -->
<g id="edge4_Node000001_Node000005" class="edge">
<title>Node1&#45;&gt;Node5</title>
<g id="a_edge4_Node000001_Node000005"><a xlink:title=" ">
<path fill="none" stroke="#63b8ff" d="M284.23,-46.96C291.9,-37.72 301.13,-26.6 307.37,-19.09"/>
<polygon fill="#63b8ff" stroke="#63b8ff" points="281.46,-44.82 277.77,-54.75 286.85,-49.29 281.46,-44.82"/>
</a>
</g>
</g>
<!-- Node6 -->
<g id="Node000006" class="node">
<title>Node6</title>
<g id="a_Node000006"><a xlink:href="signals_8c.html" target="_top" xlink:title="Signal handling implementation for RT&#45;THM.">
<polygon fill="white" stroke="#666666" points="443,-19 366,-19 366,0 443,0 443,-19"/>
<text text-anchor="middle" x="404.5" y="-7" font-family="Helvetica,sans-Serif" font-size="10.00">src/signals.c</text>
</a>
</g>
</g>
<!-- Node1&#45;&gt;Node6 -->
<g id="edge5_Node000001_Node000006" class="edge">
<title>Node1&#45;&gt;Node6</title>
<g id="a_edge5_Node000001_Node000006"><a xlink:title=" ">
<path fill="none" stroke="#63b8ff" d="M301.37,-51.29C326.2,-41.47 360.49,-27.91 382.58,-19.17"/>
<polygon fill="#63b8ff" stroke="#63b8ff" points="300.04,-48.05 292.03,-54.98 302.62,-54.56 300.04,-48.05"/>
</a>
</g>
</g>
<!-- Node7 -->
<g id="Node000007" class="node">
<title>Node7</title>
<g id="a_Node000007"><a xlink:href="worker_8c.html" target="_top" xlink:title="Worker process implementation for RT&#45;THM.">
<polygon fill="white" stroke="#666666" points="535.5,-19 461.5,-19 461.5,0 535.5,0 535.5,-19"/>
<text text-anchor="middle" x="498.5" y="-7" font-family="Helvetica,sans-Serif" font-size="10.00">src/worker.c</text>
</a>
</g>
</g>
<!-- Node1&#45;&gt;Node7 -->
<g id="edge6_Node000001_Node000007" class="edge">
<title>Node1&#45;&gt;Node7</title>
<g id="a_edge6_Node000001_Node000007"><a xlink:title=" ">
<path fill="none" stroke="#63b8ff" d="M317,-52.69C359.72,-42.76 422.2,-28.24 461.58,-19.08"/>
<polygon fill="#63b8ff" stroke="#63b8ff" points="316.08,-49.31 307.13,-54.98 317.66,-56.13 316.08,-49.31"/>
</a>
</g>
</g>
</g>
</svg>
