<?xml version="1.0" encoding="UTF-8" standalone="no"?>
<!DOCTYPE svg PUBLIC "-//W3C//DTD SVG 1.1//EN"
 "http://www.w3.org/Graphics/SVG/1.1/DTD/svg11.dtd">
<!-- Generated by graphviz version 2.43.0 (0)
 -->
<!-- Title: log_event Pages: 1 -->
<svg width="825pt" height="733pt"
 viewBox="0.00 0.00 825.00 733.04" xmlns="http://www.w3.org/2000/svg" xmlns:xlink="http://www.w3.org/1999/xlink">
<g id="graph0" class="graph" transform="scale(1 1) rotate(0) translate(4 729.04)">
<title>log_event</title>
<!-- Node1 -->
<g id="Node000001" class="node">
<title>Node1</title>
<g id="a_Node000001"><a xlink:title="Write formatted log event to file and optionally console.">
<polygon fill="#999999" stroke="#666666" points="817,-375.54 752,-375.54 752,-356.54 817,-356.54 817,-375.54"/>
<text text-anchor="middle" x="784.5" y="-363.54" font-family="Helvetica,sans-Serif" font-size="10.00">log_event</text>
</a>
</g>
</g>
<!-- Node2 -->
<g id="Node000002" class="node">
<title>Node2</title>
<g id="a_Node000002"><a xlink:href="ipc__utils_8c.html#ab1210bbe865327d0657417f58a0a32db" target="_top" xlink:title="Attach shared memory to process address space.">
<polygon fill="white" stroke="#666666" points="209,-679.54 77,-679.54 77,-660.54 209,-660.54 209,-679.54"/>
<text text-anchor="middle" x="143" y="-667.54" font-family="Helvetica,sans-Serif" font-size="10.00">attach_shared_memory</text>
</a>
</g>
</g>
<!-- Node1&#45;&gt;Node2 -->
<g id="edge1_Node000001_Node000002" class="edge">
<title>Node1&#45;&gt;Node2</title>
<g id="a_edge1_Node000001_Node000002"><a xlink:title=" ">
<path fill="none" stroke="#63b8ff" d="M781.75,-385.9C776.17,-444.15 756.74,-612.55 716,-646.04 552.46,-780.49 265.08,-707.82 173.15,-679.62"/>
<polygon fill="#63b8ff" stroke="#63b8ff" points="785.25,-386.07 782.68,-375.79 778.28,-385.43 785.25,-386.07"/>
</a>
</g>
</g>
<!-- Node3 -->
<g id="Node000003" class="node">
<title>Node3</title>
<g id="a_Node000003"><a xlink:href="main_8c.html#a840291bc02cba5474a4cb46a9b9566fe" target="_top" xlink:title="Main entry point for RT&#45;THM supervisor.">
<polygon fill="white" stroke="#666666" points="41,-337.54 0,-337.54 0,-318.54 41,-318.54 41,-337.54"/>
<text text-anchor="middle" x="20.5" y="-325.54" font-family="Helvetica,sans-Serif" font-size="10.00">main</text>
</a>
</g>
</g>
<!-- Node1&#45;&gt;Node3 -->
<g id="edge20_Node000001_Node000003" class="edge">
<title>Node1&#45;&gt;Node3</title>
<g id="a_edge20_Node000001_Node000003"><a xlink:title=" ">
<path fill="none" stroke="#63b8ff" d="M783.16,-385.78C781.32,-427.22 771.02,-523.66 716,-575.04 639.34,-646.62 591.88,-632.04 487,-632.04 487,-632.04 487,-632.04 313.5,-632.04 252.6,-632.04 89.3,-583.01 77,-570.04 44,-535.25 26.44,-378.13 22.41,-337.6"/>
<polygon fill="#63b8ff" stroke="#63b8ff" points="786.66,-385.74 783.48,-375.64 779.66,-385.52 786.66,-385.74"/>
</a>
</g>
</g>
<!-- Node4 -->
<g id="Node000004" class="node">
<title>Node4</title>
<g id="a_Node000004"><a xlink:href="main_8c.html#a1594c6785b808f6766d6f6a82852bf61" target="_top" xlink:title="Check for worker timeouts and send pause/resume signals.">
<polygon fill="white" stroke="#666666" points="552,-298.54 420,-298.54 420,-279.54 552,-279.54 552,-298.54"/>
<text text-anchor="middle" x="486" y="-286.54" font-family="Helvetica,sans-Serif" font-size="10.00">check_worker_timeouts</text>
</a>
</g>
</g>
<!-- Node1&#45;&gt;Node4 -->
<g id="edge3_Node000001_Node000004" class="edge">
<title>Node1&#45;&gt;Node4</title>
<g id="a_edge3_Node000001_Node000004"><a xlink:title=" ">
<path fill="none" stroke="#63b8ff" d="M776.2,-346.96C766.38,-324.33 746.54,-287.71 716,-272.04 685.67,-256.48 593.68,-269.29 535.94,-279.52"/>
<polygon fill="#63b8ff" stroke="#63b8ff" points="772.97,-348.32 780.01,-356.24 779.45,-345.66 772.97,-348.32"/>
</a>
</g>
</g>
<!-- Node5 -->
<g id="Node000005" class="node">
<title>Node5</title>
<g id="a_Node000005"><a xlink:href="signals_8c.html#aa79b2985b495e6db8bf7675d0a32c3c5" target="_top" xlink:title="Cleanup handler for graceful system shutdown.">
<polygon fill="white" stroke="#666666" points="679.5,-565.54 624.5,-565.54 624.5,-546.54 679.5,-546.54 679.5,-565.54"/>
<text text-anchor="middle" x="652" y="-553.54" font-family="Helvetica,sans-Serif" font-size="10.00">cleanup</text>
</a>
</g>
</g>
<!-- Node1&#45;&gt;Node5 -->
<g id="edge5_Node000001_Node000005" class="edge">
<title>Node1&#45;&gt;Node5</title>
<g id="a_edge5_Node000001_Node000005"><a xlink:title=" ">
<path fill="none" stroke="#63b8ff" d="M780.66,-385.93C774.74,-420.29 757.96,-491 716,-532.04 706.13,-541.7 691.97,-547.55 679.58,-551.06"/>
<polygon fill="#63b8ff" stroke="#63b8ff" points="784.16,-386.19 782.27,-375.77 777.25,-385.1 784.16,-386.19"/>
</a>
</g>
</g>
<!-- Node7 -->
<g id="Node000007" class="node">
<title>Node7</title>
<g id="a_Node000007"><a xlink:href="signals_8c.html#adde3bef4aac394c78441b059135e7343" target="_top" xlink:title="Register all signal handlers for the process.">
<polygon fill="white" stroke="#666666" points="382.5,-527.54 246.5,-527.54 246.5,-508.54 382.5,-508.54 382.5,-527.54"/>
<text text-anchor="middle" x="314.5" y="-515.54" font-family="Helvetica,sans-Serif" font-size="10.00">register_signal_handlers</text>
</a>
</g>
</g>
<!-- Node1&#45;&gt;Node7 -->
<g id="edge21_Node000001_Node000007" class="edge">
<title>Node1&#45;&gt;Node7</title>
<g id="a_edge21_Node000001_Node000007"><a xlink:title=" ">
<path fill="none" stroke="#63b8ff" d="M778.89,-385.73C771.17,-413.91 752.69,-465 716,-489.04 662.86,-523.86 482.4,-523.8 382.84,-520.88"/>
<polygon fill="#63b8ff" stroke="#63b8ff" points="782.34,-386.39 781.42,-375.83 775.56,-384.66 782.34,-386.39"/>
</a>
</g>
</g>
<!-- Node8 -->
<g id="Node000008" class="node">
<title>Node8</title>
<g id="a_Node000008"><a xlink:href="worker_8c.html#a46fd66c7fed50332a474537b6c986f4b" target="_top" xlink:title="Main entry point for worker process.">
<polygon fill="white" stroke="#666666" points="532,-261.54 440,-261.54 440,-242.54 532,-242.54 532,-261.54"/>
<text text-anchor="middle" x="486" y="-249.54" font-family="Helvetica,sans-Serif" font-size="10.00">worker_process</text>
</a>
</g>
</g>
<!-- Node1&#45;&gt;Node8 -->
<g id="edge48_Node000001_Node000008" class="edge">
<title>Node1&#45;&gt;Node8</title>
<g id="a_edge48_Node000001_Node000008"><a xlink:title=" ">
<path fill="none" stroke="#63b8ff" d="M777.59,-346.99C768.71,-321.99 749.31,-279.08 716,-260.04 657.98,-226.87 577.49,-233.79 529.01,-242.47"/>
<polygon fill="#63b8ff" stroke="#63b8ff" points="774.27,-348.1 780.76,-356.48 780.91,-345.89 774.27,-348.1"/>
</a>
</g>
</g>
<!-- Node9 -->
<g id="Node000009" class="node">
<title>Node9</title>
<g id="a_Node000009"><a xlink:href="ipc__utils_8c.html#a7519aa078998d162b3a8d9847d507242" target="_top" xlink:title="Create and initialize binary semaphore.">
<polygon fill="white" stroke="#666666" points="368,-489.54 261,-489.54 261,-470.54 368,-470.54 368,-489.54"/>
<text text-anchor="middle" x="314.5" y="-477.54" font-family="Helvetica,sans-Serif" font-size="10.00">create_semaphore</text>
</a>
</g>
</g>
<!-- Node1&#45;&gt;Node9 -->
<g id="edge12_Node000001_Node000009" class="edge">
<title>Node1&#45;&gt;Node9</title>
<g id="a_edge12_Node000001_Node000009"><a xlink:title=" ">
<path fill="none" stroke="#63b8ff" d="M775.38,-384.96C765.04,-406.42 744.97,-440.45 716,-456.04 602.36,-517.18 443.47,-502.4 364.32,-489.56"/>
<polygon fill="#63b8ff" stroke="#63b8ff" points="778.7,-386.12 779.67,-375.57 772.33,-383.21 778.7,-386.12"/>
</a>
</g>
</g>
<!-- Node10 -->
<g id="Node000010" class="node">
<title>Node10</title>
<g id="a_Node000010"><a xlink:href="ipc__utils_8c.html#a0831e5dc4c665cd91d0e48ad09525386" target="_top" xlink:title="Create shared memory segment for worker stats.">
<polygon fill="white" stroke="#666666" points="209,-451.54 77,-451.54 77,-432.54 209,-432.54 209,-451.54"/>
<text text-anchor="middle" x="143" y="-439.54" font-family="Helvetica,sans-Serif" font-size="10.00">create_shared_memory</text>
</a>
</g>
</g>
<!-- Node1&#45;&gt;Node10 -->
<g id="edge14_Node000001_Node000010" class="edge">
<title>Node1&#45;&gt;Node10</title>
<g id="a_edge14_Node000001_Node000010"><a xlink:title=" ">
<path fill="none" stroke="#63b8ff" d="M759.79,-380.88C747.25,-387.96 731.32,-395.8 716,-400.04 537.74,-449.37 317.02,-449.22 209.31,-445.43"/>
<polygon fill="#63b8ff" stroke="#63b8ff" points="761.79,-383.76 768.65,-375.68 758.25,-377.72 761.79,-383.76"/>
</a>
</g>
</g>
<!-- Node11 -->
<g id="Node000011" class="node">
<title>Node11</title>
<g id="a_Node000011"><a xlink:href="ipc__utils_8c.html#a24e2892a5d99a5ede87d81706193766b" target="_top" xlink:title="Detach shared memory from process address space.">
<polygon fill="white" stroke="#666666" points="381.5,-413.54 247.5,-413.54 247.5,-394.54 381.5,-394.54 381.5,-413.54"/>
<text text-anchor="middle" x="314.5" y="-401.54" font-family="Helvetica,sans-Serif" font-size="10.00">detach_shared_memory</text>
</a>
</g>
</g>
<!-- Node1&#45;&gt;Node11 -->
<g id="edge16_Node000001_Node000011" class="edge">
<title>Node1&#45;&gt;Node11</title>
<g id="a_edge16_Node000001_Node000011"><a xlink:title=" ">
<path fill="none" stroke="#63b8ff" d="M741.67,-375.7C733.21,-377.37 724.35,-378.93 716,-380.04 598.96,-395.6 461.33,-401.08 381.69,-403"/>
<polygon fill="#63b8ff" stroke="#63b8ff" points="742.65,-379.07 751.73,-373.62 741.23,-372.21 742.65,-379.07"/>
</a>
</g>
</g>
<!-- Node12 -->
<g id="Node000012" class="node">
<title>Node12</title>
<g id="a_Node000012"><a xlink:href="config_8c.html#a5ba22acdff5d198406a9d4aa0c73cb12" target="_top" xlink:title="Load configuration parameters from external file.">
<polygon fill="white" stroke="#666666" points="179,-375.54 107,-375.54 107,-356.54 179,-356.54 179,-375.54"/>
<text text-anchor="middle" x="143" y="-363.54" font-family="Helvetica,sans-Serif" font-size="10.00">load_config</text>
</a>
</g>
</g>
<!-- Node1&#45;&gt;Node12 -->
<g id="edge18_Node000001_Node000012" class="edge">
<title>Node1&#45;&gt;Node12</title>
<g id="a_edge18_Node000001_Node000012"><a xlink:title=" ">
<path fill="none" stroke="#63b8ff" d="M741.69,-366.04C623.49,-366.04 288.38,-366.04 179,-366.04"/>
<polygon fill="#63b8ff" stroke="#63b8ff" points="741.79,-369.54 751.79,-366.04 741.79,-362.54 741.79,-369.54"/>
</a>
</g>
</g>
<!-- Node13 -->
<g id="Node000013" class="node">
<title>Node13</title>
<g id="a_Node000013"><a xlink:href="ipc__utils_8c.html#a40ad696ee6efdf12b78c06e26bc95de7" target="_top" xlink:title="Mark shared memory segment for deletion.">
<polygon fill="white" stroke="#666666" points="384,-337.54 245,-337.54 245,-318.54 384,-318.54 384,-337.54"/>
<text text-anchor="middle" x="314.5" y="-325.54" font-family="Helvetica,sans-Serif" font-size="10.00">remove_shared_memory</text>
</a>
</g>
</g>
<!-- Node1&#45;&gt;Node13 -->
<g id="edge22_Node000001_Node000013" class="edge">
<title>Node1&#45;&gt;Node13</title>
<g id="a_edge22_Node000001_Node000013"><a xlink:title=" ">
<path fill="none" stroke="#63b8ff" d="M741.67,-356.38C733.21,-354.71 724.35,-353.15 716,-352.04 600.17,-336.64 464.17,-331.12 384.17,-329.14"/>
<polygon fill="#63b8ff" stroke="#63b8ff" points="741.23,-359.87 751.73,-358.46 742.65,-353.01 741.23,-359.87"/>
</a>
</g>
</g>
<!-- Node14 -->
<g id="Node000014" class="node">
<title>Node14</title>
<g id="a_Node000014"><a xlink:href="ipc__utils_8c.html#a10e9222ec21173d9cec5e4a2abc7454b" target="_top" xlink:title="Release semaphore lock (V operation)">
<polygon fill="white" stroke="#666666" points="696.5,-185.54 607.5,-185.54 607.5,-166.54 696.5,-166.54 696.5,-185.54"/>
<text text-anchor="middle" x="652" y="-173.54" font-family="Helvetica,sans-Serif" font-size="10.00">sem_signal_op</text>
</a>
</g>
</g>
<!-- Node1&#45;&gt;Node14 -->
<g id="edge24_Node000001_Node000014" class="edge">
<title>Node1&#45;&gt;Node14</title>
<g id="a_edge24_Node000001_Node000014"><a xlink:title=" ">
<path fill="none" stroke="#63b8ff" d="M780.66,-346.15C774.74,-311.79 757.96,-241.08 716,-200.04 709.56,-193.74 701.29,-189.06 692.88,-185.59"/>
<polygon fill="#63b8ff" stroke="#63b8ff" points="777.25,-346.98 782.27,-356.31 784.16,-345.89 777.25,-346.98"/>
</a>
</g>
</g>
<!-- Node20 -->
<g id="Node000020" class="node">
<title>Node20</title>
<g id="a_Node000020"><a xlink:href="ipc__utils_8c.html#a5d0cc554e478b3289951da79d95b8594" target="_top" xlink:title="Acquire semaphore lock (P operation)">
<polygon fill="white" stroke="#666666" points="692.5,-148.54 611.5,-148.54 611.5,-129.54 692.5,-129.54 692.5,-148.54"/>
<text text-anchor="middle" x="652" y="-136.54" font-family="Helvetica,sans-Serif" font-size="10.00">sem_wait_op</text>
</a>
</g>
</g>
<!-- Node1&#45;&gt;Node20 -->
<g id="edge37_Node000001_Node000020" class="edge">
<title>Node1&#45;&gt;Node20</title>
<g id="a_edge37_Node000001_Node000020"><a xlink:title=" ">
<path fill="none" stroke="#63b8ff" d="M783.02,-346.45C780.92,-305.29 770.13,-209.36 716,-157.04 709.62,-150.87 701.28,-146.8 692.76,-144.1"/>
<polygon fill="#63b8ff" stroke="#63b8ff" points="779.52,-346.66 783.41,-356.52 786.52,-346.39 779.52,-346.66"/>
</a>
</g>
</g>
<!-- Node21 -->
<g id="Node000021" class="node">
<title>Node21</title>
<g id="a_Node000021"><a xlink:href="signals_8c.html#a9b352f5e054878b135c4d45ee28f17d9" target="_top" xlink:title="Send signal to a specific worker process.">
<polygon fill="white" stroke="#666666" points="716,-299.54 588,-299.54 588,-280.54 716,-280.54 716,-299.54"/>
<text text-anchor="middle" x="652" y="-287.54" font-family="Helvetica,sans-Serif" font-size="10.00">send_signal_to_worker</text>
</a>
</g>
</g>
<!-- Node1&#45;&gt;Node21 -->
<g id="edge44_Node000001_Node000021" class="edge">
<title>Node1&#45;&gt;Node21</title>
<g id="a_edge44_Node000001_Node000021"><a xlink:title=" ">
<path fill="none" stroke="#63b8ff" d="M765.46,-349.79C752.42,-338.64 734,-324.12 716,-314.04 705.79,-308.33 693.94,-303.41 683.29,-299.55"/>
<polygon fill="#63b8ff" stroke="#63b8ff" points="763.36,-352.6 773.2,-356.54 767.96,-347.32 763.36,-352.6"/>
</a>
</g>
</g>
<!-- Node22 -->
<g id="Node000022" class="node">
<title>Node22</title>
<g id="a_Node000022"><a xlink:href="config_8c.html#a83b96494995d002bae79323b61b29e8b" target="_top" xlink:title="Validate loaded configuration values against constraints.">
<polygon fill="white" stroke="#666666" points="188.5,-33.54 97.5,-33.54 97.5,-14.54 188.5,-14.54 188.5,-33.54"/>
<text text-anchor="middle" x="143" y="-21.54" font-family="Helvetica,sans-Serif" font-size="10.00">validate_config</text>
</a>
</g>
</g>
<!-- Node1&#45;&gt;Node22 -->
<g id="edge46_Node000001_Node000022" class="edge">
<title>Node1&#45;&gt;Node22</title>
<g id="a_edge46_Node000001_Node000022"><a xlink:title=" ">
<path fill="none" stroke="#63b8ff" d="M783.72,-346.01C783.13,-300.14 775.39,-186.33 716,-120.04 579.09,32.76 297.78,3.14 188.65,-15.31"/>
<polygon fill="#63b8ff" stroke="#63b8ff" points="780.22,-346.15 783.74,-356.14 787.22,-346.13 780.22,-346.15"/>
</a>
</g>
</g>
<!-- Node2&#45;&gt;Node3 -->
<g id="edge2_Node000002_Node000003" class="edge">
<title>Node2&#45;&gt;Node3</title>
<g id="a_edge2_Node000002_Node000003"><a xlink:title=" ">
<path fill="none" stroke="#63b8ff" d="M88.14,-655.7C83.97,-653.01 80.16,-649.83 77,-646.04 36.36,-597.29 24.19,-385.87 21.92,-337.79"/>
<polygon fill="#63b8ff" stroke="#63b8ff" points="86.66,-658.88 97.13,-660.54 89.98,-652.72 86.66,-658.88"/>
</a>
</g>
</g>
<!-- Node4&#45;&gt;Node3 -->
<g id="edge4_Node000004_Node000003" class="edge">
<title>Node4&#45;&gt;Node3</title>
<g id="a_edge4_Node000004_Node000003"><a xlink:title=" ">
<path fill="none" stroke="#63b8ff" d="M409.58,-295.39C300.11,-304.6 103.45,-321.15 41.05,-326.4"/>
<polygon fill="#63b8ff" stroke="#63b8ff" points="409.9,-298.87 419.57,-294.55 409.32,-291.9 409.9,-298.87"/>
</a>
</g>
</g>
<!-- Node5&#45;&gt;Node3 -->
<g id="edge6_Node000005_Node000003" class="edge">
<title>Node5&#45;&gt;Node3</title>
<g id="a_edge6_Node000005_Node000003"><a xlink:title=" ">
<path fill="none" stroke="#63b8ff" d="M614.62,-567.5C514.67,-596.51 232.98,-661.19 77,-524.04 19.9,-473.83 19.56,-369.71 20.92,-337.65"/>
<polygon fill="#63b8ff" stroke="#63b8ff" points="615.67,-570.84 624.26,-564.65 613.68,-564.13 615.67,-570.84"/>
</a>
</g>
</g>
<!-- Node6 -->
<g id="Node000006" class="node">
<title>Node6</title>
<g id="a_Node000006"><a xlink:href="signals_8c.html#a2227b50e2e42d7fbcaf283ae0b04bda5" target="_top" xlink:title="Wrapper signal handler for safe terminal restoration.">
<polygon fill="white" stroke="#666666" points="531,-565.54 441,-565.54 441,-546.54 531,-546.54 531,-565.54"/>
<text text-anchor="middle" x="486" y="-553.54" font-family="Helvetica,sans-Serif" font-size="10.00">safe_shutdown</text>
</a>
</g>
</g>
<!-- Node5&#45;&gt;Node6 -->
<g id="edge7_Node000005_Node000006" class="edge">
<title>Node5&#45;&gt;Node6</title>
<g id="a_edge7_Node000005_Node000006"><a xlink:title=" ">
<path fill="none" stroke="#63b8ff" d="M614.25,-556.04C589.61,-556.04 557.03,-556.04 531,-556.04"/>
<polygon fill="#63b8ff" stroke="#63b8ff" points="614.29,-559.54 624.29,-556.04 614.29,-552.54 614.29,-559.54"/>
</a>
</g>
</g>
<!-- Node5&#45;&gt;Node8 -->
<g id="edge10_Node000005_Node000008" class="edge">
<title>Node5&#45;&gt;Node8</title>
<g id="a_edge10_Node000005_Node000008"><a xlink:title=" ">
<path fill="none" stroke="#63b8ff" d="M650.11,-536.48C646.71,-485.16 630.33,-345.55 552,-271.04 546.46,-265.77 539.55,-261.96 532.31,-259.19"/>
<polygon fill="#63b8ff" stroke="#63b8ff" points="646.62,-536.75 650.68,-546.54 653.61,-536.35 646.62,-536.75"/>
</a>
</g>
</g>
<!-- Node6&#45;&gt;Node7 -->
<g id="edge8_Node000006_Node000007" class="edge">
<title>Node6&#45;&gt;Node7</title>
<g id="a_edge8_Node000006_Node000007"><a xlink:title=" ">
<path fill="none" stroke="#63b8ff" d="M432.26,-544.22C408.36,-538.86 380.48,-532.61 357.96,-527.56"/>
<polygon fill="#63b8ff" stroke="#63b8ff" points="431.7,-547.68 442.23,-546.45 433.24,-540.85 431.7,-547.68"/>
</a>
</g>
</g>
<!-- Node7&#45;&gt;Node3 -->
<g id="edge9_Node000007_Node000003" class="edge">
<title>Node7&#45;&gt;Node3</title>
<g id="a_edge9_Node000007_Node000003"><a xlink:title=" ">
<path fill="none" stroke="#63b8ff" d="M244.82,-528.43C193.19,-532.29 123.61,-528.59 77,-491.04 27.88,-451.47 22.03,-366.4 21.49,-337.71"/>
<polygon fill="#63b8ff" stroke="#63b8ff" points="245.23,-531.91 254.9,-527.56 244.63,-524.93 245.23,-531.91"/>
</a>
</g>
</g>
<!-- Node8&#45;&gt;Node3 -->
<g id="edge11_Node000008_Node000003" class="edge">
<title>Node8&#45;&gt;Node3</title>
<g id="a_edge11_Node000008_Node000003"><a xlink:title=" ">
<path fill="none" stroke="#63b8ff" d="M429.52,-255.95C350.37,-262.36 200.92,-277.57 77,-308.04 64.87,-311.02 51.69,-315.71 41.23,-319.79"/>
<polygon fill="#63b8ff" stroke="#63b8ff" points="430.05,-259.42 439.74,-255.14 429.5,-252.44 430.05,-259.42"/>
</a>
</g>
</g>
<!-- Node9&#45;&gt;Node3 -->
<g id="edge13_Node000009_Node000003" class="edge">
<title>Node9&#45;&gt;Node3</title>
<g id="a_edge13_Node000009_Node000003"><a xlink:title=" ">
<path fill="none" stroke="#63b8ff" d="M256.4,-490.99C204.62,-497.6 128.72,-498.58 77,-461.04 35.29,-430.77 24.77,-363.09 22.25,-337.82"/>
<polygon fill="#63b8ff" stroke="#63b8ff" points="256.99,-494.45 266.41,-489.61 256.03,-487.51 256.99,-494.45"/>
</a>
</g>
</g>
<!-- Node10&#45;&gt;Node3 -->
<g id="edge15_Node000010_Node000003" class="edge">
<title>Node10&#45;&gt;Node3</title>
<g id="a_edge15_Node000010_Node000003"><a xlink:title=" ">
<path fill="none" stroke="#63b8ff" d="M93.78,-428.45C87.78,-425.58 82.01,-422.14 77,-418.04 49.58,-395.6 31.96,-355.84 24.95,-337.63"/>
<polygon fill="#63b8ff" stroke="#63b8ff" points="92.74,-431.81 103.31,-432.51 95.49,-425.37 92.74,-431.81"/>
</a>
</g>
</g>
<!-- Node11&#45;&gt;Node3 -->
<g id="edge17_Node000011_Node000003" class="edge">
<title>Node11&#45;&gt;Node3</title>
<g id="a_edge17_Node000011_Node000003"><a xlink:title=" ">
<path fill="none" stroke="#63b8ff" d="M237.31,-411.22C189.16,-412.61 126.85,-408.48 77,-385.04 54.75,-374.58 36.61,-351.11 27.62,-337.78"/>
<polygon fill="#63b8ff" stroke="#63b8ff" points="237.5,-414.71 247.36,-410.84 237.23,-407.72 237.5,-414.71"/>
</a>
</g>
</g>
<!-- Node12&#45;&gt;Node3 -->
<g id="edge19_Node000012_Node000003" class="edge">
<title>Node12&#45;&gt;Node3</title>
<g id="a_edge19_Node000012_Node000003"><a xlink:title=" ">
<path fill="none" stroke="#63b8ff" d="M101.92,-353.4C81.56,-346.98 57.72,-339.46 41.31,-334.29"/>
<polygon fill="#63b8ff" stroke="#63b8ff" points="101,-356.78 111.59,-356.45 103.11,-350.11 101,-356.78"/>
</a>
</g>
</g>
<!-- Node13&#45;&gt;Node3 -->
<g id="edge23_Node000013_Node000003" class="edge">
<title>Node13&#45;&gt;Node3</title>
<g id="a_edge23_Node000013_Node000003"><a xlink:title=" ">
<path fill="none" stroke="#63b8ff" d="M234.33,-328.04C168.6,-328.04 79.82,-328.04 41.01,-328.04"/>
<polygon fill="#63b8ff" stroke="#63b8ff" points="234.67,-331.54 244.67,-328.04 234.67,-324.54 234.67,-331.54"/>
</a>
</g>
</g>
<!-- Node14&#45;&gt;Node3 -->
<g id="edge28_Node000014_Node000003" class="edge">
<title>Node14&#45;&gt;Node3</title>
<g id="a_edge28_Node000014_Node000003"><a xlink:title=" ">
<path fill="none" stroke="#63b8ff" d="M597.22,-185.87C582.56,-188.53 566.67,-191.41 552,-194.04 340.98,-231.88 269.65,-183.99 77,-278.04 57.19,-287.71 39.21,-306.59 29.37,-318.18"/>
<polygon fill="#63b8ff" stroke="#63b8ff" points="597.93,-189.3 607.15,-184.06 596.68,-182.41 597.93,-189.3"/>
</a>
</g>
</g>
<!-- Node14&#45;&gt;Node4 -->
<g id="edge25_Node000014_Node000004" class="edge">
<title>Node14&#45;&gt;Node4</title>
<g id="a_edge25_Node000014_Node000004"><a xlink:title=" ">
<path fill="none" stroke="#63b8ff" d="M633.78,-192.99C606.72,-219.57 556.8,-268.31 552,-271.04 546,-274.46 539.31,-277.26 532.57,-279.54"/>
<polygon fill="#63b8ff" stroke="#63b8ff" points="636.38,-195.34 641.06,-185.84 631.47,-190.35 636.38,-195.34"/>
</a>
</g>
</g>
<!-- Node14&#45;&gt;Node8 -->
<g id="edge36_Node000014_Node000008" class="edge">
<title>Node14&#45;&gt;Node8</title>
<g id="a_edge36_Node000014_Node000008"><a xlink:title=" ">
<path fill="none" stroke="#63b8ff" d="M610.99,-189.23C603.17,-192.37 595.18,-196 588,-200.04 570.33,-209.98 569.72,-218.19 552,-228.04 541.7,-233.77 529.76,-238.63 518.94,-242.45"/>
<polygon fill="#63b8ff" stroke="#63b8ff" points="612.28,-192.48 620.37,-185.64 609.78,-185.94 612.28,-192.48"/>
</a>
</g>
</g>
<!-- Node15 -->
<g id="Node000015" class="node">
<title>Node15</title>
<g id="a_Node000015"><a xlink:href="ipc__utils_8c.html#a36bb24831bec33a68c2991a1225c74f1" target="_top" xlink:title="Initialize a worker&#39;s stats entry in shared memory.">
<polygon fill="white" stroke="#666666" points="536,-185.54 436,-185.54 436,-166.54 536,-166.54 536,-185.54"/>
<text text-anchor="middle" x="486" y="-173.54" font-family="Helvetica,sans-Serif" font-size="10.00">init_worker_stats</text>
</a>
</g>
</g>
<!-- Node14&#45;&gt;Node15 -->
<g id="edge26_Node000014_Node000015" class="edge">
<title>Node14&#45;&gt;Node15</title>
<g id="a_edge26_Node000014_Node000015"><a xlink:title=" ">
<path fill="none" stroke="#63b8ff" d="M597.44,-176.04C577.73,-176.04 555.53,-176.04 536.23,-176.04"/>
<polygon fill="#63b8ff" stroke="#63b8ff" points="597.48,-179.54 607.48,-176.04 597.48,-172.54 597.48,-179.54"/>
</a>
</g>
</g>
<!-- Node16 -->
<g id="Node000016" class="node">
<title>Node16</title>
<g id="a_Node000016"><a xlink:href="UI_8c.html#a38bf702c2b7d95494c0fd8e838debce4" target="_top" xlink:title="Draw system status header (time, workers, tasks)">
<polygon fill="white" stroke="#666666" points="546,-148.54 426,-148.54 426,-129.54 546,-129.54 546,-148.54"/>
<text text-anchor="middle" x="486" y="-136.54" font-family="Helvetica,sans-Serif" font-size="10.00">ui_draw_system_info</text>
</a>
</g>
</g>
<!-- Node14&#45;&gt;Node16 -->
<g id="edge29_Node000014_Node000016" class="edge">
<title>Node14&#45;&gt;Node16</title>
<g id="a_edge29_Node000014_Node000016"><a xlink:title=" ">
<path fill="none" stroke="#63b8ff" d="M598.75,-164.25C576.36,-159.2 550.55,-153.38 529.38,-148.6"/>
<polygon fill="#63b8ff" stroke="#63b8ff" points="598.24,-167.73 608.77,-166.51 599.78,-160.9 598.24,-167.73"/>
</a>
</g>
</g>
<!-- Node19 -->
<g id="Node000019" class="node">
<title>Node19</title>
<g id="a_Node000019"><a xlink:href="UI_8c.html#a3e6d8479ebd16234c91a359c675e0329" target="_top" xlink:title="Draw worker statistics table with color&#45;coded status.">
<polygon fill="white" stroke="#666666" points="550,-111.54 422,-111.54 422,-92.54 550,-92.54 550,-111.54"/>
<text text-anchor="middle" x="486" y="-99.54" font-family="Helvetica,sans-Serif" font-size="10.00">ui_draw_workers_table</text>
</a>
</g>
</g>
<!-- Node14&#45;&gt;Node19 -->
<g id="edge34_Node000014_Node000019" class="edge">
<title>Node14&#45;&gt;Node19</title>
<g id="a_edge34_Node000014_Node000019"><a xlink:title=" ">
<path fill="none" stroke="#63b8ff" d="M599.36,-162.87C595.4,-161.15 591.57,-159.21 588,-157.04 568.39,-145.13 571.74,-131.73 552,-120.04 546.26,-116.64 539.85,-113.86 533.36,-111.6"/>
<polygon fill="#63b8ff" stroke="#63b8ff" points="598.13,-166.15 608.72,-166.53 600.68,-159.63 598.13,-166.15"/>
</a>
</g>
</g>
<!-- Node15&#45;&gt;Node3 -->
<g id="edge27_Node000015_Node000003" class="edge">
<title>Node15&#45;&gt;Node3</title>
<g id="a_edge27_Node000015_Node000003"><a xlink:title=" ">
<path fill="none" stroke="#63b8ff" d="M425.65,-172.14C326.27,-166.8 131.69,-161.8 77,-200.04 36.31,-228.49 25.2,-293.46 22.39,-318.21"/>
<polygon fill="#63b8ff" stroke="#63b8ff" points="425.65,-175.64 435.83,-172.71 426.04,-168.66 425.65,-175.64"/>
</a>
</g>
</g>
<!-- Node17 -->
<g id="Node000017" class="node">
<title>Node17</title>
<g id="a_Node000017"><a xlink:href="UI_8c.html#ae631a5a3ad2c24dd944f5573487f98a3" target="_top" xlink:title="Draw complete dashboard (header + workers + logs)">
<polygon fill="white" stroke="#666666" points="370,-129.54 259,-129.54 259,-110.54 370,-110.54 370,-129.54"/>
<text text-anchor="middle" x="314.5" y="-117.54" font-family="Helvetica,sans-Serif" font-size="10.00">ui_draw_dashboard</text>
</a>
</g>
</g>
<!-- Node16&#45;&gt;Node17 -->
<g id="edge30_Node000016_Node000017" class="edge">
<title>Node16&#45;&gt;Node17</title>
<g id="a_edge30_Node000016_Node000017"><a xlink:title=" ">
<path fill="none" stroke="#63b8ff" d="M415.41,-131.24C400.34,-129.55 384.61,-127.79 370.21,-126.17"/>
<polygon fill="#63b8ff" stroke="#63b8ff" points="415.39,-134.76 425.72,-132.4 416.17,-127.8 415.39,-134.76"/>
</a>
</g>
</g>
<!-- Node17&#45;&gt;Node3 -->
<g id="edge31_Node000017_Node000003" class="edge">
<title>Node17&#45;&gt;Node3</title>
<g id="a_edge31_Node000017_Node000003"><a xlink:title=" ">
<path fill="none" stroke="#63b8ff" d="M248.51,-124.2C187.56,-129.39 102.14,-140.34 77,-162.04 28.46,-203.93 22.23,-289.54 21.54,-318.34"/>
<polygon fill="#63b8ff" stroke="#63b8ff" points="249.14,-127.66 258.82,-123.36 248.57,-120.69 249.14,-127.66"/>
</a>
</g>
</g>
<!-- Node18 -->
<g id="Node000018" class="node">
<title>Node18</title>
<g id="a_Node000018"><a xlink:href="UI_8c.html#a490ef24341463347d93ff0da36b17180" target="_top" xlink:title="Refresh entire dashboard display.">
<polygon fill="white" stroke="#666666" points="175.5,-109.54 110.5,-109.54 110.5,-90.54 175.5,-90.54 175.5,-109.54"/>
<text text-anchor="middle" x="143" y="-97.54" font-family="Helvetica,sans-Serif" font-size="10.00">ui_refresh</text>
</a>
</g>
</g>
<!-- Node17&#45;&gt;Node18 -->
<g id="edge32_Node000017_Node000018" class="edge">
<title>Node17&#45;&gt;Node18</title>
<g id="a_edge32_Node000017_Node000018"><a xlink:title=" ">
<path fill="none" stroke="#63b8ff" d="M248.76,-112.4C223.75,-109.45 196.26,-106.21 175.73,-103.78"/>
<polygon fill="#63b8ff" stroke="#63b8ff" points="248.59,-115.91 258.94,-113.6 249.42,-108.96 248.59,-115.91"/>
</a>
</g>
</g>
<!-- Node18&#45;&gt;Node3 -->
<g id="edge33_Node000018_Node000003" class="edge">
<title>Node18&#45;&gt;Node3</title>
<g id="a_edge33_Node000018_Node000003"><a xlink:title=" ">
<path fill="none" stroke="#63b8ff" d="M100.81,-108.6C91.97,-112.12 83.38,-117.07 77,-124.04 23.71,-182.24 20.78,-286.57 21.21,-318.5"/>
<polygon fill="#63b8ff" stroke="#63b8ff" points="102.08,-111.87 110.41,-105.32 99.81,-105.24 102.08,-111.87"/>
</a>
</g>
</g>
<!-- Node19&#45;&gt;Node17 -->
<g id="edge35_Node000019_Node000017" class="edge">
<title>Node19&#45;&gt;Node17</title>
<g id="a_edge35_Node000019_Node000017"><a xlink:title=" ">
<path fill="none" stroke="#63b8ff" d="M411.78,-109.82C397.77,-111.3 383.33,-112.84 370.04,-114.25"/>
<polygon fill="#63b8ff" stroke="#63b8ff" points="412.31,-113.28 421.88,-108.74 411.57,-106.32 412.31,-113.28"/>
</a>
</g>
</g>
<!-- Node20&#45;&gt;Node3 -->
<g id="edge40_Node000020_Node000003" class="edge">
<title>Node20&#45;&gt;Node3</title>
<g id="a_edge40_Node000020_Node000003"><a xlink:title=" ">
<path fill="none" stroke="#63b8ff" d="M630.57,-123.32C611.45,-109.67 581.49,-90.89 552,-83.04 450,-55.87 159.42,-15.09 77,-81.04 38.74,-111.66 25.02,-276.36 22.12,-318.31"/>
<polygon fill="#63b8ff" stroke="#63b8ff" points="628.66,-126.26 638.79,-129.36 632.8,-120.62 628.66,-126.26"/>
</a>
</g>
</g>
<!-- Node20&#45;&gt;Node4 -->
<g id="edge38_Node000020_Node000004" class="edge">
<title>Node20&#45;&gt;Node4</title>
<g id="a_edge38_Node000020_Node000004"><a xlink:title=" ">
<path fill="none" stroke="#63b8ff" d="M601.8,-147.73C596.72,-150.13 591.97,-153.17 588,-157.04 549.91,-194.09 590.24,-234.15 552,-271.04 548.46,-274.46 544.33,-277.23 539.91,-279.49"/>
<polygon fill="#63b8ff" stroke="#63b8ff" points="603.15,-150.96 611.21,-144.07 600.62,-144.43 603.15,-150.96"/>
</a>
</g>
</g>
<!-- Node20&#45;&gt;Node8 -->
<g id="edge43_Node000020_Node000008" class="edge">
<title>Node20&#45;&gt;Node8</title>
<g id="a_edge43_Node000020_Node000008"><a xlink:title=" ">
<path fill="none" stroke="#63b8ff" d="M601.94,-150.28C597.08,-152.21 592.34,-154.45 588,-157.04 568.31,-168.81 568.57,-178.17 552,-194.04 533.65,-211.62 511.39,-231.1 498.26,-242.42"/>
<polygon fill="#63b8ff" stroke="#63b8ff" points="603.11,-153.58 611.37,-146.95 600.78,-146.98 603.11,-153.58"/>
</a>
</g>
</g>
<!-- Node20&#45;&gt;Node15 -->
<g id="edge39_Node000020_Node000015" class="edge">
<title>Node20&#45;&gt;Node15</title>
<g id="a_edge39_Node000020_Node000015"><a xlink:title=" ">
<path fill="none" stroke="#63b8ff" d="M601.37,-150.24C578.33,-155.44 551.24,-161.55 529.2,-166.52"/>
<polygon fill="#63b8ff" stroke="#63b8ff" points="602.32,-153.61 611.3,-148 600.78,-146.78 602.32,-153.61"/>
</a>
</g>
</g>
<!-- Node20&#45;&gt;Node16 -->
<g id="edge41_Node000020_Node000016" class="edge">
<title>Node20&#45;&gt;Node16</title>
<g id="a_edge41_Node000020_Node000016"><a xlink:title=" ">
<path fill="none" stroke="#63b8ff" d="M600.87,-139.04C583.61,-139.04 564.12,-139.04 546.2,-139.04"/>
<polygon fill="#63b8ff" stroke="#63b8ff" points="601.3,-142.54 611.3,-139.04 601.3,-135.54 601.3,-142.54"/>
</a>
</g>
</g>
<!-- Node20&#45;&gt;Node19 -->
<g id="edge42_Node000020_Node000019" class="edge">
<title>Node20&#45;&gt;Node19</title>
<g id="a_edge42_Node000020_Node000019"><a xlink:title=" ">
<path fill="none" stroke="#63b8ff" d="M601.37,-127.84C578.33,-122.65 551.24,-116.53 529.2,-111.56"/>
<polygon fill="#63b8ff" stroke="#63b8ff" points="600.78,-131.3 611.3,-130.08 602.32,-124.47 600.78,-131.3"/>
</a>
</g>
</g>
<!-- Node21&#45;&gt;Node4 -->
<g id="edge45_Node000021_Node000004" class="edge">
<title>Node21&#45;&gt;Node4</title>
<g id="a_edge45_Node000021_Node000004"><a xlink:title=" ">
<path fill="none" stroke="#63b8ff" d="M577.4,-289.59C568.98,-289.54 560.44,-289.49 552.13,-289.44"/>
<polygon fill="#63b8ff" stroke="#63b8ff" points="577.57,-293.09 587.59,-289.65 577.61,-286.09 577.57,-293.09"/>
</a>
</g>
</g>
<!-- Node22&#45;&gt;Node3 -->
<g id="edge47_Node000022_Node000003" class="edge">
<title>Node22&#45;&gt;Node3</title>
<g id="a_edge47_Node000022_Node000003"><a xlink:title=" ">
<path fill="none" stroke="#63b8ff" d="M88.23,-38.46C84.04,-41.13 80.2,-44.29 77,-48.04 40.89,-90.36 25.43,-273.79 22.17,-318.29"/>
<polygon fill="#63b8ff" stroke="#63b8ff" points="90.07,-41.44 97.24,-33.64 86.78,-35.27 90.07,-41.44"/>
</a>
</g>
</g>
</g>
</svg>
