<?xml version="1.0" encoding="UTF-8" standalone="no"?>
<!DOCTYPE svg PUBLIC "-//W3C//DTD SVG 1.1//EN"
 "http://www.w3.org/Graphics/SVG/1.1/DTD/svg11.dtd">
<!-- Generated by graphviz version 2.43.0 (0)
 -->
<!-- Title: logger_close Pages: 1 -->
<svg width="552pt" height="87pt"
 viewBox="0.00 0.00 552.00 87.21" xmlns="http://www.w3.org/2000/svg" xmlns:xlink="http://www.w3.org/1999/xlink">
<g id="graph0" class="graph" transform="scale(1 1) rotate(0) translate(4 83.21)">
<title>logger_close</title>
<!-- Node1 -->
<g id="Node000001" class="node">
<title>Node1</title>
<g id="a_Node000001"><a xlink:title="Close log file and cleanup resources.">
<polygon fill="#999999" stroke="#666666" points="544,-56 466,-56 466,-37 544,-37 544,-56"/>
<text text-anchor="middle" x="505" y="-44" font-family="Helvetica,sans-Serif" font-size="10.00">logger_close</text>
</a>
</g>
</g>
<!-- Node2 -->
<g id="Node000002" class="node">
<title>Node2</title>
<g id="a_Node000002"><a xlink:href="signals_8c.html#aa79b2985b495e6db8bf7675d0a32c3c5" target="_top" xlink:title="Cleanup handler for graceful system shutdown.">
<polygon fill="white" stroke="#666666" points="430,-56 375,-56 375,-37 430,-37 430,-56"/>
<text text-anchor="middle" x="402.5" y="-44" font-family="Helvetica,sans-Serif" font-size="10.00">cleanup</text>
</a>
</g>
</g>
<!-- Node1&#45;&gt;Node2 -->
<g id="edge1_Node000001_Node000002" class="edge">
<title>Node1&#45;&gt;Node2</title>
<g id="a_edge1_Node000001_Node000002"><a xlink:title=" ">
<path fill="none" stroke="#63b8ff" d="M455.54,-46.5C446.79,-46.5 437.97,-46.5 430.13,-46.5"/>
<polygon fill="#63b8ff" stroke="#63b8ff" points="455.72,-50 465.72,-46.5 455.72,-43 455.72,-50"/>
</a>
</g>
</g>
<!-- Node3 -->
<g id="Node000003" class="node">
<title>Node3</title>
<g id="a_Node000003"><a xlink:href="main_8c.html#a840291bc02cba5474a4cb46a9b9566fe" target="_top" xlink:title="Main entry point for RT&#45;THM supervisor.">
<polygon fill="white" stroke="#666666" points="41,-56 0,-56 0,-37 41,-37 41,-56"/>
<text text-anchor="middle" x="20.5" y="-44" font-family="Helvetica,sans-Serif" font-size="10.00">main</text>
</a>
</g>
</g>
<!-- Node2&#45;&gt;Node3 -->
<g id="edge2_Node000002_Node000003" class="edge">
<title>Node2&#45;&gt;Node3</title>
<g id="a_edge2_Node000002_Node000003"><a xlink:title=" ">
<path fill="none" stroke="#63b8ff" d="M366.43,-59.14C357.6,-61.77 348.05,-64.16 339,-65.5 223.82,-82.62 191.86,-84.62 77,-65.5 64.74,-63.46 51.56,-59.05 41.13,-54.99"/>
<polygon fill="#63b8ff" stroke="#63b8ff" points="367.57,-62.45 376.05,-56.1 365.46,-55.78 367.57,-62.45"/>
</a>
</g>
</g>
<!-- Node4 -->
<g id="Node000004" class="node">
<title>Node4</title>
<g id="a_Node000004"><a xlink:href="signals_8c.html#a2227b50e2e42d7fbcaf283ae0b04bda5" target="_top" xlink:title="Wrapper signal handler for safe terminal restoration.">
<polygon fill="white" stroke="#666666" points="339,-56 249,-56 249,-37 339,-37 339,-56"/>
<text text-anchor="middle" x="294" y="-44" font-family="Helvetica,sans-Serif" font-size="10.00">safe_shutdown</text>
</a>
</g>
</g>
<!-- Node2&#45;&gt;Node4 -->
<g id="edge3_Node000002_Node000004" class="edge">
<title>Node2&#45;&gt;Node4</title>
<g id="a_edge3_Node000002_Node000004"><a xlink:title=" ">
<path fill="none" stroke="#63b8ff" d="M364.79,-46.5C356.5,-46.5 347.61,-46.5 339.06,-46.5"/>
<polygon fill="#63b8ff" stroke="#63b8ff" points="364.9,-50 374.9,-46.5 364.9,-43 364.9,-50"/>
</a>
</g>
</g>
<!-- Node6 -->
<g id="Node000006" class="node">
<title>Node6</title>
<g id="a_Node000006"><a xlink:href="worker_8c.html#a46fd66c7fed50332a474537b6c986f4b" target="_top" xlink:title="Main entry point for worker process.">
<polygon fill="white" stroke="#666666" points="191,-19 99,-19 99,0 191,0 191,-19"/>
<text text-anchor="middle" x="145" y="-7" font-family="Helvetica,sans-Serif" font-size="10.00">worker_process</text>
</a>
</g>
</g>
<!-- Node2&#45;&gt;Node6 -->
<g id="edge6_Node000002_Node000006" class="edge">
<title>Node2&#45;&gt;Node6</title>
<g id="a_edge6_Node000002_Node000006"><a xlink:title=" ">
<path fill="none" stroke="#63b8ff" d="M365.1,-34.08C356.61,-31.57 347.56,-29.18 339,-27.5 288.97,-17.67 230.57,-13.17 191.22,-11.13"/>
<polygon fill="#63b8ff" stroke="#63b8ff" points="364.14,-37.45 374.73,-37.06 366.21,-30.76 364.14,-37.45"/>
</a>
</g>
</g>
<!-- Node5 -->
<g id="Node000005" class="node">
<title>Node5</title>
<g id="a_Node000005"><a xlink:href="signals_8c.html#adde3bef4aac394c78441b059135e7343" target="_top" xlink:title="Register all signal handlers for the process.">
<polygon fill="white" stroke="#666666" points="213,-56 77,-56 77,-37 213,-37 213,-56"/>
<text text-anchor="middle" x="145" y="-44" font-family="Helvetica,sans-Serif" font-size="10.00">register_signal_handlers</text>
</a>
</g>
</g>
<!-- Node4&#45;&gt;Node5 -->
<g id="edge4_Node000004_Node000005" class="edge">
<title>Node4&#45;&gt;Node5</title>
<g id="a_edge4_Node000004_Node000005"><a xlink:title=" ">
<path fill="none" stroke="#63b8ff" d="M238.62,-46.5C230.34,-46.5 221.7,-46.5 213.18,-46.5"/>
<polygon fill="#63b8ff" stroke="#63b8ff" points="238.9,-50 248.9,-46.5 238.9,-43 238.9,-50"/>
</a>
</g>
</g>
<!-- Node5&#45;&gt;Node3 -->
<g id="edge5_Node000005_Node000003" class="edge">
<title>Node5&#45;&gt;Node3</title>
<g id="a_edge5_Node000005_Node000003"><a xlink:title=" ">
<path fill="none" stroke="#63b8ff" d="M66.41,-46.5C57.13,-46.5 48.38,-46.5 41.12,-46.5"/>
<polygon fill="#63b8ff" stroke="#63b8ff" points="66.66,-50 76.66,-46.5 66.66,-43 66.66,-50"/>
</a>
</g>
</g>
<!-- Node6&#45;&gt;Node3 -->
<g id="edge7_Node000006_Node000003" class="edge">
<title>Node6&#45;&gt;Node3</title>
<g id="a_edge7_Node000006_Node000003"><a xlink:title=" ">
<path fill="none" stroke="#63b8ff" d="M96.94,-21.71C90.23,-23.58 83.42,-25.54 77,-27.5 65.02,-31.16 51.74,-35.68 41.17,-39.4"/>
<polygon fill="#63b8ff" stroke="#63b8ff" points="97.94,-25.07 106.66,-19.05 96.09,-18.32 97.94,-25.07"/>
</a>
</g>
</g>
</g>
</svg>
