<?xml version="1.0" encoding="UTF-8" standalone="no"?>
<!DOCTYPE svg PUBLIC "-//W3C//DTD SVG 1.1//EN"
 "http://www.w3.org/Graphics/SVG/1.1/DTD/svg11.dtd">
<!-- Generated by graphviz version 2.43.0 (0)
 -->
<!-- Title: src/main.c Pages: 1 -->
<svg width="1217pt" height="192pt"
 viewBox="0.00 0.00 1217.00 192.00" xmlns="http://www.w3.org/2000/svg" xmlns:xlink="http://www.w3.org/1999/xlink">
<g id="graph0" class="graph" transform="scale(1 1) rotate(0) translate(4 188)">
<title>src/main.c</title>
<!-- Node1 -->
<g id="Node000001" class="node">
<title>Node1</title>
<g id="a_Node000001"><a xlink:title="RT&#45;THM supervisor process (parent) implementation.">
<polygon fill="#999999" stroke="#666666" points="865.5,-184 798.5,-184 798.5,-165 865.5,-165 865.5,-184"/>
<text text-anchor="middle" x="832" y="-172" font-family="Helvetica,sans-Serif" font-size="10.00">src/main.c</text>
</a>
</g>
</g>
<!-- Node2 -->
<g id="Node000002" class="node">
<title>Node2</title>
<g id="a_Node000002"><a xlink:href="project_8h.html" target="_top" xlink:title="Main header for RT&#45;THM (Real&#45;Time Task &amp; Health Monitor)">
<polygon fill="white" stroke="#666666" points="718.5,-74 659.5,-74 659.5,-55 718.5,-55 718.5,-74"/>
<text text-anchor="middle" x="689" y="-62" font-family="Helvetica,sans-Serif" font-size="10.00">project.h</text>
</a>
</g>
</g>
<!-- Node1&#45;&gt;Node2 -->
<g id="edge1_Node000001_Node000002" class="edge">
<title>Node1&#45;&gt;Node2</title>
<g id="a_edge1_Node000001_Node000002"><a xlink:title=" ">
<path fill="none" stroke="#63b8ff" d="M823.89,-164.61C811.82,-151.68 788.07,-127.32 765,-110 749.21,-98.14 730,-86.92 714.84,-78.71"/>
<polygon fill="#63b8ff" stroke="#63b8ff" points="716.47,-75.61 706,-74.01 713.19,-81.79 716.47,-75.61"/>
</a>
</g>
</g>
<!-- Node5 -->
<g id="Node000005" class="node">
<title>Node5</title>
<g id="a_Node000005"><a xlink:title=" ">
<polygon fill="#e0e0e0" stroke="#999999" points="56,-19 0,-19 0,0 56,0 56,-19"/>
<text text-anchor="middle" x="28" y="-7" font-family="Helvetica,sans-Serif" font-size="10.00">unistd.h</text>
</a>
</g>
</g>
<!-- Node1&#45;&gt;Node5 -->
<g id="edge30_Node000001_Node000005" class="edge">
<title>Node1&#45;&gt;Node5</title>
<g id="a_edge30_Node000001_Node000005"><a xlink:title=" ">
<path fill="none" stroke="#63b8ff" d="M798.23,-169.29C743.26,-162.24 631.11,-147.02 537,-129 359.71,-95.05 150.56,-42.3 66.15,-20.47"/>
<polygon fill="#63b8ff" stroke="#63b8ff" points="66.81,-17.03 56.25,-17.91 65.05,-23.8 66.81,-17.03"/>
</a>
</g>
</g>
<!-- Node10 -->
<g id="Node000010" class="node">
<title>Node10</title>
<g id="a_Node000010"><a xlink:title=" ">
<polygon fill="#e0e0e0" stroke="#999999" points="1061,-19 995,-19 995,0 1061,0 1061,-19"/>
<text text-anchor="middle" x="1028" y="-7" font-family="Helvetica,sans-Serif" font-size="10.00">sys/wait.h</text>
</a>
</g>
</g>
<!-- Node1&#45;&gt;Node10 -->
<g id="edge31_Node000001_Node000010" class="edge">
<title>Node1&#45;&gt;Node10</title>
<g id="a_edge31_Node000001_Node000010"><a xlink:title=" ">
<path fill="none" stroke="#63b8ff" d="M865.62,-164.93C887.36,-158.05 915.19,-146.59 935,-129 963.44,-103.74 953.94,-84.46 978,-55 986.87,-44.14 998.49,-33.63 1008.29,-25.56"/>
<polygon fill="#63b8ff" stroke="#63b8ff" points="1010.69,-28.12 1016.32,-19.14 1006.32,-22.65 1010.69,-28.12"/>
</a>
</g>
</g>
<!-- Node11 -->
<g id="Node000011" class="node">
<title>Node11</title>
<g id="a_Node000011"><a xlink:title=" ">
<polygon fill="#e0e0e0" stroke="#999999" points="1134.5,-19 1079.5,-19 1079.5,0 1134.5,0 1134.5,-19"/>
<text text-anchor="middle" x="1107" y="-7" font-family="Helvetica,sans-Serif" font-size="10.00">signal.h</text>
</a>
</g>
</g>
<!-- Node1&#45;&gt;Node11 -->
<g id="edge29_Node000001_Node000011" class="edge">
<title>Node1&#45;&gt;Node11</title>
<g id="a_edge29_Node000001_Node000011"><a xlink:title=" ">
<path fill="none" stroke="#63b8ff" d="M865.65,-166.68C892.01,-160.16 928.67,-148.39 956,-129 990.53,-104.5 982.87,-81.36 1016,-55 1033.07,-41.42 1054.96,-30.55 1072.99,-22.96"/>
<polygon fill="#63b8ff" stroke="#63b8ff" points="1074.61,-26.08 1082.56,-19.08 1071.98,-19.59 1074.61,-26.08"/>
</a>
</g>
</g>
<!-- Node17 -->
<g id="Node000017" class="node">
<title>Node17</title>
<g id="a_Node000017"><a xlink:title=" ">
<polygon fill="#e0e0e0" stroke="#999999" points="1209,-19 1153,-19 1153,0 1209,0 1209,-19"/>
<text text-anchor="middle" x="1181" y="-7" font-family="Helvetica,sans-Serif" font-size="10.00">stdarg.h</text>
</a>
</g>
</g>
<!-- Node1&#45;&gt;Node17 -->
<g id="edge32_Node000001_Node000017" class="edge">
<title>Node1&#45;&gt;Node17</title>
<g id="a_edge32_Node000001_Node000017"><a xlink:title=" ">
<path fill="none" stroke="#63b8ff" d="M865.79,-165.7C896.12,-158.13 941.5,-145.4 979,-129 1048.76,-98.49 1124.55,-49.21 1160.22,-24.94"/>
<polygon fill="#63b8ff" stroke="#63b8ff" points="1162.52,-27.61 1168.79,-19.07 1158.56,-21.84 1162.52,-27.61"/>
</a>
</g>
</g>
<!-- Node19 -->
<g id="Node000019" class="node">
<title>Node19</title>
<g id="a_Node000019"><a xlink:href="ipc_8h.html" target="_top" xlink:title="IPC utilities for RT&#45;THM (Shared Memory &amp; Semaphores)">
<polygon fill="white" stroke="#666666" points="852,-129 812,-129 812,-110 852,-110 852,-129"/>
<text text-anchor="middle" x="832" y="-117" font-family="Helvetica,sans-Serif" font-size="10.00">ipc.h</text>
</a>
</g>
</g>
<!-- Node1&#45;&gt;Node19 -->
<g id="edge18_Node000001_Node000019" class="edge">
<title>Node1&#45;&gt;Node19</title>
<g id="a_edge18_Node000001_Node000019"><a xlink:title=" ">
<path fill="none" stroke="#63b8ff" d="M832,-164.75C832,-157.8 832,-147.85 832,-139.13"/>
<polygon fill="#63b8ff" stroke="#63b8ff" points="835.5,-139.09 832,-129.09 828.5,-139.09 835.5,-139.09"/>
</a>
</g>
</g>
<!-- Node20 -->
<g id="Node000020" class="node">
<title>Node20</title>
<g id="a_Node000020"><a xlink:href="logger_8h.html" target="_top" xlink:title="Logging system for RT&#45;THM with microsecond precision.">
<polygon fill="white" stroke="#666666" points="926,-129 870,-129 870,-110 926,-110 926,-129"/>
<text text-anchor="middle" x="898" y="-117" font-family="Helvetica,sans-Serif" font-size="10.00">logger.h</text>
</a>
</g>
</g>
<!-- Node1&#45;&gt;Node20 -->
<g id="edge20_Node000001_Node000020" class="edge">
<title>Node1&#45;&gt;Node20</title>
<g id="a_edge20_Node000001_Node000020"><a xlink:title=" ">
<path fill="none" stroke="#63b8ff" d="M842.6,-164.98C852.46,-157.07 867.35,-145.11 879.22,-135.58"/>
<polygon fill="#63b8ff" stroke="#63b8ff" points="881.6,-138.16 887.2,-129.17 877.21,-132.7 881.6,-138.16"/>
</a>
</g>
</g>
<!-- Node21 -->
<g id="Node000021" class="node">
<title>Node21</title>
<g id="a_Node000021"><a xlink:href="config_8h.html" target="_top" xlink:title="Configuration parser for RT&#45;THM.">
<polygon fill="white" stroke="#666666" points="601.5,-129 546.5,-129 546.5,-110 601.5,-110 601.5,-129"/>
<text text-anchor="middle" x="574" y="-117" font-family="Helvetica,sans-Serif" font-size="10.00">config.h</text>
</a>
</g>
</g>
<!-- Node1&#45;&gt;Node21 -->
<g id="edge22_Node000001_Node000021" class="edge">
<title>Node1&#45;&gt;Node21</title>
<g id="a_edge22_Node000001_Node000021"><a xlink:title=" ">
<path fill="none" stroke="#63b8ff" d="M798.24,-167C756.8,-158.95 684.1,-144.63 612.02,-129.17"/>
<polygon fill="#63b8ff" stroke="#63b8ff" points="612.37,-125.67 601.86,-126.99 610.9,-132.51 612.37,-125.67"/>
</a>
</g>
</g>
<!-- Node22 -->
<g id="Node000022" class="node">
<title>Node22</title>
<g id="a_Node000022"><a xlink:href="signals_8h.html" target="_top" xlink:title="Signal handling for RT&#45;THM (SIGINT, SIGUSR1, SIGUSR2)">
<polygon fill="white" stroke="#666666" points="680,-129 620,-129 620,-110 680,-110 680,-129"/>
<text text-anchor="middle" x="650" y="-117" font-family="Helvetica,sans-Serif" font-size="10.00">signals.h</text>
</a>
</g>
</g>
<!-- Node1&#45;&gt;Node22 -->
<g id="edge24_Node000001_Node000022" class="edge">
<title>Node1&#45;&gt;Node22</title>
<g id="a_edge24_Node000001_Node000022"><a xlink:title=" ">
<path fill="none" stroke="#63b8ff" d="M802.76,-164.98C771.94,-156.01 723.22,-141.82 689.11,-131.89"/>
<polygon fill="#63b8ff" stroke="#63b8ff" points="690.05,-128.52 679.47,-129.08 688.09,-135.24 690.05,-128.52"/>
</a>
</g>
</g>
<!-- Node23 -->
<g id="Node000023" class="node">
<title>Node23</title>
<g id="a_Node000023"><a xlink:href="worker_8h.html" target="_top" xlink:title="Worker process module for RT&#45;THM.">
<polygon fill="white" stroke="#666666" points="756,-129 698,-129 698,-110 756,-110 756,-129"/>
<text text-anchor="middle" x="727" y="-117" font-family="Helvetica,sans-Serif" font-size="10.00">worker.h</text>
</a>
</g>
</g>
<!-- Node1&#45;&gt;Node23 -->
<g id="edge26_Node000001_Node000023" class="edge">
<title>Node1&#45;&gt;Node23</title>
<g id="a_edge26_Node000001_Node000023"><a xlink:title=" ">
<path fill="none" stroke="#63b8ff" d="M815.13,-164.98C798.39,-156.54 772.5,-143.47 753.11,-133.68"/>
<polygon fill="#63b8ff" stroke="#63b8ff" points="754.68,-130.55 744.18,-129.17 751.53,-136.8 754.68,-130.55"/>
</a>
</g>
</g>
<!-- Node24 -->
<g id="Node000024" class="node">
<title>Node24</title>
<g id="a_Node000024"><a xlink:title=" ">
<polygon fill="#e0e0e0" stroke="#999999" points="1093.5,-129 1058.5,-129 1058.5,-110 1093.5,-110 1093.5,-129"/>
<text text-anchor="middle" x="1076" y="-117" font-family="Helvetica,sans-Serif" font-size="10.00">ui.h</text>
</a>
</g>
</g>
<!-- Node1&#45;&gt;Node24 -->
<g id="edge28_Node000001_Node000024" class="edge">
<title>Node1&#45;&gt;Node24</title>
<g id="a_edge28_Node000001_Node000024"><a xlink:title=" ">
<path fill="none" stroke="#63b8ff" d="M865.53,-167.03C907.43,-158.81 981.25,-143.91 1044,-129 1045.47,-128.65 1046.97,-128.28 1048.49,-127.91"/>
<polygon fill="#63b8ff" stroke="#63b8ff" points="1049.63,-131.23 1058.44,-125.34 1047.88,-124.45 1049.63,-131.23"/>
</a>
</g>
</g>
<!-- Node3 -->
<g id="Node000003" class="node">
<title>Node3</title>
<g id="a_Node000003"><a xlink:title=" ">
<polygon fill="#e0e0e0" stroke="#999999" points="124,-19 74,-19 74,0 124,0 124,-19"/>
<text text-anchor="middle" x="99" y="-7" font-family="Helvetica,sans-Serif" font-size="10.00">stdio.h</text>
</a>
</g>
</g>
<!-- Node2&#45;&gt;Node3 -->
<g id="edge2_Node000002_Node000003" class="edge">
<title>Node2&#45;&gt;Node3</title>
<g id="a_edge2_Node000002_Node000003"><a xlink:title=" ">
<path fill="none" stroke="#63b8ff" d="M659.26,-62.84C577.1,-60.67 340.05,-51.94 134.24,-18.92"/>
<polygon fill="#63b8ff" stroke="#63b8ff" points="134.59,-15.43 124.15,-17.28 133.46,-22.34 134.59,-15.43"/>
</a>
</g>
</g>
<!-- Node4 -->
<g id="Node000004" class="node">
<title>Node4</title>
<g id="a_Node000004"><a xlink:title=" ">
<polygon fill="#e0e0e0" stroke="#999999" points="195.5,-19 142.5,-19 142.5,0 195.5,0 195.5,-19"/>
<text text-anchor="middle" x="169" y="-7" font-family="Helvetica,sans-Serif" font-size="10.00">stdlib.h</text>
</a>
</g>
</g>
<!-- Node2&#45;&gt;Node4 -->
<g id="edge3_Node000002_Node000004" class="edge">
<title>Node2&#45;&gt;Node4</title>
<g id="a_edge3_Node000002_Node000004"><a xlink:title=" ">
<path fill="none" stroke="#63b8ff" d="M659.35,-62.22C584.8,-58.7 383.39,-47.3 205.7,-18.86"/>
<polygon fill="#63b8ff" stroke="#63b8ff" points="206.08,-15.38 195.65,-17.23 204.96,-22.29 206.08,-15.38"/>
</a>
</g>
</g>
<!-- Node2&#45;&gt;Node5 -->
<g id="edge4_Node000002_Node000005" class="edge">
<title>Node2&#45;&gt;Node5</title>
<g id="a_edge4_Node000002_Node000005"><a xlink:title=" ">
<path fill="none" stroke="#63b8ff" d="M659.26,-63.01C570.52,-61.2 299.73,-53.18 66.23,-18.94"/>
<polygon fill="#63b8ff" stroke="#63b8ff" points="66.6,-15.46 56.2,-17.45 65.57,-22.38 66.6,-15.46"/>
</a>
</g>
</g>
<!-- Node6 -->
<g id="Node000006" class="node">
<title>Node6</title>
<g id="a_Node000006"><a xlink:title=" ">
<polygon fill="#e0e0e0" stroke="#999999" points="286,-19 214,-19 214,0 286,0 286,-19"/>
<text text-anchor="middle" x="250" y="-7" font-family="Helvetica,sans-Serif" font-size="10.00">sys/types.h</text>
</a>
</g>
</g>
<!-- Node2&#45;&gt;Node6 -->
<g id="edge5_Node000002_Node000006" class="edge">
<title>Node2&#45;&gt;Node6</title>
<g id="a_edge5_Node000002_Node000006"><a xlink:title=" ">
<path fill="none" stroke="#63b8ff" d="M659.25,-60.9C594.94,-55.12 438.04,-40.14 296.47,-19.12"/>
<polygon fill="#63b8ff" stroke="#63b8ff" points="296.72,-15.62 286.31,-17.6 295.68,-22.54 296.72,-15.62"/>
</a>
</g>
</g>
<!-- Node7 -->
<g id="Node000007" class="node">
<title>Node7</title>
<g id="a_Node000007"><a xlink:title=" ">
<polygon fill="#e0e0e0" stroke="#999999" points="363.5,-19 304.5,-19 304.5,0 363.5,0 363.5,-19"/>
<text text-anchor="middle" x="334" y="-7" font-family="Helvetica,sans-Serif" font-size="10.00">sys/ipc.h</text>
</a>
</g>
</g>
<!-- Node2&#45;&gt;Node7 -->
<g id="edge6_Node000002_Node000007" class="edge">
<title>Node2&#45;&gt;Node7</title>
<g id="a_edge6_Node000002_Node000007"><a xlink:title=" ">
<path fill="none" stroke="#63b8ff" d="M659.26,-60.06C604.75,-53.6 484.99,-38.67 373.81,-19.02"/>
<polygon fill="#63b8ff" stroke="#63b8ff" points="374.22,-15.54 363.76,-17.23 372.99,-22.43 374.22,-15.54"/>
</a>
</g>
</g>
<!-- Node8 -->
<g id="Node000008" class="node">
<title>Node8</title>
<g id="a_Node000008"><a xlink:title=" ">
<polygon fill="#e0e0e0" stroke="#999999" points="448,-19 382,-19 382,0 448,0 448,-19"/>
<text text-anchor="middle" x="415" y="-7" font-family="Helvetica,sans-Serif" font-size="10.00">sys/shm.h</text>
</a>
</g>
</g>
<!-- Node2&#45;&gt;Node8 -->
<g id="edge7_Node000002_Node000008" class="edge">
<title>Node2&#45;&gt;Node8</title>
<g id="a_edge7_Node000002_Node000008"><a xlink:title=" ">
<path fill="none" stroke="#63b8ff" d="M659.32,-57.91C616.99,-49.91 536.58,-34.63 458.07,-19.19"/>
<polygon fill="#63b8ff" stroke="#63b8ff" points="458.5,-15.71 448.01,-17.21 457.14,-22.58 458.5,-15.71"/>
</a>
</g>
</g>
<!-- Node9 -->
<g id="Node000009" class="node">
<title>Node9</title>
<g id="a_Node000009"><a xlink:title=" ">
<polygon fill="#e0e0e0" stroke="#999999" points="532,-19 466,-19 466,0 532,0 532,-19"/>
<text text-anchor="middle" x="499" y="-7" font-family="Helvetica,sans-Serif" font-size="10.00">sys/sem.h</text>
</a>
</g>
</g>
<!-- Node2&#45;&gt;Node9 -->
<g id="edge8_Node000002_Node000009" class="edge">
<title>Node2&#45;&gt;Node9</title>
<g id="a_edge8_Node000002_Node000009"><a xlink:title=" ">
<path fill="none" stroke="#63b8ff" d="M659.31,-55.22C627.07,-46.22 575.36,-31.8 539.43,-21.78"/>
<polygon fill="#63b8ff" stroke="#63b8ff" points="540.31,-18.39 529.74,-19.07 538.43,-25.13 540.31,-18.39"/>
</a>
</g>
</g>
<!-- Node2&#45;&gt;Node10 -->
<g id="edge9_Node000002_Node000010" class="edge">
<title>Node2&#45;&gt;Node10</title>
<g id="a_edge9_Node000002_Node000010"><a xlink:title=" ">
<path fill="none" stroke="#63b8ff" d="M718.59,-59.58C770.42,-52.59 881.23,-37.17 984.58,-19.18"/>
<polygon fill="#63b8ff" stroke="#63b8ff" points="985.31,-22.6 994.56,-17.43 984.1,-15.71 985.31,-22.6"/>
</a>
</g>
</g>
<!-- Node2&#45;&gt;Node11 -->
<g id="edge10_Node000002_Node000011" class="edge">
<title>Node2&#45;&gt;Node11</title>
<g id="a_edge10_Node000002_Node000011"><a xlink:title=" ">
<path fill="none" stroke="#63b8ff" d="M718.8,-61.14C781.63,-55.92 932.46,-42.14 1068.97,-18.99"/>
<polygon fill="#63b8ff" stroke="#63b8ff" points="1069.92,-22.38 1079.19,-17.23 1068.74,-15.48 1069.92,-22.38"/>
</a>
</g>
</g>
<!-- Node12 -->
<g id="Node000012" class="node">
<title>Node12</title>
<g id="a_Node000012"><a xlink:title=" ">
<polygon fill="#e0e0e0" stroke="#999999" points="598,-19 550,-19 550,0 598,0 598,-19"/>
<text text-anchor="middle" x="574" y="-7" font-family="Helvetica,sans-Serif" font-size="10.00">time.h</text>
</a>
</g>
</g>
<!-- Node2&#45;&gt;Node12 -->
<g id="edge11_Node000002_Node000012" class="edge">
<title>Node2&#45;&gt;Node12</title>
<g id="a_edge11_Node000002_Node000012"><a xlink:title=" ">
<path fill="none" stroke="#63b8ff" d="M670.52,-54.98C652.02,-46.46 623.32,-33.23 602.02,-23.41"/>
<polygon fill="#63b8ff" stroke="#63b8ff" points="603.36,-20.18 592.81,-19.17 600.43,-26.53 603.36,-20.18"/>
</a>
</g>
</g>
<!-- Node13 -->
<g id="Node000013" class="node">
<title>Node13</title>
<g id="a_Node000013"><a xlink:title=" ">
<polygon fill="#e0e0e0" stroke="#999999" points="684,-19 616,-19 616,0 684,0 684,-19"/>
<text text-anchor="middle" x="650" y="-7" font-family="Helvetica,sans-Serif" font-size="10.00">sys/time.h</text>
</a>
</g>
</g>
<!-- Node2&#45;&gt;Node13 -->
<g id="edge12_Node000002_Node000013" class="edge">
<title>Node2&#45;&gt;Node13</title>
<g id="a_edge12_Node000002_Node000013"><a xlink:title=" ">
<path fill="none" stroke="#63b8ff" d="M682.56,-54.75C677.11,-47.34 669.14,-36.5 662.44,-27.41"/>
<polygon fill="#63b8ff" stroke="#63b8ff" points="665.07,-25.07 656.32,-19.09 659.43,-29.22 665.07,-25.07"/>
</a>
</g>
</g>
<!-- Node14 -->
<g id="Node000014" class="node">
<title>Node14</title>
<g id="a_Node000014"><a xlink:title=" ">
<polygon fill="#e0e0e0" stroke="#999999" points="753.5,-19 702.5,-19 702.5,0 753.5,0 753.5,-19"/>
<text text-anchor="middle" x="728" y="-7" font-family="Helvetica,sans-Serif" font-size="10.00">errno.h</text>
</a>
</g>
</g>
<!-- Node2&#45;&gt;Node14 -->
<g id="edge13_Node000002_Node000014" class="edge">
<title>Node2&#45;&gt;Node14</title>
<g id="a_edge13_Node000002_Node000014"><a xlink:title=" ">
<path fill="none" stroke="#63b8ff" d="M695.44,-54.75C700.89,-47.34 708.86,-36.5 715.56,-27.41"/>
<polygon fill="#63b8ff" stroke="#63b8ff" points="718.57,-29.22 721.68,-19.09 712.93,-25.07 718.57,-29.22"/>
</a>
</g>
</g>
<!-- Node15 -->
<g id="Node000015" class="node">
<title>Node15</title>
<g id="a_Node000015"><a xlink:title=" ">
<polygon fill="#e0e0e0" stroke="#999999" points="824.5,-19 771.5,-19 771.5,0 824.5,0 824.5,-19"/>
<text text-anchor="middle" x="798" y="-7" font-family="Helvetica,sans-Serif" font-size="10.00">string.h</text>
</a>
</g>
</g>
<!-- Node2&#45;&gt;Node15 -->
<g id="edge14_Node000002_Node000015" class="edge">
<title>Node2&#45;&gt;Node15</title>
<g id="a_edge14_Node000002_Node000015"><a xlink:title=" ">
<path fill="none" stroke="#63b8ff" d="M706.51,-54.98C723.97,-46.5 751.01,-33.35 771.17,-23.54"/>
<polygon fill="#63b8ff" stroke="#63b8ff" points="772.71,-26.69 780.17,-19.17 769.64,-20.4 772.71,-26.69"/>
</a>
</g>
</g>
<!-- Node16 -->
<g id="Node000016" class="node">
<title>Node16</title>
<g id="a_Node000016"><a xlink:title=" ">
<polygon fill="#e0e0e0" stroke="#999999" points="895.5,-19 842.5,-19 842.5,0 895.5,0 895.5,-19"/>
<text text-anchor="middle" x="869" y="-7" font-family="Helvetica,sans-Serif" font-size="10.00">ctype.h</text>
</a>
</g>
</g>
<!-- Node2&#45;&gt;Node16 -->
<g id="edge15_Node000002_Node000016" class="edge">
<title>Node2&#45;&gt;Node16</title>
<g id="a_edge15_Node000002_Node000016"><a xlink:title=" ">
<path fill="none" stroke="#63b8ff" d="M717.92,-54.98C749.08,-45.81 798.74,-31.19 832.55,-21.23"/>
<polygon fill="#63b8ff" stroke="#63b8ff" points="833.89,-24.49 842.5,-18.3 831.92,-17.77 833.89,-24.49"/>
</a>
</g>
</g>
<!-- Node2&#45;&gt;Node17 -->
<g id="edge16_Node000002_Node000017" class="edge">
<title>Node2&#45;&gt;Node17</title>
<g id="a_edge16_Node000002_Node000017"><a xlink:title=" ">
<path fill="none" stroke="#63b8ff" d="M718.71,-61.92C790.15,-57.83 977.28,-45.46 1142.92,-18.97"/>
<polygon fill="#63b8ff" stroke="#63b8ff" points="1143.48,-22.43 1152.79,-17.37 1142.36,-15.52 1143.48,-22.43"/>
</a>
</g>
</g>
<!-- Node18 -->
<g id="Node000018" class="node">
<title>Node18</title>
<g id="a_Node000018"><a xlink:title=" ">
<polygon fill="#e0e0e0" stroke="#999999" points="976.5,-19 913.5,-19 913.5,0 976.5,0 976.5,-19"/>
<text text-anchor="middle" x="945" y="-7" font-family="Helvetica,sans-Serif" font-size="10.00">ncurses.h</text>
</a>
</g>
</g>
<!-- Node2&#45;&gt;Node18 -->
<g id="edge17_Node000002_Node000018" class="edge">
<title>Node2&#45;&gt;Node18</title>
<g id="a_edge17_Node000002_Node000018"><a xlink:title=" ">
<path fill="none" stroke="#63b8ff" d="M718.71,-57.44C758.49,-49.31 831.54,-34.34 903.05,-19.4"/>
<polygon fill="#63b8ff" stroke="#63b8ff" points="904.06,-22.76 913.13,-17.29 902.62,-15.91 904.06,-22.76"/>
</a>
</g>
</g>
<!-- Node19&#45;&gt;Node2 -->
<g id="edge19_Node000019_Node000002" class="edge">
<title>Node19&#45;&gt;Node2</title>
<g id="a_edge19_Node000019_Node000002"><a xlink:title=" ">
<path fill="none" stroke="#63b8ff" d="M811.81,-111.02C788.5,-102.38 749.81,-88.04 722.08,-77.76"/>
<polygon fill="#63b8ff" stroke="#63b8ff" points="723,-74.37 712.41,-74.17 720.57,-80.93 723,-74.37"/>
</a>
</g>
</g>
<!-- Node20&#45;&gt;Node2 -->
<g id="edge21_Node000020_Node000002" class="edge">
<title>Node20&#45;&gt;Node2</title>
<g id="a_edge21_Node000020_Node000002"><a xlink:title=" ">
<path fill="none" stroke="#63b8ff" d="M869.81,-111.35C833.37,-102.11 769.72,-85.97 728.48,-75.51"/>
<polygon fill="#63b8ff" stroke="#63b8ff" points="729.31,-72.11 718.76,-73.05 727.59,-78.9 729.31,-72.11"/>
</a>
</g>
</g>
<!-- Node21&#45;&gt;Node2 -->
<g id="edge23_Node000021_Node000002" class="edge">
<title>Node21&#45;&gt;Node2</title>
<g id="a_edge23_Node000021_Node000002"><a xlink:title=" ">
<path fill="none" stroke="#63b8ff" d="M592.48,-109.98C610.98,-101.46 639.68,-88.23 660.98,-78.41"/>
<polygon fill="#63b8ff" stroke="#63b8ff" points="662.57,-81.53 670.19,-74.17 659.64,-75.18 662.57,-81.53"/>
</a>
</g>
</g>
<!-- Node22&#45;&gt;Node2 -->
<g id="edge25_Node000022_Node000002" class="edge">
<title>Node22&#45;&gt;Node2</title>
<g id="a_edge25_Node000022_Node000002"><a xlink:title=" ">
<path fill="none" stroke="#63b8ff" d="M656.44,-109.75C661.89,-102.34 669.86,-91.5 676.56,-82.41"/>
<polygon fill="#63b8ff" stroke="#63b8ff" points="679.57,-84.22 682.68,-74.09 673.93,-80.07 679.57,-84.22"/>
</a>
</g>
</g>
<!-- Node23&#45;&gt;Node2 -->
<g id="edge27_Node000023_Node000002" class="edge">
<title>Node23&#45;&gt;Node2</title>
<g id="a_edge27_Node000023_Node000002"><a xlink:title=" ">
<path fill="none" stroke="#63b8ff" d="M720.73,-109.75C715.41,-102.34 707.64,-91.5 701.12,-82.41"/>
<polygon fill="#63b8ff" stroke="#63b8ff" points="703.83,-80.18 695.16,-74.09 698.14,-84.26 703.83,-80.18"/>
</a>
</g>
</g>
</g>
</svg>
