<?xml version="1.0" encoding="UTF-8" standalone="no"?>
<!DOCTYPE svg PUBLIC "-//W3C//DTD SVG 1.1//EN"
 "http://www.w3.org/Graphics/SVG/1.1/DTD/svg11.dtd">
<!-- Generated by graphviz version 2.43.0 (0)
 -->
<!-- Title: main Pages: 1 -->
<svg width="812pt" height="885pt"
 viewBox="0.00 0.00 812.00 885.28" xmlns="http://www.w3.org/2000/svg" xmlns:xlink="http://www.w3.org/1999/xlink">
<g id="graph0" class="graph" transform="scale(1 1) rotate(0) translate(4 881.28)">
<title>main</title>
<!-- Node1 -->
<g id="Node000001" class="node">
<title>Node1</title>
<g id="a_Node000001"><a xlink:title="Main entry point for RT&#45;THM supervisor.">
<polygon fill="#999999" stroke="#666666" points="41,-415 0,-415 0,-396 41,-396 41,-415"/>
<text text-anchor="middle" x="20.5" y="-403" font-family="Helvetica,sans-Serif" font-size="10.00">main</text>
</a>
</g>
</g>
<!-- Node2 -->
<g id="Node000002" class="node">
<title>Node2</title>
<g id="a_Node000002"><a xlink:href="ipc__utils_8c.html#ab1210bbe865327d0657417f58a0a32db" target="_top" xlink:title="Attach shared memory to process address space.">
<polygon fill="white" stroke="#666666" points="345,-697 213,-697 213,-678 345,-678 345,-697"/>
<text text-anchor="middle" x="279" y="-685" font-family="Helvetica,sans-Serif" font-size="10.00">attach_shared_memory</text>
</a>
</g>
</g>
<!-- Node1&#45;&gt;Node2 -->
<g id="edge1_Node000001_Node000002" class="edge">
<title>Node1&#45;&gt;Node2</title>
<g id="a_edge1_Node000001_Node000002"><a xlink:title=" ">
<path fill="none" stroke="#63b8ff" d="M22.13,-415.25C25.09,-458.09 39.15,-629.02 77,-663.5 112.48,-695.82 167.29,-700.49 210.73,-697.81"/>
<polygon fill="#63b8ff" stroke="#63b8ff" points="211.23,-701.28 220.94,-697.03 210.7,-694.3 211.23,-701.28"/>
</a>
</g>
</g>
<!-- Node3 -->
<g id="Node000003" class="node">
<title>Node3</title>
<g id="a_Node000003"><a xlink:href="logger_8c.html#a5453dcbc4c790a4aea0e136877073d4d" target="_top" xlink:title="Write formatted log event to file with microsecond timestamp.">
<polygon fill="white" stroke="#666666" points="797.5,-545 732.5,-545 732.5,-526 797.5,-526 797.5,-545"/>
<text text-anchor="middle" x="765" y="-533" font-family="Helvetica,sans-Serif" font-size="10.00">log_event</text>
</a>
</g>
</g>
<!-- Node1&#45;&gt;Node3 -->
<g id="edge26_Node000001_Node000003" class="edge">
<title>Node1&#45;&gt;Node3</title>
<g id="a_edge26_Node000001_Node000003"><a xlink:title=" ">
<path fill="none" stroke="#63b8ff" d="M21.9,-415.16C24,-460.95 35.3,-655.48 77,-695.5 142.16,-758.05 187.68,-725.5 278,-725.5 278,-725.5 278,-725.5 450,-725.5 557.5,-725.5 603.2,-758.92 690,-695.5 736.85,-661.27 754.89,-590 761.1,-555.32"/>
<polygon fill="#63b8ff" stroke="#63b8ff" points="764.62,-555.5 762.78,-545.06 757.71,-554.37 764.62,-555.5"/>
</a>
</g>
</g>
<!-- Node4 -->
<g id="Node000004" class="node">
<title>Node4</title>
<g id="a_Node000004"><a xlink:href="main_8c.html#a1594c6785b808f6766d6f6a82852bf61" target="_top" xlink:title="Check for worker timeouts and send pause/resume signals.">
<polygon fill="white" stroke="#666666" points="515,-659 383,-659 383,-640 515,-640 515,-659"/>
<text text-anchor="middle" x="449" y="-647" font-family="Helvetica,sans-Serif" font-size="10.00">check_worker_timeouts</text>
</a>
</g>
</g>
<!-- Node1&#45;&gt;Node4 -->
<g id="edge3_Node000001_Node000004" class="edge">
<title>Node1&#45;&gt;Node4</title>
<g id="a_edge3_Node000001_Node000004"><a xlink:title=" ">
<path fill="none" stroke="#63b8ff" d="M22.45,-415.15C26.49,-453.93 43.54,-597.65 77,-625.5 120.32,-661.55 277.18,-659.59 372.52,-654.69"/>
<polygon fill="#63b8ff" stroke="#63b8ff" points="372.89,-658.18 382.69,-654.15 372.52,-651.19 372.89,-658.18"/>
</a>
</g>
</g>
<!-- Node5 -->
<g id="Node000005" class="node">
<title>Node5</title>
<g id="a_Node000005"><a xlink:href="ipc__utils_8c.html#a10e9222ec21173d9cec5e4a2abc7454b" target="_top" xlink:title="Release semaphore lock (V operation)">
<polygon fill="white" stroke="#666666" points="665,-545 576,-545 576,-526 665,-526 665,-545"/>
<text text-anchor="middle" x="620.5" y="-533" font-family="Helvetica,sans-Serif" font-size="10.00">sem_signal_op</text>
</a>
</g>
</g>
<!-- Node1&#45;&gt;Node5 -->
<g id="edge34_Node000001_Node000005" class="edge">
<title>Node1&#45;&gt;Node5</title>
<g id="a_edge34_Node000001_Node000005"><a xlink:title=" ">
<path fill="none" stroke="#63b8ff" d="M24.45,-415.21C30.8,-434.46 47.64,-477.59 77,-500.5 125.9,-538.66 150,-528.26 211,-539.5 344.02,-564.01 380.24,-565.02 515,-553.5 531.71,-552.07 549.76,-549.38 566.08,-546.51"/>
<polygon fill="#63b8ff" stroke="#63b8ff" points="566.78,-549.94 575.99,-544.7 565.52,-543.05 566.78,-549.94"/>
</a>
</g>
</g>
<!-- Node6 -->
<g id="Node000006" class="node">
<title>Node6</title>
<g id="a_Node000006"><a xlink:href="ipc__utils_8c.html#a5d0cc554e478b3289951da79d95b8594" target="_top" xlink:title="Acquire semaphore lock (P operation)">
<polygon fill="white" stroke="#666666" points="661,-508 580,-508 580,-489 661,-489 661,-508"/>
<text text-anchor="middle" x="620.5" y="-496" font-family="Helvetica,sans-Serif" font-size="10.00">sem_wait_op</text>
</a>
</g>
</g>
<!-- Node1&#45;&gt;Node6 -->
<g id="edge35_Node000001_Node000006" class="edge">
<title>Node1&#45;&gt;Node6</title>
<g id="a_edge35_Node000001_Node000006"><a xlink:title=" ">
<path fill="none" stroke="#63b8ff" d="M41.04,-403.29C121.81,-394.49 429.38,-364.35 515,-405.5 538.08,-416.6 532.32,-432.97 551,-450.5 564.16,-462.85 580.7,-474.53 594.22,-483.27"/>
<polygon fill="#63b8ff" stroke="#63b8ff" points="592.7,-486.45 603.02,-488.83 596.44,-480.53 592.7,-486.45"/>
</a>
</g>
</g>
<!-- Node8 -->
<g id="Node000008" class="node">
<title>Node8</title>
<g id="a_Node000008"><a xlink:href="UI_8c.html#a10c714946805ecbf63e0fa546403bc47" target="_top" xlink:title="Add formatted log message to UI console buffer.">
<polygon fill="white" stroke="#666666" points="655,-584 586,-584 586,-565 655,-565 655,-584"/>
<text text-anchor="middle" x="620.5" y="-572" font-family="Helvetica,sans-Serif" font-size="10.00">ui_add_log</text>
</a>
</g>
</g>
<!-- Node1&#45;&gt;Node8 -->
<g id="edge36_Node000001_Node000008" class="edge">
<title>Node1&#45;&gt;Node8</title>
<g id="a_edge36_Node000001_Node000008"><a xlink:title=" ">
<path fill="none" stroke="#63b8ff" d="M22.8,-415.12C26.54,-438.8 39.55,-500.27 77,-531.5 223.08,-653.34 474.94,-610.13 575.84,-586.12"/>
<polygon fill="#63b8ff" stroke="#63b8ff" points="576.8,-589.49 585.69,-583.72 575.14,-582.69 576.8,-589.49"/>
</a>
</g>
</g>
<!-- Node9 -->
<g id="Node000009" class="node">
<title>Node9</title>
<g id="a_Node000009"><a xlink:href="signals_8c.html#aa79b2985b495e6db8bf7675d0a32c3c5" target="_top" xlink:title="Cleanup handler for graceful system shutdown.">
<polygon fill="white" stroke="#666666" points="648,-206 593,-206 593,-187 648,-187 648,-206"/>
<text text-anchor="middle" x="620.5" y="-194" font-family="Helvetica,sans-Serif" font-size="10.00">cleanup</text>
</a>
</g>
</g>
<!-- Node1&#45;&gt;Node9 -->
<g id="edge12_Node000001_Node000009" class="edge">
<title>Node1&#45;&gt;Node9</title>
<g id="a_edge12_Node000001_Node000009"><a xlink:title=" ">
<path fill="none" stroke="#63b8ff" d="M22.49,-395.86C26.67,-357.1 44.19,-213.38 77,-184.5 150.07,-120.18 418.32,-166.17 515,-177.5 537.61,-180.15 562.72,-184.66 582.66,-188.63"/>
<polygon fill="#63b8ff" stroke="#63b8ff" points="582.08,-192.08 592.58,-190.64 583.47,-185.22 582.08,-192.08"/>
</a>
</g>
</g>
<!-- Node11 -->
<g id="Node000011" class="node">
<title>Node11</title>
<g id="a_Node000011"><a xlink:href="ipc__utils_8c.html#a7519aa078998d162b3a8d9847d507242" target="_top" xlink:title="Create and initialize binary semaphore.">
<polygon fill="white" stroke="#666666" points="332.5,-320 225.5,-320 225.5,-301 332.5,-301 332.5,-320"/>
<text text-anchor="middle" x="279" y="-308" font-family="Helvetica,sans-Serif" font-size="10.00">create_semaphore</text>
</a>
</g>
</g>
<!-- Node1&#45;&gt;Node11 -->
<g id="edge15_Node000001_Node000011" class="edge">
<title>Node1&#45;&gt;Node11</title>
<g id="a_edge15_Node000001_Node000011"><a xlink:title=" ">
<path fill="none" stroke="#63b8ff" d="M25.87,-395.94C33.65,-380.13 51.51,-348.86 77,-334.5 119.01,-310.83 173.71,-305.64 215.45,-305.92"/>
<polygon fill="#63b8ff" stroke="#63b8ff" points="215.43,-309.42 225.49,-306.09 215.55,-302.42 215.43,-309.42"/>
</a>
</g>
</g>
<!-- Node12 -->
<g id="Node000012" class="node">
<title>Node12</title>
<g id="a_Node000012"><a xlink:href="ipc__utils_8c.html#a0831e5dc4c665cd91d0e48ad09525386" target="_top" xlink:title="Create shared memory segment for worker stats.">
<polygon fill="white" stroke="#666666" points="345,-282 213,-282 213,-263 345,-263 345,-282"/>
<text text-anchor="middle" x="279" y="-270" font-family="Helvetica,sans-Serif" font-size="10.00">create_shared_memory</text>
</a>
</g>
</g>
<!-- Node1&#45;&gt;Node12 -->
<g id="edge17_Node000001_Node000012" class="edge">
<title>Node1&#45;&gt;Node12</title>
<g id="a_edge17_Node000001_Node000012"><a xlink:title=" ">
<path fill="none" stroke="#63b8ff" d="M23.77,-395.81C29.12,-375.25 44.6,-327.3 77,-304.5 113.23,-279.01 162.19,-270.81 202.71,-269.08"/>
<polygon fill="#63b8ff" stroke="#63b8ff" points="202.93,-272.58 212.82,-268.77 202.72,-265.58 202.93,-272.58"/>
</a>
</g>
</g>
<!-- Node13 -->
<g id="Node000013" class="node">
<title>Node13</title>
<g id="a_Node000013"><a xlink:href="ipc__utils_8c.html#a24e2892a5d99a5ede87d81706193766b" target="_top" xlink:title="Detach shared memory from process address space.">
<polygon fill="white" stroke="#666666" points="346,-197 212,-197 212,-178 346,-178 346,-197"/>
<text text-anchor="middle" x="279" y="-185" font-family="Helvetica,sans-Serif" font-size="10.00">detach_shared_memory</text>
</a>
</g>
</g>
<!-- Node1&#45;&gt;Node13 -->
<g id="edge19_Node000001_Node000013" class="edge">
<title>Node1&#45;&gt;Node13</title>
<g id="a_edge19_Node000001_Node000013"><a xlink:title=" ">
<path fill="none" stroke="#63b8ff" d="M21.36,-395.66C21.51,-365.61 26.31,-274.24 77,-228.5 110.47,-198.3 159.97,-187.94 201.47,-185.19"/>
<polygon fill="#63b8ff" stroke="#63b8ff" points="201.76,-188.68 211.56,-184.65 201.39,-181.69 201.76,-188.68"/>
</a>
</g>
</g>
<!-- Node14 -->
<g id="Node000014" class="node">
<title>Node14</title>
<g id="a_Node000014"><a xlink:href="ipc__utils_8c.html#a36bb24831bec33a68c2991a1225c74f1" target="_top" xlink:title="Initialize a worker&#39;s stats entry in shared memory.">
<polygon fill="white" stroke="#666666" points="499,-545 399,-545 399,-526 499,-526 499,-545"/>
<text text-anchor="middle" x="449" y="-533" font-family="Helvetica,sans-Serif" font-size="10.00">init_worker_stats</text>
</a>
</g>
</g>
<!-- Node1&#45;&gt;Node14 -->
<g id="edge21_Node000001_Node000014" class="edge">
<title>Node1&#45;&gt;Node14</title>
<g id="a_edge21_Node000001_Node000014"><a xlink:title=" ">
<path fill="none" stroke="#63b8ff" d="M27.32,-415.12C36.19,-428.9 54.49,-453.96 77,-466.5 176.35,-521.84 311.54,-533.86 388.3,-535.86"/>
<polygon fill="#63b8ff" stroke="#63b8ff" points="388.66,-539.37 398.73,-536.08 388.8,-532.37 388.66,-539.37"/>
</a>
</g>
</g>
<!-- Node15 -->
<g id="Node000015" class="node">
<title>Node15</title>
<g id="a_Node000015"><a xlink:href="config_8c.html#a5ba22acdff5d198406a9d4aa0c73cb12" target="_top" xlink:title="Load configuration parameters from external file.">
<polygon fill="white" stroke="#666666" points="315,-849 243,-849 243,-830 315,-830 315,-849"/>
<text text-anchor="middle" x="279" y="-837" font-family="Helvetica,sans-Serif" font-size="10.00">load_config</text>
</a>
</g>
</g>
<!-- Node1&#45;&gt;Node15 -->
<g id="edge24_Node000001_Node000015" class="edge">
<title>Node1&#45;&gt;Node15</title>
<g id="a_edge24_Node000001_Node000015"><a xlink:title=" ">
<path fill="none" stroke="#63b8ff" d="M21.29,-415.16C20.25,-471.54 18.01,-757.42 77,-815.5 117.51,-855.38 187.08,-854.44 232.81,-848.35"/>
<polygon fill="#63b8ff" stroke="#63b8ff" points="233.37,-851.81 242.76,-846.89 232.36,-844.88 233.37,-851.81"/>
</a>
</g>
</g>
<!-- Node16 -->
<g id="Node000016" class="node">
<title>Node16</title>
<g id="a_Node000016"><a xlink:href="logger_8c.html#a5c9881b498d2fe84d5ef9c89cb81d93d" target="_top" xlink:title="Initialize logging system and open log file.">
<polygon fill="white" stroke="#666666" points="160,-130 92,-130 92,-111 160,-111 160,-130"/>
<text text-anchor="middle" x="126" y="-118" font-family="Helvetica,sans-Serif" font-size="10.00">logger_init</text>
</a>
</g>
</g>
<!-- Node1&#45;&gt;Node16 -->
<g id="edge27_Node000001_Node000016" class="edge">
<title>Node1&#45;&gt;Node16</title>
<g id="a_edge27_Node000001_Node000016"><a xlink:title=" ">
<path fill="none" stroke="#63b8ff" d="M22.42,-395.93C26.66,-353.83 45.33,-185.45 77,-144.5 79.77,-140.92 83.21,-137.84 86.98,-135.19"/>
<polygon fill="#63b8ff" stroke="#63b8ff" points="88.79,-138.18 95.6,-130.06 85.21,-132.17 88.79,-138.18"/>
</a>
</g>
</g>
<!-- Node17 -->
<g id="Node000017" class="node">
<title>Node17</title>
<g id="a_Node000017"><a xlink:href="signals_8c.html#adde3bef4aac394c78441b059135e7343" target="_top" xlink:title="Register all signal handlers for the process.">
<polygon fill="white" stroke="#666666" points="347,-244 211,-244 211,-225 347,-225 347,-244"/>
<text text-anchor="middle" x="279" y="-232" font-family="Helvetica,sans-Serif" font-size="10.00">register_signal_handlers</text>
</a>
</g>
</g>
<!-- Node1&#45;&gt;Node17 -->
<g id="edge28_Node000001_Node000017" class="edge">
<title>Node1&#45;&gt;Node17</title>
<g id="a_edge28_Node000001_Node000017"><a xlink:title=" ">
<path fill="none" stroke="#63b8ff" d="M22.24,-395.94C24.74,-370.52 35.29,-300.93 77,-267.5 111.34,-239.98 159.8,-231.42 200.53,-229.88"/>
<polygon fill="#63b8ff" stroke="#63b8ff" points="200.79,-233.38 210.7,-229.64 200.62,-226.38 200.79,-233.38"/>
</a>
</g>
</g>
<!-- Node19 -->
<g id="Node000019" class="node">
<title>Node19</title>
<g id="a_Node000019"><a xlink:href="ipc__utils_8c.html#a40ad696ee6efdf12b78c06e26bc95de7" target="_top" xlink:title="Mark shared memory segment for deletion.">
<polygon fill="white" stroke="#666666" points="690,-811 551,-811 551,-792 690,-792 690,-811"/>
<text text-anchor="middle" x="620.5" y="-799" font-family="Helvetica,sans-Serif" font-size="10.00">remove_shared_memory</text>
</a>
</g>
</g>
<!-- Node1&#45;&gt;Node19 -->
<g id="edge32_Node000001_Node000019" class="edge">
<title>Node1&#45;&gt;Node19</title>
<g id="a_edge32_Node000001_Node000019"><a xlink:title=" ">
<path fill="none" stroke="#63b8ff" d="M21.34,-415.15C20.69,-469.02 20.48,-731.82 77,-782.5 110.63,-812.65 398.1,-808.3 540.39,-804.21"/>
<polygon fill="#63b8ff" stroke="#63b8ff" points="540.9,-807.7 550.79,-803.91 540.69,-800.7 540.9,-807.7"/>
</a>
</g>
</g>
<!-- Node20 -->
<g id="Node000020" class="node">
<title>Node20</title>
<g id="a_Node000020"><a xlink:href="UI_8c.html#a254dff79870a08e3feccded6a95cd791" target="_top" xlink:title="Cleanup ncurses and restore terminal to normal mode.">
<polygon fill="white" stroke="#666666" points="160.5,-93 91.5,-93 91.5,-74 160.5,-74 160.5,-93"/>
<text text-anchor="middle" x="126" y="-81" font-family="Helvetica,sans-Serif" font-size="10.00">ui_cleanup</text>
</a>
</g>
</g>
<!-- Node1&#45;&gt;Node20 -->
<g id="edge37_Node000001_Node000020" class="edge">
<title>Node1&#45;&gt;Node20</title>
<g id="a_edge37_Node000001_Node000020"><a xlink:title=" ">
<path fill="none" stroke="#63b8ff" d="M22.01,-395.87C24.63,-349.33 38.12,-148.01 77,-101.5 78.53,-99.67 80.27,-98.02 82.15,-96.55"/>
<polygon fill="#63b8ff" stroke="#63b8ff" points="84.42,-99.26 91.15,-91.08 80.79,-93.28 84.42,-99.26"/>
</a>
</g>
</g>
<!-- Node21 -->
<g id="Node000021" class="node">
<title>Node21</title>
<g id="a_Node000021"><a xlink:href="UI_8c.html#ae631a5a3ad2c24dd944f5573487f98a3" target="_top" xlink:title="Draw complete dashboard (header + workers + logs)">
<polygon fill="white" stroke="#666666" points="334.5,-471 223.5,-471 223.5,-452 334.5,-452 334.5,-471"/>
<text text-anchor="middle" x="279" y="-459" font-family="Helvetica,sans-Serif" font-size="10.00">ui_draw_dashboard</text>
</a>
</g>
</g>
<!-- Node1&#45;&gt;Node21 -->
<g id="edge38_Node000001_Node000021" class="edge">
<title>Node1&#45;&gt;Node21</title>
<g id="a_edge38_Node000001_Node000021"><a xlink:title=" ">
<path fill="none" stroke="#63b8ff" d="M32.5,-415.26C43.09,-424.04 59.98,-436.46 77,-442.5 120.6,-457.98 172.69,-462.55 212.91,-463.34"/>
<polygon fill="#63b8ff" stroke="#63b8ff" points="213.09,-466.84 223.13,-463.47 213.17,-459.84 213.09,-466.84"/>
</a>
</g>
</g>
<!-- Node25 -->
<g id="Node000025" class="node">
<title>Node25</title>
<g id="a_Node000025"><a xlink:href="UI_8c.html#adc2734583ef4ca75088c32901f593e09" target="_top" xlink:title="Handle terminal resize event.">
<polygon fill="white" stroke="#666666" points="175,-56 77,-56 77,-37 175,-37 175,-56"/>
<text text-anchor="middle" x="126" y="-44" font-family="Helvetica,sans-Serif" font-size="10.00">ui_handle_resize</text>
</a>
</g>
</g>
<!-- Node1&#45;&gt;Node25 -->
<g id="edge46_Node000001_Node000025" class="edge">
<title>Node1&#45;&gt;Node25</title>
<g id="a_edge46_Node000001_Node000025"><a xlink:title=" ">
<path fill="none" stroke="#63b8ff" d="M21.8,-395.72C23.54,-345.55 33.75,-117.26 77,-64.5 77.71,-63.64 78.46,-62.82 79.25,-62.04"/>
<polygon fill="#63b8ff" stroke="#63b8ff" points="81.36,-64.83 87.26,-56.02 77.16,-59.23 81.36,-64.83"/>
</a>
</g>
</g>
<!-- Node26 -->
<g id="Node000026" class="node">
<title>Node26</title>
<g id="a_Node000026"><a xlink:href="UI_8c.html#ab7bfb453918dcc296ff0cea3c79453d0" target="_top" xlink:title="Initialize ncurses and create dashboard windows.">
<polygon fill="white" stroke="#666666" points="149.5,-19 102.5,-19 102.5,0 149.5,0 149.5,-19"/>
<text text-anchor="middle" x="126" y="-7" font-family="Helvetica,sans-Serif" font-size="10.00">ui_init</text>
</a>
</g>
</g>
<!-- Node1&#45;&gt;Node26 -->
<g id="edge47_Node000001_Node000026" class="edge">
<title>Node1&#45;&gt;Node26</title>
<g id="a_edge47_Node000001_Node000026"><a xlink:title=" ">
<path fill="none" stroke="#63b8ff" d="M21.63,-395.75C22.53,-342.44 29.31,-86.61 77,-27.5 81.11,-22.41 86.81,-18.76 92.86,-16.14"/>
<polygon fill="#63b8ff" stroke="#63b8ff" points="94.16,-19.39 102.46,-12.81 91.87,-12.78 94.16,-19.39"/>
</a>
</g>
</g>
<!-- Node27 -->
<g id="Node000027" class="node">
<title>Node27</title>
<g id="a_Node000027"><a xlink:href="UI_8c.html#a490ef24341463347d93ff0da36b17180" target="_top" xlink:title="Refresh entire dashboard display.">
<polygon fill="white" stroke="#666666" points="158.5,-434 93.5,-434 93.5,-415 158.5,-415 158.5,-434"/>
<text text-anchor="middle" x="126" y="-422" font-family="Helvetica,sans-Serif" font-size="10.00">ui_refresh</text>
</a>
</g>
</g>
<!-- Node1&#45;&gt;Node27 -->
<g id="edge48_Node000001_Node000027" class="edge">
<title>Node1&#45;&gt;Node27</title>
<g id="a_edge48_Node000001_Node000027"><a xlink:title=" ">
<path fill="none" stroke="#63b8ff" d="M41.46,-409.16C53.27,-411.33 68.7,-414.17 83.08,-416.8"/>
<polygon fill="#63b8ff" stroke="#63b8ff" points="82.83,-420.32 93.3,-418.68 84.09,-413.43 82.83,-420.32"/>
</a>
</g>
</g>
<!-- Node28 -->
<g id="Node000028" class="node">
<title>Node28</title>
<g id="a_Node000028"><a xlink:href="config_8c.html#a83b96494995d002bae79323b61b29e8b" target="_top" xlink:title="Validate loaded configuration values against constraints.">
<polygon fill="white" stroke="#666666" points="171.5,-773 80.5,-773 80.5,-754 171.5,-754 171.5,-773"/>
<text text-anchor="middle" x="126" y="-761" font-family="Helvetica,sans-Serif" font-size="10.00">validate_config</text>
</a>
</g>
</g>
<!-- Node1&#45;&gt;Node28 -->
<g id="edge50_Node000001_Node000028" class="edge">
<title>Node1&#45;&gt;Node28</title>
<g id="a_edge50_Node000001_Node000028"><a xlink:title=" ">
<path fill="none" stroke="#63b8ff" d="M21.95,-415.32C24.38,-464.72 37.38,-685.82 77,-739.5 79.55,-742.96 82.74,-745.95 86.26,-748.53"/>
<polygon fill="#63b8ff" stroke="#63b8ff" points="84.55,-751.59 94.91,-753.83 88.21,-745.62 84.55,-751.59"/>
</a>
</g>
</g>
<!-- Node29 -->
<g id="Node000029" class="node">
<title>Node29</title>
<g id="a_Node000029"><a xlink:href="worker_8c.html#a46fd66c7fed50332a474537b6c986f4b" target="_top" xlink:title="Main entry point for worker process.">
<polygon fill="white" stroke="#666666" points="495,-358 403,-358 403,-339 495,-339 495,-358"/>
<text text-anchor="middle" x="449" y="-346" font-family="Helvetica,sans-Serif" font-size="10.00">worker_process</text>
</a>
</g>
</g>
<!-- Node1&#45;&gt;Node29 -->
<g id="edge52_Node000001_Node000029" class="edge">
<title>Node1&#45;&gt;Node29</title>
<g id="a_edge52_Node000001_Node000029"><a xlink:title=" ">
<path fill="none" stroke="#63b8ff" d="M33.91,-395.77C44.64,-387.95 60.94,-377.48 77,-372.5 185.05,-339.02 319.04,-340.13 392.81,-344.16"/>
<polygon fill="#63b8ff" stroke="#63b8ff" points="392.62,-347.66 402.81,-344.75 393.03,-340.67 392.62,-347.66"/>
</a>
</g>
</g>
<!-- Node2&#45;&gt;Node3 -->
<g id="edge2_Node000002_Node000003" class="edge">
<title>Node2&#45;&gt;Node3</title>
<g id="a_edge2_Node000002_Node000003"><a xlink:title=" ">
<path fill="none" stroke="#63b8ff" d="M325.6,-697.01C405.89,-711.15 574.86,-729.07 690,-658.5 728.45,-634.93 749.52,-583.21 758.57,-554.93"/>
<polygon fill="#63b8ff" stroke="#63b8ff" points="762.02,-555.61 761.55,-545.02 755.31,-553.59 762.02,-555.61"/>
</a>
</g>
</g>
<!-- Node4&#45;&gt;Node3 -->
<g id="edge4_Node000004_Node000003" class="edge">
<title>Node4&#45;&gt;Node3</title>
<g id="a_edge4_Node000004_Node000003"><a xlink:title=" ">
<path fill="none" stroke="#63b8ff" d="M515.08,-657.61C565.74,-660.86 636.24,-658.42 690,-629.5 721.25,-612.69 743.74,-576.46 755.25,-554.21"/>
<polygon fill="#63b8ff" stroke="#63b8ff" points="758.47,-555.6 759.76,-545.09 752.19,-552.5 758.47,-555.6"/>
</a>
</g>
</g>
<!-- Node4&#45;&gt;Node5 -->
<g id="edge5_Node000004_Node000005" class="edge">
<title>Node4&#45;&gt;Node5</title>
<g id="a_edge5_Node000004_Node000005"><a xlink:title=" ">
<path fill="none" stroke="#63b8ff" d="M460.15,-639.81C484.71,-616.42 545.69,-558.52 551,-555.5 555.78,-552.78 560.96,-550.41 566.26,-548.34"/>
<polygon fill="#63b8ff" stroke="#63b8ff" points="567.61,-551.57 575.87,-544.93 565.27,-544.97 567.61,-551.57"/>
</a>
</g>
</g>
<!-- Node4&#45;&gt;Node6 -->
<g id="edge7_Node000004_Node000006" class="edge">
<title>Node4&#45;&gt;Node6</title>
<g id="a_edge7_Node000004_Node000006"><a xlink:title=" ">
<path fill="none" stroke="#63b8ff" d="M456.16,-639.8C473.94,-612.08 525.69,-533.42 551,-516.5 556.77,-512.64 563.32,-509.61 570.04,-507.23"/>
<polygon fill="#63b8ff" stroke="#63b8ff" points="571.39,-510.48 579.92,-504.19 569.33,-503.79 571.39,-510.48"/>
</a>
</g>
</g>
<!-- Node7 -->
<g id="Node000007" class="node">
<title>Node7</title>
<g id="a_Node000007"><a xlink:href="signals_8c.html#a9b352f5e054878b135c4d45ee28f17d9" target="_top" xlink:title="Send signal to a specific worker process.">
<polygon fill="white" stroke="#666666" points="684.5,-621 556.5,-621 556.5,-602 684.5,-602 684.5,-621"/>
<text text-anchor="middle" x="620.5" y="-609" font-family="Helvetica,sans-Serif" font-size="10.00">send_signal_to_worker</text>
</a>
</g>
</g>
<!-- Node4&#45;&gt;Node7 -->
<g id="edge9_Node000004_Node000007" class="edge">
<title>Node4&#45;&gt;Node7</title>
<g id="a_edge9_Node000004_Node000007"><a xlink:title=" ">
<path fill="none" stroke="#63b8ff" d="M492.77,-639.91C515.34,-634.85 543.22,-628.6 567.08,-623.25"/>
<polygon fill="#63b8ff" stroke="#63b8ff" points="568.04,-626.62 577.04,-621.02 566.51,-619.79 568.04,-626.62"/>
</a>
</g>
</g>
<!-- Node4&#45;&gt;Node8 -->
<g id="edge11_Node000004_Node000008" class="edge">
<title>Node4&#45;&gt;Node8</title>
<g id="a_edge11_Node000004_Node000008"><a xlink:title=" ">
<path fill="none" stroke="#63b8ff" d="M483.55,-639.91C494.02,-636.19 505.35,-631.39 515,-625.5 533.53,-614.2 531.95,-602.9 551,-592.5 558.68,-588.31 567.38,-585.06 575.95,-582.55"/>
<polygon fill="#63b8ff" stroke="#63b8ff" points="577.09,-585.86 585.87,-579.93 575.3,-579.1 577.09,-585.86"/>
</a>
</g>
</g>
<!-- Node5&#45;&gt;Node3 -->
<g id="edge6_Node000005_Node000003" class="edge">
<title>Node5&#45;&gt;Node3</title>
<g id="a_edge6_Node000005_Node000003"><a xlink:title=" ">
<path fill="none" stroke="#63b8ff" d="M665.03,-535.5C683.23,-535.5 704.29,-535.5 722.29,-535.5"/>
<polygon fill="#63b8ff" stroke="#63b8ff" points="722.49,-539 732.49,-535.5 722.49,-532 722.49,-539"/>
</a>
</g>
</g>
<!-- Node6&#45;&gt;Node3 -->
<g id="edge8_Node000006_Node000003" class="edge">
<title>Node6&#45;&gt;Node3</title>
<g id="a_edge8_Node000006_Node000003"><a xlink:title=" ">
<path fill="none" stroke="#63b8ff" d="M658.2,-508.03C677.81,-513.12 702.03,-519.41 722.34,-524.68"/>
<polygon fill="#63b8ff" stroke="#63b8ff" points="721.71,-528.13 732.27,-527.26 723.47,-521.36 721.71,-528.13"/>
</a>
</g>
</g>
<!-- Node7&#45;&gt;Node3 -->
<g id="edge10_Node000007_Node000003" class="edge">
<title>Node7&#45;&gt;Node3</title>
<g id="a_edge10_Node000007_Node000003"><a xlink:title=" ">
<path fill="none" stroke="#63b8ff" d="M665.56,-601.99C673.9,-599.44 682.38,-596.31 690,-592.5 711.1,-581.96 732.11,-564.99 746.32,-552.31"/>
<polygon fill="#63b8ff" stroke="#63b8ff" points="748.84,-554.75 753.86,-545.42 744.12,-549.58 748.84,-554.75"/>
</a>
</g>
</g>
<!-- Node9&#45;&gt;Node3 -->
<g id="edge13_Node000009_Node000003" class="edge">
<title>Node9&#45;&gt;Node3</title>
<g id="a_edge13_Node000009_Node000003"><a xlink:title=" ">
<path fill="none" stroke="#63b8ff" d="M648,-199.57C662.36,-202.6 679.3,-208.6 690,-220.5 730.04,-265.04 754.72,-453.92 761.85,-515.79"/>
<polygon fill="#63b8ff" stroke="#63b8ff" points="758.38,-516.25 762.97,-525.8 765.33,-515.47 758.38,-516.25"/>
</a>
</g>
</g>
<!-- Node10 -->
<g id="Node000010" class="node">
<title>Node10</title>
<g id="a_Node000010"><a xlink:href="logger_8c.html#a59c77d233157db1c24d6553a2567e442" target="_top" xlink:title="Close log file and cleanup resources.">
<polygon fill="white" stroke="#666666" points="804,-206 726,-206 726,-187 804,-187 804,-206"/>
<text text-anchor="middle" x="765" y="-194" font-family="Helvetica,sans-Serif" font-size="10.00">logger_close</text>
</a>
</g>
</g>
<!-- Node9&#45;&gt;Node10 -->
<g id="edge14_Node000009_Node000010" class="edge">
<title>Node9&#45;&gt;Node10</title>
<g id="a_edge14_Node000009_Node000010"><a xlink:title=" ">
<path fill="none" stroke="#63b8ff" d="M648.3,-196.5C667.25,-196.5 693.18,-196.5 715.69,-196.5"/>
<polygon fill="#63b8ff" stroke="#63b8ff" points="715.75,-200 725.75,-196.5 715.75,-193 715.75,-200"/>
</a>
</g>
</g>
<!-- Node11&#45;&gt;Node3 -->
<g id="edge16_Node000011_Node000003" class="edge">
<title>Node11&#45;&gt;Node3</title>
<g id="a_edge16_Node000011_Node000003"><a xlink:title=" ">
<path fill="none" stroke="#63b8ff" d="M332.6,-305.94C430.27,-298.57 634.76,-288.7 690,-329.5 750.48,-374.17 761.68,-472.84 763.64,-515.36"/>
<polygon fill="#63b8ff" stroke="#63b8ff" points="760.15,-515.68 763.98,-525.56 767.15,-515.44 760.15,-515.68"/>
</a>
</g>
</g>
<!-- Node12&#45;&gt;Node3 -->
<g id="edge18_Node000012_Node000003" class="edge">
<title>Node12&#45;&gt;Node3</title>
<g id="a_edge18_Node000012_Node000003"><a xlink:title=" ">
<path fill="none" stroke="#63b8ff" d="M345.14,-267.81C447.09,-261.86 638.1,-256.79 690,-297.5 759.04,-351.65 765.14,-469.35 764.69,-515.94"/>
<polygon fill="#63b8ff" stroke="#63b8ff" points="761.19,-515.87 764.47,-525.94 768.19,-516.02 761.19,-515.87"/>
</a>
</g>
</g>
<!-- Node13&#45;&gt;Node3 -->
<g id="edge20_Node000013_Node000003" class="edge">
<title>Node13&#45;&gt;Node3</title>
<g id="a_edge20_Node000013_Node000003"><a xlink:title=" ">
<path fill="none" stroke="#63b8ff" d="M302.75,-177.89C370.52,-150.94 573.51,-82.63 690,-177.5 743.26,-220.88 759.36,-446.89 763.06,-515.64"/>
<polygon fill="#63b8ff" stroke="#63b8ff" points="759.58,-516.12 763.58,-525.92 766.57,-515.76 759.58,-516.12"/>
</a>
</g>
</g>
<!-- Node14&#45;&gt;Node5 -->
<g id="edge22_Node000014_Node000005" class="edge">
<title>Node14&#45;&gt;Node5</title>
<g id="a_edge22_Node000014_Node000005"><a xlink:title=" ">
<path fill="none" stroke="#63b8ff" d="M499.03,-535.5C519.86,-535.5 544.23,-535.5 565.57,-535.5"/>
<polygon fill="#63b8ff" stroke="#63b8ff" points="565.78,-539 575.78,-535.5 565.78,-532 565.78,-539"/>
</a>
</g>
</g>
<!-- Node14&#45;&gt;Node6 -->
<g id="edge23_Node000014_Node000006" class="edge">
<title>Node14&#45;&gt;Node6</title>
<g id="a_edge23_Node000014_Node000006"><a xlink:title=" ">
<path fill="none" stroke="#63b8ff" d="M493.65,-525.97C516.91,-520.89 545.62,-514.63 569.74,-509.36"/>
<polygon fill="#63b8ff" stroke="#63b8ff" points="570.74,-512.73 579.77,-507.17 569.25,-505.89 570.74,-512.73"/>
</a>
</g>
</g>
<!-- Node15&#45;&gt;Node3 -->
<g id="edge25_Node000015_Node000003" class="edge">
<title>Node15&#45;&gt;Node3</title>
<g id="a_edge25_Node000015_Node000003"><a xlink:title=" ">
<path fill="none" stroke="#63b8ff" d="M310.72,-849.03C385.2,-870.08 577.52,-911.74 690,-820.5 731.96,-786.46 755.08,-614.28 761.87,-555.33"/>
<polygon fill="#63b8ff" stroke="#63b8ff" points="765.37,-555.45 763.01,-545.13 758.42,-554.68 765.37,-555.45"/>
</a>
</g>
</g>
<!-- Node17&#45;&gt;Node3 -->
<g id="edge29_Node000017_Node000003" class="edge">
<title>Node17&#45;&gt;Node3</title>
<g id="a_edge29_Node000017_Node000003"><a xlink:title=" ">
<path fill="none" stroke="#63b8ff" d="M347.01,-230.02C449.65,-224.61 639.26,-220.86 690,-262.5 729.95,-295.28 754.23,-458.69 761.6,-515.78"/>
<polygon fill="#63b8ff" stroke="#63b8ff" points="758.13,-516.22 762.85,-525.71 765.07,-515.35 758.13,-516.22"/>
</a>
</g>
</g>
<!-- Node18 -->
<g id="Node000018" class="node">
<title>Node18</title>
<g id="a_Node000018"><a xlink:href="signals_8c.html#a2227b50e2e42d7fbcaf283ae0b04bda5" target="_top" xlink:title="Wrapper signal handler for safe terminal restoration.">
<polygon fill="white" stroke="#666666" points="494,-206 404,-206 404,-187 494,-187 494,-206"/>
<text text-anchor="middle" x="449" y="-194" font-family="Helvetica,sans-Serif" font-size="10.00">safe_shutdown</text>
</a>
</g>
</g>
<!-- Node17&#45;&gt;Node18 -->
<g id="edge30_Node000017_Node000018" class="edge">
<title>Node17&#45;&gt;Node18</title>
<g id="a_edge30_Node000017_Node000018"><a xlink:title=" ">
<path fill="none" stroke="#63b8ff" d="M322.39,-224.91C344.76,-219.85 372.4,-213.6 396.05,-208.25"/>
<polygon fill="#63b8ff" stroke="#63b8ff" points="396.93,-211.64 405.91,-206.02 395.39,-204.81 396.93,-211.64"/>
</a>
</g>
</g>
<!-- Node18&#45;&gt;Node9 -->
<g id="edge31_Node000018_Node000009" class="edge">
<title>Node18&#45;&gt;Node9</title>
<g id="a_edge31_Node000018_Node000009"><a xlink:title=" ">
<path fill="none" stroke="#63b8ff" d="M494.09,-196.5C521.59,-196.5 556.58,-196.5 582.61,-196.5"/>
<polygon fill="#63b8ff" stroke="#63b8ff" points="582.81,-200 592.81,-196.5 582.81,-193 582.81,-200"/>
</a>
</g>
</g>
<!-- Node19&#45;&gt;Node3 -->
<g id="edge33_Node000019_Node000003" class="edge">
<title>Node19&#45;&gt;Node3</title>
<g id="a_edge33_Node000019_Node000003"><a xlink:title=" ">
<path fill="none" stroke="#63b8ff" d="M667.76,-791.98C676,-788.54 683.89,-783.86 690,-777.5 751.16,-713.82 761.9,-600.98 763.69,-555.41"/>
<polygon fill="#63b8ff" stroke="#63b8ff" points="767.19,-555.44 763.98,-545.35 760.19,-555.24 767.19,-555.44"/>
</a>
</g>
</g>
<!-- Node22 -->
<g id="Node000022" class="node">
<title>Node22</title>
<g id="a_Node000022"><a xlink:href="UI_8c.html#a0c8a8e30c481fd6b8a234acef9cd0e75" target="_top" xlink:title="Draw live log console at bottom of screen.">
<polygon fill="white" stroke="#666666" points="510.5,-434 387.5,-434 387.5,-415 510.5,-415 510.5,-434"/>
<text text-anchor="middle" x="449" y="-422" font-family="Helvetica,sans-Serif" font-size="10.00">ui_draw_logs_console</text>
</a>
</g>
</g>
<!-- Node21&#45;&gt;Node22 -->
<g id="edge39_Node000021_Node000022" class="edge">
<title>Node21&#45;&gt;Node22</title>
<g id="a_edge39_Node000021_Node000022"><a xlink:title=" ">
<path fill="none" stroke="#63b8ff" d="M323.26,-451.97C345.03,-447.18 371.61,-441.32 394.63,-436.25"/>
<polygon fill="#63b8ff" stroke="#63b8ff" points="395.58,-439.63 404.59,-434.06 394.07,-432.79 395.58,-439.63"/>
</a>
</g>
</g>
<!-- Node23 -->
<g id="Node000023" class="node">
<title>Node23</title>
<g id="a_Node000023"><a xlink:href="UI_8c.html#a38bf702c2b7d95494c0fd8e838debce4" target="_top" xlink:title="Draw system status header (time, workers, tasks)">
<polygon fill="white" stroke="#666666" points="509,-508 389,-508 389,-489 509,-489 509,-508"/>
<text text-anchor="middle" x="449" y="-496" font-family="Helvetica,sans-Serif" font-size="10.00">ui_draw_system_info</text>
</a>
</g>
</g>
<!-- Node21&#45;&gt;Node23 -->
<g id="edge40_Node000021_Node000023" class="edge">
<title>Node21&#45;&gt;Node23</title>
<g id="a_edge40_Node000021_Node000023"><a xlink:title=" ">
<path fill="none" stroke="#63b8ff" d="M323.26,-471.03C345.03,-475.82 371.61,-481.68 394.63,-486.75"/>
<polygon fill="#63b8ff" stroke="#63b8ff" points="394.07,-490.21 404.59,-488.94 395.58,-483.37 394.07,-490.21"/>
</a>
</g>
</g>
<!-- Node24 -->
<g id="Node000024" class="node">
<title>Node24</title>
<g id="a_Node000024"><a xlink:href="UI_8c.html#a3e6d8479ebd16234c91a359c675e0329" target="_top" xlink:title="Draw worker statistics table with color&#45;coded status.">
<polygon fill="white" stroke="#666666" points="513,-471 385,-471 385,-452 513,-452 513,-471"/>
<text text-anchor="middle" x="449" y="-459" font-family="Helvetica,sans-Serif" font-size="10.00">ui_draw_workers_table</text>
</a>
</g>
</g>
<!-- Node21&#45;&gt;Node24 -->
<g id="edge43_Node000021_Node000024" class="edge">
<title>Node21&#45;&gt;Node24</title>
<g id="a_edge43_Node000021_Node000024"><a xlink:title=" ">
<path fill="none" stroke="#63b8ff" d="M334.54,-461.5C347.37,-461.5 361.25,-461.5 374.75,-461.5"/>
<polygon fill="#63b8ff" stroke="#63b8ff" points="374.97,-465 384.97,-461.5 374.97,-458 374.97,-465"/>
</a>
</g>
</g>
<!-- Node23&#45;&gt;Node5 -->
<g id="edge41_Node000023_Node000005" class="edge">
<title>Node23&#45;&gt;Node5</title>
<g id="a_edge41_Node000023_Node000005"><a xlink:title=" ">
<path fill="none" stroke="#63b8ff" d="M493.65,-508.03C515.7,-512.84 542.64,-518.72 565.93,-523.81"/>
<polygon fill="#63b8ff" stroke="#63b8ff" points="565.48,-527.29 576,-526 566.97,-520.45 565.48,-527.29"/>
</a>
</g>
</g>
<!-- Node23&#45;&gt;Node6 -->
<g id="edge42_Node000023_Node000006" class="edge">
<title>Node23&#45;&gt;Node6</title>
<g id="a_edge42_Node000023_Node000006"><a xlink:title=" ">
<path fill="none" stroke="#63b8ff" d="M509.28,-498.5C529.02,-498.5 550.78,-498.5 569.72,-498.5"/>
<polygon fill="#63b8ff" stroke="#63b8ff" points="569.92,-502 579.92,-498.5 569.92,-495 569.92,-502"/>
</a>
</g>
</g>
<!-- Node24&#45;&gt;Node5 -->
<g id="edge44_Node000024_Node000005" class="edge">
<title>Node24&#45;&gt;Node5</title>
<g id="a_edge44_Node000024_Node000005"><a xlink:title=" ">
<path fill="none" stroke="#63b8ff" d="M496.36,-471.06C502.85,-473.32 509.26,-476.1 515,-479.5 534.74,-491.19 531.26,-504.81 551,-516.5 555.71,-519.29 560.85,-521.69 566.12,-523.74"/>
<polygon fill="#63b8ff" stroke="#63b8ff" points="565.1,-527.09 575.7,-527.07 567.4,-520.48 565.1,-527.09"/>
</a>
</g>
</g>
<!-- Node24&#45;&gt;Node6 -->
<g id="edge45_Node000024_Node000006" class="edge">
<title>Node24&#45;&gt;Node6</title>
<g id="a_edge45_Node000024_Node000006"><a xlink:title=" ">
<path fill="none" stroke="#63b8ff" d="M493.65,-471.03C516.91,-476.11 545.62,-482.37 569.74,-487.64"/>
<polygon fill="#63b8ff" stroke="#63b8ff" points="569.25,-491.11 579.77,-489.83 570.74,-484.27 569.25,-491.11"/>
</a>
</g>
</g>
<!-- Node27&#45;&gt;Node21 -->
<g id="edge49_Node000027_Node000021" class="edge">
<title>Node27&#45;&gt;Node21</title>
<g id="a_edge49_Node000027_Node000021"><a xlink:title=" ">
<path fill="none" stroke="#63b8ff" d="M158.65,-432.26C179.07,-437.26 206.03,-443.87 229.16,-449.53"/>
<polygon fill="#63b8ff" stroke="#63b8ff" points="228.6,-453 239.14,-451.98 230.26,-446.2 228.6,-453"/>
</a>
</g>
</g>
<!-- Node28&#45;&gt;Node3 -->
<g id="edge51_Node000028_Node000003" class="edge">
<title>Node28&#45;&gt;Node3</title>
<g id="a_edge51_Node000028_Node000003"><a xlink:title=" ">
<path fill="none" stroke="#63b8ff" d="M171.58,-767.74C289.87,-778.06 608.25,-799.45 690,-739.5 750.11,-695.42 761.51,-597.62 763.58,-555.47"/>
<polygon fill="#63b8ff" stroke="#63b8ff" points="767.09,-555.48 763.95,-545.36 760.09,-555.23 767.09,-555.48"/>
</a>
</g>
</g>
<!-- Node29&#45;&gt;Node3 -->
<g id="edge54_Node000029_Node000003" class="edge">
<title>Node29&#45;&gt;Node3</title>
<g id="a_edge54_Node000029_Node000003"><a xlink:title=" ">
<path fill="none" stroke="#63b8ff" d="M479.63,-358.07C490.9,-362.06 503.74,-367.04 515,-372.5 597.04,-412.26 614.67,-428.15 690,-479.5 708.81,-492.32 729.39,-508.04 744.07,-519.56"/>
<polygon fill="#63b8ff" stroke="#63b8ff" points="741.95,-522.35 751.96,-525.81 746.29,-516.86 741.95,-522.35"/>
</a>
</g>
</g>
<!-- Node29&#45;&gt;Node5 -->
<g id="edge55_Node000029_Node000005" class="edge">
<title>Node29&#45;&gt;Node5</title>
<g id="a_edge55_Node000029_Node000005"><a xlink:title=" ">
<path fill="none" stroke="#63b8ff" d="M465,-358.07C479.71,-368.19 501.79,-385.44 515,-405.5 543.52,-448.82 513.55,-480.63 551,-516.5 555.4,-520.71 560.64,-524 566.25,-526.58"/>
<polygon fill="#63b8ff" stroke="#63b8ff" points="565.34,-529.98 575.93,-530.26 567.83,-523.44 565.34,-529.98"/>
</a>
</g>
</g>
<!-- Node29&#45;&gt;Node6 -->
<g id="edge56_Node000029_Node000006" class="edge">
<title>Node29&#45;&gt;Node6</title>
<g id="a_edge56_Node000029_Node000006"><a xlink:title=" ">
<path fill="none" stroke="#63b8ff" d="M489.57,-358.05C498.61,-361.54 507.7,-366.23 515,-372.5 540.06,-394.01 530.38,-411.71 551,-437.5 564.8,-454.76 583.77,-471.23 598.24,-482.7"/>
<polygon fill="#63b8ff" stroke="#63b8ff" points="596.13,-485.48 606.18,-488.84 600.41,-479.95 596.13,-485.48"/>
</a>
</g>
</g>
<!-- Node29&#45;&gt;Node9 -->
<g id="edge53_Node000029_Node000009" class="edge">
<title>Node29&#45;&gt;Node9</title>
<g id="a_edge53_Node000029_Node000009"><a xlink:title=" ">
<path fill="none" stroke="#63b8ff" d="M460.6,-338.99C488.78,-313.72 565.8,-244.65 601.23,-212.88"/>
<polygon fill="#63b8ff" stroke="#63b8ff" points="603.79,-215.29 608.9,-206 599.12,-210.08 603.79,-215.29"/>
</a>
</g>
</g>
<!-- Node30 -->
<g id="Node000030" class="node">
<title>Node30</title>
<g id="a_Node000030"><a xlink:href="signals_8c.html#aae335edcfdcb000211d477ee50cbfdae" target="_top" xlink:title="Worker signal handler for SIGUSR1/SIGUSR2.">
<polygon fill="white" stroke="#666666" points="683.5,-358 557.5,-358 557.5,-339 683.5,-339 683.5,-358"/>
<text text-anchor="middle" x="620.5" y="-346" font-family="Helvetica,sans-Serif" font-size="10.00">worker_signal_handler</text>
</a>
</g>
</g>
<!-- Node29&#45;&gt;Node30 -->
<g id="edge57_Node000029_Node000030" class="edge">
<title>Node29&#45;&gt;Node30</title>
<g id="a_edge57_Node000029_Node000030"><a xlink:title=" ">
<path fill="none" stroke="#63b8ff" d="M495.42,-348.5C511.33,-348.5 529.6,-348.5 547.15,-348.5"/>
<polygon fill="#63b8ff" stroke="#63b8ff" points="547.38,-352 557.38,-348.5 547.38,-345 547.38,-352"/>
</a>
</g>
</g>
</g>
</svg>
