<?xml version="1.0" encoding="UTF-8" standalone="no"?>
<!DOCTYPE svg PUBLIC "-//W3C//DTD SVG 1.1//EN"
 "http://www.w3.org/Graphics/SVG/1.1/DTD/svg11.dtd">
<!-- Generated by graphviz version 2.43.0 (0)
 -->
<!-- Title: check_worker_timeouts Pages: 1 -->
<svg width="405pt" height="158pt"
 viewBox="0.00 0.00 405.00 158.26" xmlns="http://www.w3.org/2000/svg" xmlns:xlink="http://www.w3.org/1999/xlink">
<g id="graph0" class="graph" transform="scale(1 1) rotate(0) translate(4 154.26)">
<title>check_worker_timeouts</title>
<!-- Node1 -->
<g id="Node000001" class="node">
<title>Node1</title>
<g id="a_Node000001"><a xlink:title="Check for worker timeouts and send pause/resume signals.">
<polygon fill="#999999" stroke="#666666" points="132,-93 0,-93 0,-74 132,-74 132,-93"/>
<text text-anchor="middle" x="66" y="-81" font-family="Helvetica,sans-Serif" font-size="10.00">check_worker_timeouts</text>
</a>
</g>
</g>
<!-- Node2 -->
<g id="Node000002" class="node">
<title>Node2</title>
<g id="a_Node000002"><a xlink:href="logger_8c.html#a5453dcbc4c790a4aea0e136877073d4d" target="_top" xlink:title="Write formatted log event to file with microsecond timestamp.">
<polygon fill="white" stroke="#666666" points="397,-111 332,-111 332,-92 397,-92 397,-111"/>
<text text-anchor="middle" x="364.5" y="-99" font-family="Helvetica,sans-Serif" font-size="10.00">log_event</text>
</a>
</g>
</g>
<!-- Node1&#45;&gt;Node2 -->
<g id="edge1_Node000001_Node000002" class="edge">
<title>Node1&#45;&gt;Node2</title>
<g id="a_edge1_Node000001_Node000002"><a xlink:title=" ">
<path fill="none" stroke="#63b8ff" d="M79.49,-93.21C97.72,-106.71 133.25,-130.51 168,-139.5 223.08,-153.75 240.97,-153.93 296,-139.5 312.75,-135.11 329.72,-125.52 342.46,-117.08"/>
<polygon fill="#63b8ff" stroke="#63b8ff" points="344.69,-119.79 350.92,-111.22 340.71,-114.03 344.69,-119.79"/>
</a>
</g>
</g>
<!-- Node3 -->
<g id="Node000003" class="node">
<title>Node3</title>
<g id="a_Node000003"><a xlink:href="ipc__utils_8c.html#a10e9222ec21173d9cec5e4a2abc7454b" target="_top" xlink:title="Release semaphore lock (V operation)">
<polygon fill="white" stroke="#666666" points="276.5,-130 187.5,-130 187.5,-111 276.5,-111 276.5,-130"/>
<text text-anchor="middle" x="232" y="-118" font-family="Helvetica,sans-Serif" font-size="10.00">sem_signal_op</text>
</a>
</g>
</g>
<!-- Node1&#45;&gt;Node3 -->
<g id="edge2_Node000001_Node000003" class="edge">
<title>Node1&#45;&gt;Node3</title>
<g id="a_edge2_Node000001_Node000003"><a xlink:title=" ">
<path fill="none" stroke="#63b8ff" d="M109.23,-93.03C130.39,-97.8 156.19,-103.62 178.6,-108.68"/>
<polygon fill="#63b8ff" stroke="#63b8ff" points="178.1,-112.15 188.62,-110.94 179.64,-105.32 178.1,-112.15"/>
</a>
</g>
</g>
<!-- Node4 -->
<g id="Node000004" class="node">
<title>Node4</title>
<g id="a_Node000004"><a xlink:href="ipc__utils_8c.html#a5d0cc554e478b3289951da79d95b8594" target="_top" xlink:title="Acquire semaphore lock (P operation)">
<polygon fill="white" stroke="#666666" points="272.5,-93 191.5,-93 191.5,-74 272.5,-74 272.5,-93"/>
<text text-anchor="middle" x="232" y="-81" font-family="Helvetica,sans-Serif" font-size="10.00">sem_wait_op</text>
</a>
</g>
</g>
<!-- Node1&#45;&gt;Node4 -->
<g id="edge4_Node000001_Node000004" class="edge">
<title>Node1&#45;&gt;Node4</title>
<g id="a_edge4_Node000001_Node000004"><a xlink:title=" ">
<path fill="none" stroke="#63b8ff" d="M132.29,-83.5C148.55,-83.5 165.72,-83.5 181.1,-83.5"/>
<polygon fill="#63b8ff" stroke="#63b8ff" points="181.43,-87 191.43,-83.5 181.43,-80 181.43,-87"/>
</a>
</g>
</g>
<!-- Node5 -->
<g id="Node000005" class="node">
<title>Node5</title>
<g id="a_Node000005"><a xlink:href="signals_8c.html#a9b352f5e054878b135c4d45ee28f17d9" target="_top" xlink:title="Send signal to a specific worker process.">
<polygon fill="white" stroke="#666666" points="296,-56 168,-56 168,-37 296,-37 296,-56"/>
<text text-anchor="middle" x="232" y="-44" font-family="Helvetica,sans-Serif" font-size="10.00">send_signal_to_worker</text>
</a>
</g>
</g>
<!-- Node1&#45;&gt;Node5 -->
<g id="edge6_Node000001_Node000005" class="edge">
<title>Node1&#45;&gt;Node5</title>
<g id="a_edge6_Node000001_Node000005"><a xlink:title=" ">
<path fill="none" stroke="#63b8ff" d="M109.23,-73.97C130.39,-69.2 156.19,-63.38 178.6,-58.32"/>
<polygon fill="#63b8ff" stroke="#63b8ff" points="179.64,-61.68 188.62,-56.06 178.1,-54.85 179.64,-61.68"/>
</a>
</g>
</g>
<!-- Node6 -->
<g id="Node000006" class="node">
<title>Node6</title>
<g id="a_Node000006"><a xlink:href="UI_8c.html#a10c714946805ecbf63e0fa546403bc47" target="_top" xlink:title="Add formatted log message to UI console buffer.">
<polygon fill="white" stroke="#666666" points="266.5,-19 197.5,-19 197.5,0 266.5,0 266.5,-19"/>
<text text-anchor="middle" x="232" y="-7" font-family="Helvetica,sans-Serif" font-size="10.00">ui_add_log</text>
</a>
</g>
</g>
<!-- Node1&#45;&gt;Node6 -->
<g id="edge8_Node000001_Node000006" class="edge">
<title>Node1&#45;&gt;Node6</title>
<g id="a_edge8_Node000001_Node000006"><a xlink:title=" ">
<path fill="none" stroke="#63b8ff" d="M82.25,-73.9C101.61,-62.02 136.31,-41.74 168,-28.5 174.23,-25.9 180.95,-23.48 187.59,-21.31"/>
<polygon fill="#63b8ff" stroke="#63b8ff" points="188.7,-24.63 197.2,-18.3 186.61,-17.95 188.7,-24.63"/>
</a>
</g>
</g>
<!-- Node3&#45;&gt;Node2 -->
<g id="edge3_Node000003_Node000002" class="edge">
<title>Node3&#45;&gt;Node2</title>
<g id="a_edge3_Node000003_Node000002"><a xlink:title=" ">
<path fill="none" stroke="#63b8ff" d="M276.82,-114.12C291.36,-112 307.49,-109.65 321.86,-107.56"/>
<polygon fill="#63b8ff" stroke="#63b8ff" points="322.57,-111 331.96,-106.09 321.56,-104.07 322.57,-111"/>
</a>
</g>
</g>
<!-- Node4&#45;&gt;Node2 -->
<g id="edge5_Node000004_Node000002" class="edge">
<title>Node4&#45;&gt;Node2</title>
<g id="a_edge5_Node000004_Node000002"><a xlink:title=" ">
<path fill="none" stroke="#63b8ff" d="M272.51,-88.95C288.14,-91.11 306.12,-93.59 321.94,-95.77"/>
<polygon fill="#63b8ff" stroke="#63b8ff" points="321.6,-99.25 331.99,-97.15 322.56,-92.32 321.6,-99.25"/>
</a>
</g>
</g>
<!-- Node5&#45;&gt;Node2 -->
<g id="edge7_Node000005_Node000002" class="edge">
<title>Node5&#45;&gt;Node2</title>
<g id="a_edge7_Node000005_Node000002"><a xlink:title=" ">
<path fill="none" stroke="#63b8ff" d="M269.08,-56.05C278,-58.77 287.45,-61.97 296,-65.5 310.58,-71.52 326.15,-79.7 338.66,-86.74"/>
<polygon fill="#63b8ff" stroke="#63b8ff" points="337.15,-89.91 347.57,-91.85 340.64,-83.83 337.15,-89.91"/>
</a>
</g>
</g>
</g>
</svg>
