<?xml version="1.0" encoding="UTF-8" standalone="no"?>
<!DOCTYPE svg PUBLIC "-//W3C//DTD SVG 1.1//EN"
 "http://www.w3.org/Graphics/SVG/1.1/DTD/svg11.dtd">
<!-- Generated by graphviz version 2.43.0 (0)
 -->
<!-- Title: include/project.h Pages: 1 -->
<svg width="906pt" height="137pt"
 viewBox="0.00 0.00 906.00 137.00" xmlns="http://www.w3.org/2000/svg" xmlns:xlink="http://www.w3.org/1999/xlink">
<g id="graph0" class="graph" transform="scale(1 1) rotate(0) translate(4 133)">
<title>include/project.h</title>
<!-- Node1 -->
<g id="Node000001" class="node">
<title>Node1</title>
<g id="a_Node000001"><a xlink:title="Main header for RT&#45;THM (Real&#45;Time Task &amp; Health Monitor)">
<polygon fill="#999999" stroke="#666666" points="530,-129 432,-129 432,-110 530,-110 530,-129"/>
<text text-anchor="middle" x="481" y="-117" font-family="Helvetica,sans-Serif" font-size="10.00">include/project.h</text>
</a>
</g>
</g>
<!-- Node2 -->
<g id="Node000002" class="node">
<title>Node2</title>
<g id="a_Node000002"><a xlink:href="UI_8h.html" target="_top" xlink:title=" ">
<polygon fill="white" stroke="#666666" points="74,-74 0,-74 0,-55 74,-55 74,-74"/>
<text text-anchor="middle" x="37" y="-62" font-family="Helvetica,sans-Serif" font-size="10.00">include/UI.h</text>
</a>
</g>
</g>
<!-- Node1&#45;&gt;Node2 -->
<g id="edge1_Node000001_Node000002" class="edge">
<title>Node1&#45;&gt;Node2</title>
<g id="a_edge1_Node000001_Node000002"><a xlink:title=" ">
<path fill="none" stroke="#63b8ff" d="M421.89,-112.78C344.88,-105.11 206.12,-90.52 88,-74 83.47,-73.37 78.71,-72.65 74.01,-71.9"/>
<polygon fill="#63b8ff" stroke="#63b8ff" points="421.58,-116.27 431.88,-113.77 422.28,-109.3 421.58,-116.27"/>
</a>
</g>
</g>
<!-- Node3 -->
<g id="Node000003" class="node">
<title>Node3</title>
<g id="a_Node000003"><a xlink:href="config_8h.html" target="_top" xlink:title="Configuration parser for RT&#45;THM.">
<polygon fill="white" stroke="#666666" points="223.5,-74 130.5,-74 130.5,-55 223.5,-55 223.5,-74"/>
<text text-anchor="middle" x="177" y="-62" font-family="Helvetica,sans-Serif" font-size="10.00">include/config.h</text>
</a>
</g>
</g>
<!-- Node1&#45;&gt;Node3 -->
<g id="edge2_Node000001_Node000003" class="edge">
<title>Node1&#45;&gt;Node3</title>
<g id="a_edge2_Node000001_Node000003"><a xlink:title=" ">
<path fill="none" stroke="#63b8ff" d="M422.06,-108.22C364.17,-98.13 276.99,-82.93 223.72,-73.65"/>
<polygon fill="#63b8ff" stroke="#63b8ff" points="421.7,-111.72 432.16,-109.98 422.91,-104.82 421.7,-111.72"/>
</a>
</g>
</g>
<!-- Node4 -->
<g id="Node000004" class="node">
<title>Node4</title>
<g id="a_Node000004"><a xlink:href="UI_8c.html" target="_top" xlink:title="Ncurses dashboard implementation for RT&#45;THM.">
<polygon fill="white" stroke="#666666" points="200.5,-19 147.5,-19 147.5,0 200.5,0 200.5,-19"/>
<text text-anchor="middle" x="174" y="-7" font-family="Helvetica,sans-Serif" font-size="10.00">src/UI.c</text>
</a>
</g>
</g>
<!-- Node1&#45;&gt;Node4 -->
<g id="edge26_Node000001_Node000004" class="edge">
<title>Node1&#45;&gt;Node4</title>
<g id="a_edge26_Node000001_Node000004"><a xlink:title=" ">
<path fill="none" stroke="#63b8ff" d="M421.54,-115.39C324.43,-109.7 140.54,-96.11 121,-74 103.98,-54.74 136.67,-31.37 157.88,-19.05"/>
<polygon fill="#63b8ff" stroke="#63b8ff" points="421.62,-118.9 431.8,-115.98 422.02,-111.91 421.62,-118.9"/>
</a>
</g>
</g>
<!-- Node5 -->
<g id="Node000005" class="node">
<title>Node5</title>
<g id="a_Node000005"><a xlink:href="config_8c.html" target="_top" xlink:title="Configuration parser implementation for RT&#45;THM.">
<polygon fill="white" stroke="#666666" points="289.5,-19 218.5,-19 218.5,0 289.5,0 289.5,-19"/>
<text text-anchor="middle" x="254" y="-7" font-family="Helvetica,sans-Serif" font-size="10.00">src/config.c</text>
</a>
</g>
</g>
<!-- Node1&#45;&gt;Node5 -->
<g id="edge27_Node000001_Node000005" class="edge">
<title>Node1&#45;&gt;Node5</title>
<g id="a_edge27_Node000001_Node000005"><a xlink:title=" ">
<path fill="none" stroke="#63b8ff" d="M421.67,-114.35C384.14,-109.33 336.07,-98.28 300,-74 279.22,-60.01 264.55,-33.33 257.94,-19.42"/>
<polygon fill="#63b8ff" stroke="#63b8ff" points="421.61,-117.87 431.96,-115.61 422.46,-110.92 421.61,-117.87"/>
</a>
</g>
</g>
<!-- Node6 -->
<g id="Node000006" class="node">
<title>Node6</title>
<g id="a_Node000006"><a xlink:href="main_8c.html" target="_top" xlink:title="RT&#45;THM supervisor process (parent) implementation.">
<polygon fill="white" stroke="#666666" points="445.5,-19 378.5,-19 378.5,0 445.5,0 445.5,-19"/>
<text text-anchor="middle" x="412" y="-7" font-family="Helvetica,sans-Serif" font-size="10.00">src/main.c</text>
</a>
</g>
</g>
<!-- Node1&#45;&gt;Node6 -->
<g id="edge30_Node000001_Node000006" class="edge">
<title>Node1&#45;&gt;Node6</title>
<g id="a_edge30_Node000001_Node000006"><a xlink:title=" ">
<path fill="none" stroke="#63b8ff" d="M421.6,-110.92C377.57,-103.95 322.88,-91.93 309,-74 287.01,-45.6 340.35,-26.81 378.2,-17.46"/>
<polygon fill="#63b8ff" stroke="#63b8ff" points="421.25,-114.41 431.67,-112.46 422.31,-107.49 421.25,-114.41"/>
</a>
</g>
</g>
<!-- Node7 -->
<g id="Node000007" class="node">
<title>Node7</title>
<g id="a_Node000007"><a xlink:href="ipc_8h.html" target="_top" xlink:title="IPC utilities for RT&#45;THM (Shared Memory &amp; Semaphores)">
<polygon fill="white" stroke="#666666" points="664,-74 586,-74 586,-55 664,-55 664,-74"/>
<text text-anchor="middle" x="625" y="-62" font-family="Helvetica,sans-Serif" font-size="10.00">include/ipc.h</text>
</a>
</g>
</g>
<!-- Node1&#45;&gt;Node7 -->
<g id="edge6_Node000001_Node000007" class="edge">
<title>Node1&#45;&gt;Node7</title>
<g id="a_edge6_Node000001_Node000007"><a xlink:title=" ">
<path fill="none" stroke="#63b8ff" d="M513.82,-106.42C540.53,-96.59 577.6,-82.95 601.44,-74.17"/>
<polygon fill="#63b8ff" stroke="#63b8ff" points="512.31,-103.25 504.14,-109.98 514.73,-109.82 512.31,-103.25"/>
</a>
</g>
</g>
<!-- Node8 -->
<g id="Node000008" class="node">
<title>Node8</title>
<g id="a_Node000008"><a xlink:href="ipc__utils_8c.html" target="_top" xlink:title="IPC utilities implementation (Shared Memory &amp; Semaphores)">
<polygon fill="white" stroke="#666666" points="780.5,-19 697.5,-19 697.5,0 780.5,0 780.5,-19"/>
<text text-anchor="middle" x="739" y="-7" font-family="Helvetica,sans-Serif" font-size="10.00">src/ipc_utils.c</text>
</a>
</g>
</g>
<!-- Node1&#45;&gt;Node8 -->
<g id="edge28_Node000001_Node000008" class="edge">
<title>Node1&#45;&gt;Node8</title>
<g id="a_edge28_Node000001_Node000008"><a xlink:title=" ">
<path fill="none" stroke="#63b8ff" d="M540.26,-119.1C623.07,-118.52 767.01,-111.91 800,-74 817.76,-53.59 781.8,-31.05 757.92,-19.08"/>
<polygon fill="#63b8ff" stroke="#63b8ff" points="540.21,-115.6 530.23,-119.14 540.24,-122.6 540.21,-115.6"/>
</a>
</g>
</g>
<!-- Node9 -->
<g id="Node000009" class="node">
<title>Node9</title>
<g id="a_Node000009"><a xlink:href="signals_8c.html" target="_top" xlink:title="Signal handling implementation for RT&#45;THM.">
<polygon fill="white" stroke="#666666" points="679.5,-19 602.5,-19 602.5,0 679.5,0 679.5,-19"/>
<text text-anchor="middle" x="641" y="-7" font-family="Helvetica,sans-Serif" font-size="10.00">src/signals.c</text>
</a>
</g>
</g>
<!-- Node1&#45;&gt;Node9 -->
<g id="edge31_Node000001_Node000009" class="edge">
<title>Node1&#45;&gt;Node9</title>
<g id="a_edge31_Node000001_Node000009"><a xlink:title=" ">
<path fill="none" stroke="#63b8ff" d="M540.45,-118.62C619.82,-117.36 754.04,-109.82 785,-74 790.52,-67.61 790.01,-61.8 785,-55 772.38,-37.89 717.76,-24.57 679.55,-17.13"/>
<polygon fill="#63b8ff" stroke="#63b8ff" points="540.06,-115.12 530.11,-118.75 540.15,-122.12 540.06,-115.12"/>
</a>
</g>
</g>
<!-- Node10 -->
<g id="Node000010" class="node">
<title>Node10</title>
<g id="a_Node000010"><a xlink:href="worker_8c.html" target="_top" xlink:title="Worker process implementation for RT&#45;THM.">
<polygon fill="white" stroke="#666666" points="584,-19 510,-19 510,0 584,0 584,-19"/>
<text text-anchor="middle" x="547" y="-7" font-family="Helvetica,sans-Serif" font-size="10.00">src/worker.c</text>
</a>
</g>
</g>
<!-- Node1&#45;&gt;Node10 -->
<g id="edge32_Node000001_Node000010" class="edge">
<title>Node1&#45;&gt;Node10</title>
<g id="a_edge32_Node000001_Node000010"><a xlink:title=" ">
<path fill="none" stroke="#63b8ff" d="M507.15,-104.81C518.83,-97.31 531.6,-86.9 539,-74 548.95,-56.65 548.86,-32.31 547.93,-19.38"/>
<polygon fill="#63b8ff" stroke="#63b8ff" points="505.32,-101.83 498.54,-109.97 508.92,-107.83 505.32,-101.83"/>
</a>
</g>
</g>
<!-- Node11 -->
<g id="Node000011" class="node">
<title>Node11</title>
<g id="a_Node000011"><a xlink:href="logger_8h.html" target="_top" xlink:title="Logging system for RT&#45;THM with microsecond precision.">
<polygon fill="white" stroke="#666666" points="776,-74 682,-74 682,-55 776,-55 776,-74"/>
<text text-anchor="middle" x="729" y="-62" font-family="Helvetica,sans-Serif" font-size="10.00">include/logger.h</text>
</a>
</g>
</g>
<!-- Node1&#45;&gt;Node11 -->
<g id="edge12_Node000001_Node000011" class="edge">
<title>Node1&#45;&gt;Node11</title>
<g id="a_edge12_Node000001_Node000011"><a xlink:title=" ">
<path fill="none" stroke="#63b8ff" d="M530.7,-107.88C577.18,-97.94 645.73,-83.3 688.84,-74.08"/>
<polygon fill="#63b8ff" stroke="#63b8ff" points="529.89,-104.47 520.85,-109.98 531.36,-111.32 529.89,-104.47"/>
</a>
</g>
</g>
<!-- Node12 -->
<g id="Node000012" class="node">
<title>Node12</title>
<g id="a_Node000012"><a xlink:href="logger_8c.html" target="_top" xlink:title="Logging system implementation with microsecond precision.">
<polygon fill="white" stroke="#666666" points="898,-19 826,-19 826,0 898,0 898,-19"/>
<text text-anchor="middle" x="862" y="-7" font-family="Helvetica,sans-Serif" font-size="10.00">src/logger.c</text>
</a>
</g>
</g>
<!-- Node1&#45;&gt;Node12 -->
<g id="edge29_Node000001_Node000012" class="edge">
<title>Node1&#45;&gt;Node12</title>
<g id="a_edge29_Node000001_Node000012"><a xlink:title=" ">
<path fill="none" stroke="#63b8ff" d="M540.4,-116.2C623.86,-112.03 770.72,-101.02 816,-74 837.74,-61.03 852.17,-33.38 858.44,-19.24"/>
<polygon fill="#63b8ff" stroke="#63b8ff" points="540.12,-112.71 530.3,-116.69 540.46,-119.7 540.12,-112.71"/>
</a>
</g>
</g>
<!-- Node13 -->
<g id="Node000013" class="node">
<title>Node13</title>
<g id="a_Node000013"><a xlink:href="signals_8h.html" target="_top" xlink:title="Signal handling for RT&#45;THM (SIGINT, SIGUSR1, SIGUSR2)">
<polygon fill="white" stroke="#666666" points="530,-74 432,-74 432,-55 530,-55 530,-74"/>
<text text-anchor="middle" x="481" y="-62" font-family="Helvetica,sans-Serif" font-size="10.00">include/signals.h</text>
</a>
</g>
</g>
<!-- Node1&#45;&gt;Node13 -->
<g id="edge19_Node000001_Node000013" class="edge">
<title>Node1&#45;&gt;Node13</title>
<g id="a_edge19_Node000001_Node000013"><a xlink:title=" ">
<path fill="none" stroke="#63b8ff" d="M481,-99.66C481,-90.93 481,-80.99 481,-74.09"/>
<polygon fill="#63b8ff" stroke="#63b8ff" points="477.5,-99.75 481,-109.75 484.5,-99.75 477.5,-99.75"/>
</a>
</g>
</g>
<!-- Node14 -->
<g id="Node000014" class="node">
<title>Node14</title>
<g id="a_Node000014"><a xlink:href="worker_8h.html" target="_top" xlink:title="Worker process module for RT&#45;THM.">
<polygon fill="white" stroke="#666666" points="414,-74 318,-74 318,-55 414,-55 414,-74"/>
<text text-anchor="middle" x="366" y="-62" font-family="Helvetica,sans-Serif" font-size="10.00">include/worker.h</text>
</a>
</g>
</g>
<!-- Node1&#45;&gt;Node14 -->
<g id="edge23_Node000001_Node000014" class="edge">
<title>Node1&#45;&gt;Node14</title>
<g id="a_edge23_Node000001_Node000014"><a xlink:title=" ">
<path fill="none" stroke="#63b8ff" d="M453.37,-105.77C432.16,-95.99 403.44,-82.75 384.81,-74.17"/>
<polygon fill="#63b8ff" stroke="#63b8ff" points="451.98,-108.98 462.52,-109.98 454.91,-102.62 451.98,-108.98"/>
</a>
</g>
</g>
<!-- Node3&#45;&gt;Node4 -->
<g id="edge3_Node000003_Node000004" class="edge">
<title>Node3&#45;&gt;Node4</title>
<g id="a_edge3_Node000003_Node000004"><a xlink:title=" ">
<path fill="none" stroke="#63b8ff" d="M175.93,-44.66C175.44,-35.93 174.88,-25.99 174.49,-19.09"/>
<polygon fill="#63b8ff" stroke="#63b8ff" points="172.44,-44.96 176.5,-54.75 179.43,-44.57 172.44,-44.96"/>
</a>
</g>
</g>
<!-- Node3&#45;&gt;Node5 -->
<g id="edge4_Node000003_Node000005" class="edge">
<title>Node3&#45;&gt;Node5</title>
<g id="a_edge4_Node000003_Node000005"><a xlink:title=" ">
<path fill="none" stroke="#63b8ff" d="M197.85,-49.15C211.76,-39.57 229.61,-27.29 241.4,-19.17"/>
<polygon fill="#63b8ff" stroke="#63b8ff" points="195.62,-46.43 189.37,-54.98 199.59,-52.2 195.62,-46.43"/>
</a>
</g>
</g>
<!-- Node3&#45;&gt;Node6 -->
<g id="edge5_Node000003_Node000006" class="edge">
<title>Node3&#45;&gt;Node6</title>
<g id="a_edge5_Node000003_Node000006"><a xlink:title=" ">
<path fill="none" stroke="#63b8ff" d="M224.7,-52.74C270.28,-42.46 337.85,-27.22 378.15,-18.13"/>
<polygon fill="#63b8ff" stroke="#63b8ff" points="223.74,-49.37 214.76,-54.98 225.28,-56.2 223.74,-49.37"/>
</a>
</g>
</g>
<!-- Node7&#45;&gt;Node4 -->
<g id="edge7_Node000007_Node000004" class="edge">
<title>Node7&#45;&gt;Node4</title>
<g id="a_edge7_Node000007_Node000004"><a xlink:title=" ">
<path fill="none" stroke="#63b8ff" d="M575.62,-58.59C473.23,-48.35 244.37,-25.16 209,-19 206.29,-18.53 203.48,-17.97 200.68,-17.36"/>
<polygon fill="#63b8ff" stroke="#63b8ff" points="575.41,-62.08 585.71,-59.6 576.11,-55.12 575.41,-62.08"/>
</a>
</g>
</g>
<!-- Node7&#45;&gt;Node6 -->
<g id="edge9_Node000007_Node000006" class="edge">
<title>Node7&#45;&gt;Node6</title>
<g id="a_edge9_Node000007_Node000006"><a xlink:title=" ">
<path fill="none" stroke="#63b8ff" d="M580.99,-52.55C540.84,-42.56 482.36,-28.01 445.79,-18.91"/>
<polygon fill="#63b8ff" stroke="#63b8ff" points="580.23,-55.97 590.78,-54.98 581.92,-49.17 580.23,-55.97"/>
</a>
</g>
</g>
<!-- Node7&#45;&gt;Node8 -->
<g id="edge8_Node000007_Node000008" class="edge">
<title>Node7&#45;&gt;Node8</title>
<g id="a_edge8_Node000007_Node000008"><a xlink:title=" ">
<path fill="none" stroke="#63b8ff" d="M652.39,-50.77C673.42,-40.99 701.89,-27.75 720.35,-19.17"/>
<polygon fill="#63b8ff" stroke="#63b8ff" points="650.91,-47.6 643.32,-54.98 653.86,-53.94 650.91,-47.6"/>
</a>
</g>
</g>
<!-- Node7&#45;&gt;Node9 -->
<g id="edge10_Node000007_Node000009" class="edge">
<title>Node7&#45;&gt;Node9</title>
<g id="a_edge10_Node000007_Node000009"><a xlink:title=" ">
<path fill="none" stroke="#63b8ff" d="M630.6,-44.95C633.26,-36.15 636.3,-26.06 638.41,-19.09"/>
<polygon fill="#63b8ff" stroke="#63b8ff" points="627.18,-44.16 627.64,-54.75 633.88,-46.19 627.18,-44.16"/>
</a>
</g>
</g>
<!-- Node7&#45;&gt;Node10 -->
<g id="edge11_Node000007_Node000010" class="edge">
<title>Node7&#45;&gt;Node10</title>
<g id="a_edge11_Node000007_Node000010"><a xlink:title=" ">
<path fill="none" stroke="#63b8ff" d="M603.88,-49.15C589.79,-39.57 571.71,-27.29 559.76,-19.17"/>
<polygon fill="#63b8ff" stroke="#63b8ff" points="602.23,-52.26 612.47,-54.98 606.16,-46.47 602.23,-52.26"/>
</a>
</g>
</g>
<!-- Node11&#45;&gt;Node5 -->
<g id="edge13_Node000011_Node000005" class="edge">
<title>Node11&#45;&gt;Node5</title>
<g id="a_edge13_Node000011_Node000005"><a xlink:title=" ">
<path fill="none" stroke="#63b8ff" d="M671.79,-54.9C523.79,-36.01 360.41,-20.3 289.66,-13.74"/>
<polygon fill="#63b8ff" stroke="#63b8ff" points="671.6,-58.4 681.97,-56.2 672.5,-51.46 671.6,-58.4"/>
</a>
</g>
</g>
<!-- Node11&#45;&gt;Node6 -->
<g id="edge16_Node000011_Node000006" class="edge">
<title>Node11&#45;&gt;Node6</title>
<g id="a_edge16_Node000011_Node000006"><a xlink:title=" ">
<path fill="none" stroke="#63b8ff" d="M671.66,-53.91C605.71,-42.89 499.61,-25.15 445.74,-16.14"/>
<polygon fill="#63b8ff" stroke="#63b8ff" points="671.44,-57.43 681.88,-55.62 672.6,-50.52 671.44,-57.43"/>
</a>
</g>
</g>
<!-- Node11&#45;&gt;Node8 -->
<g id="edge14_Node000011_Node000008" class="edge">
<title>Node11&#45;&gt;Node8</title>
<g id="a_edge14_Node000011_Node000008"><a xlink:title=" ">
<path fill="none" stroke="#63b8ff" d="M732.55,-44.66C734.2,-35.93 736.08,-25.99 737.38,-19.09"/>
<polygon fill="#63b8ff" stroke="#63b8ff" points="729.07,-44.27 730.65,-54.75 735.94,-45.57 729.07,-44.27"/>
</a>
</g>
</g>
<!-- Node11&#45;&gt;Node9 -->
<g id="edge17_Node000011_Node000009" class="edge">
<title>Node11&#45;&gt;Node9</title>
<g id="a_edge17_Node000011_Node000009"><a xlink:title=" ">
<path fill="none" stroke="#63b8ff" d="M706.08,-49.7C690.05,-40.04 669.13,-27.44 655.4,-19.17"/>
<polygon fill="#63b8ff" stroke="#63b8ff" points="704.49,-52.82 714.86,-54.98 708.1,-46.83 704.49,-52.82"/>
</a>
</g>
</g>
<!-- Node11&#45;&gt;Node10 -->
<g id="edge18_Node000011_Node000010" class="edge">
<title>Node11&#45;&gt;Node10</title>
<g id="a_edge18_Node000011_Node000010"><a xlink:title=" ">
<path fill="none" stroke="#63b8ff" d="M690.14,-52.18C656.1,-42.27 607.38,-28.08 576.47,-19.08"/>
<polygon fill="#63b8ff" stroke="#63b8ff" points="689.18,-55.55 699.76,-54.98 691.14,-48.83 689.18,-55.55"/>
</a>
</g>
</g>
<!-- Node11&#45;&gt;Node12 -->
<g id="edge15_Node000011_Node000012" class="edge">
<title>Node11&#45;&gt;Node12</title>
<g id="a_edge15_Node000011_Node000012"><a xlink:title=" ">
<path fill="none" stroke="#63b8ff" d="M759.97,-51.16C784.59,-41.35 818.41,-27.87 840.24,-19.17"/>
<polygon fill="#63b8ff" stroke="#63b8ff" points="758.36,-48.03 750.37,-54.98 760.95,-54.53 758.36,-48.03"/>
</a>
</g>
</g>
<!-- Node13&#45;&gt;Node6 -->
<g id="edge20_Node000013_Node000006" class="edge">
<title>Node13&#45;&gt;Node6</title>
<g id="a_edge20_Node000013_Node000006"><a xlink:title=" ">
<path fill="none" stroke="#63b8ff" d="M461.96,-48.88C449.54,-39.34 433.76,-27.21 423.29,-19.17"/>
<polygon fill="#63b8ff" stroke="#63b8ff" points="459.85,-51.67 469.91,-54.98 464.12,-46.12 459.85,-51.67"/>
</a>
</g>
</g>
<!-- Node13&#45;&gt;Node9 -->
<g id="edge21_Node000013_Node000009" class="edge">
<title>Node13&#45;&gt;Node9</title>
<g id="a_edge21_Node000013_Node000009"><a xlink:title=" ">
<path fill="none" stroke="#63b8ff" d="M516.33,-51.8C546.19,-41.91 588.27,-27.97 615.09,-19.08"/>
<polygon fill="#63b8ff" stroke="#63b8ff" points="515.1,-48.52 506.71,-54.98 517.3,-55.16 515.1,-48.52"/>
</a>
</g>
</g>
<!-- Node13&#45;&gt;Node10 -->
<g id="edge22_Node000013_Node000010" class="edge">
<title>Node13&#45;&gt;Node10</title>
<g id="a_edge22_Node000013_Node000010"><a xlink:title=" ">
<path fill="none" stroke="#63b8ff" d="M499.55,-48.6C511.38,-39.11 526.29,-27.13 536.2,-19.17"/>
<polygon fill="#63b8ff" stroke="#63b8ff" points="497.21,-45.99 491.6,-54.98 501.59,-51.45 497.21,-45.99"/>
</a>
</g>
</g>
<!-- Node14&#45;&gt;Node6 -->
<g id="edge24_Node000014_Node000006" class="edge">
<title>Node14&#45;&gt;Node6</title>
<g id="a_edge24_Node000014_Node000006"><a xlink:title=" ">
<path fill="none" stroke="#63b8ff" d="M380.36,-46.96C388.37,-37.72 398.03,-26.6 404.55,-19.09"/>
<polygon fill="#63b8ff" stroke="#63b8ff" points="377.51,-44.9 373.6,-54.75 382.79,-49.49 377.51,-44.9"/>
</a>
</g>
</g>
<!-- Node14&#45;&gt;Node10 -->
<g id="edge25_Node000014_Node000010" class="edge">
<title>Node14&#45;&gt;Node10</title>
<g id="a_edge25_Node000014_Node000010"><a xlink:title=" ">
<path fill="none" stroke="#63b8ff" d="M405.08,-52.06C438.91,-42.15 487.08,-28.04 517.69,-19.08"/>
<polygon fill="#63b8ff" stroke="#63b8ff" points="403.69,-48.82 395.08,-54.98 405.66,-55.53 403.69,-48.82"/>
</a>
</g>
</g>
</g>
</svg>
