<?xml version="1.0" encoding="UTF-8" standalone="no"?>
<!DOCTYPE svg PUBLIC "-//W3C//DTD SVG 1.1//EN"
 "http://www.w3.org/Graphics/SVG/1.1/DTD/svg11.dtd">
<!-- Generated by graphviz version 2.43.0 (0)
 -->
<!-- Title: include/signals.h Pages: 1 -->
<svg width="263pt" height="82pt"
 viewBox="0.00 0.00 262.50 82.00" xmlns="http://www.w3.org/2000/svg" xmlns:xlink="http://www.w3.org/1999/xlink">
<g id="graph0" class="graph" transform="scale(1 1) rotate(0) translate(4 78)">
<title>include/signals.h</title>
<!-- Node1 -->
<g id="Node000001" class="node">
<title>Node1</title>
<g id="a_Node000001"><a xlink:title="Signal handling for RT&#45;THM (SIGINT, SIGUSR1, SIGUSR2)">
<polygon fill="#999999" stroke="#666666" points="172.5,-74 74.5,-74 74.5,-55 172.5,-55 172.5,-74"/>
<text text-anchor="middle" x="123.5" y="-62" font-family="Helvetica,sans-Serif" font-size="10.00">include/signals.h</text>
</a>
</g>
</g>
<!-- Node2 -->
<g id="Node000002" class="node">
<title>Node2</title>
<g id="a_Node000002"><a xlink:href="main_8c.html" target="_top" xlink:title="RT&#45;THM supervisor process (parent) implementation.">
<polygon fill="white" stroke="#666666" points="67,-19 0,-19 0,0 67,0 67,-19"/>
<text text-anchor="middle" x="33.5" y="-7" font-family="Helvetica,sans-Serif" font-size="10.00">src/main.c</text>
</a>
</g>
</g>
<!-- Node1&#45;&gt;Node2 -->
<g id="edge1_Node000001_Node000002" class="edge">
<title>Node1&#45;&gt;Node2</title>
<g id="a_edge1_Node000001_Node000002"><a xlink:title=" ">
<path fill="none" stroke="#63b8ff" d="M100.06,-49.7C83.66,-40.04 62.27,-27.44 48.22,-19.17"/>
<polygon fill="#63b8ff" stroke="#63b8ff" points="98.65,-52.93 109.04,-54.98 102.2,-46.89 98.65,-52.93"/>
</a>
</g>
</g>
<!-- Node3 -->
<g id="Node000003" class="node">
<title>Node3</title>
<g id="a_Node000003"><a xlink:href="signals_8c.html" target="_top" xlink:title="Signal handling implementation for RT&#45;THM.">
<polygon fill="white" stroke="#666666" points="162,-19 85,-19 85,0 162,0 162,-19"/>
<text text-anchor="middle" x="123.5" y="-7" font-family="Helvetica,sans-Serif" font-size="10.00">src/signals.c</text>
</a>
</g>
</g>
<!-- Node1&#45;&gt;Node3 -->
<g id="edge2_Node000001_Node000003" class="edge">
<title>Node1&#45;&gt;Node3</title>
<g id="a_edge2_Node000001_Node000003"><a xlink:title=" ">
<path fill="none" stroke="#63b8ff" d="M123.5,-44.66C123.5,-35.93 123.5,-25.99 123.5,-19.09"/>
<polygon fill="#63b8ff" stroke="#63b8ff" points="120,-44.75 123.5,-54.75 127,-44.75 120,-44.75"/>
</a>
</g>
</g>
<!-- Node4 -->
<g id="Node000004" class="node">
<title>Node4</title>
<g id="a_Node000004"><a xlink:href="worker_8c.html" target="_top" xlink:title="Worker process implementation for RT&#45;THM.">
<polygon fill="white" stroke="#666666" points="254.5,-19 180.5,-19 180.5,0 254.5,0 254.5,-19"/>
<text text-anchor="middle" x="217.5" y="-7" font-family="Helvetica,sans-Serif" font-size="10.00">src/worker.c</text>
</a>
</g>
</g>
<!-- Node1&#45;&gt;Node4 -->
<g id="edge3_Node000001_Node000004" class="edge">
<title>Node1&#45;&gt;Node4</title>
<g id="a_edge3_Node000001_Node000004"><a xlink:title=" ">
<path fill="none" stroke="#63b8ff" d="M147.5,-49.97C164.69,-40.28 187.31,-27.52 202.12,-19.17"/>
<polygon fill="#63b8ff" stroke="#63b8ff" points="145.59,-47.02 138.6,-54.98 149.03,-53.12 145.59,-47.02"/>
</a>
</g>
</g>
</g>
</svg>
