<?xml version="1.0" encoding="UTF-8" standalone="no"?>
<!DOCTYPE svg PUBLIC "-//W3C//DTD SVG 1.1//EN"
 "http://www.w3.org/Graphics/SVG/1.1/DTD/svg11.dtd">
<!-- Generated by graphviz version 2.43.0 (0)
 -->
<!-- Title: worker_signal_handler Pages: 1 -->
<svg width="339pt" height="27pt"
 viewBox="0.00 0.00 339.00 27.00" xmlns="http://www.w3.org/2000/svg" xmlns:xlink="http://www.w3.org/1999/xlink">
<g id="graph0" class="graph" transform="scale(1 1) rotate(0) translate(4 23)">
<title>worker_signal_handler</title>
<!-- Node1 -->
<g id="Node000001" class="node">
<title>Node1</title>
<g id="a_Node000001"><a xlink:title="Worker signal handler for SIGUSR1/SIGUSR2.">
<polygon fill="#999999" stroke="#666666" points="331,-19 205,-19 205,0 331,0 331,-19"/>
<text text-anchor="middle" x="268" y="-7" font-family="Helvetica,sans-Serif" font-size="10.00">worker_signal_handler</text>
</a>
</g>
</g>
<!-- Node2 -->
<g id="Node000002" class="node">
<title>Node2</title>
<g id="a_Node000002"><a xlink:href="worker_8c.html#a46fd66c7fed50332a474537b6c986f4b" target="_top" xlink:title="Main entry point for worker process.">
<polygon fill="white" stroke="#666666" points="169,-19 77,-19 77,0 169,0 169,-19"/>
<text text-anchor="middle" x="123" y="-7" font-family="Helvetica,sans-Serif" font-size="10.00">worker_process</text>
</a>
</g>
</g>
<!-- Node1&#45;&gt;Node2 -->
<g id="edge1_Node000001_Node000002" class="edge">
<title>Node1&#45;&gt;Node2</title>
<g id="a_edge1_Node000001_Node000002"><a xlink:title=" ">
<path fill="none" stroke="#63b8ff" d="M194.61,-9.5C186,-9.5 177.41,-9.5 169.33,-9.5"/>
<polygon fill="#63b8ff" stroke="#63b8ff" points="194.69,-13 204.69,-9.5 194.69,-6 194.69,-13"/>
</a>
</g>
</g>
<!-- Node3 -->
<g id="Node000003" class="node">
<title>Node3</title>
<g id="a_Node000003"><a xlink:href="main_8c.html#a840291bc02cba5474a4cb46a9b9566fe" target="_top" xlink:title="Main entry point for RT&#45;THM supervisor.">
<polygon fill="white" stroke="#666666" points="41,-19 0,-19 0,0 41,0 41,-19"/>
<text text-anchor="middle" x="20.5" y="-7" font-family="Helvetica,sans-Serif" font-size="10.00">main</text>
</a>
</g>
</g>
<!-- Node2&#45;&gt;Node3 -->
<g id="edge2_Node000002_Node000003" class="edge">
<title>Node2&#45;&gt;Node3</title>
<g id="a_edge2_Node000002_Node000003"><a xlink:title=" ">
<path fill="none" stroke="#63b8ff" d="M66.46,-9.5C57.38,-9.5 48.53,-9.5 41.12,-9.5"/>
<polygon fill="#63b8ff" stroke="#63b8ff" points="66.75,-13 76.75,-9.5 66.75,-6 66.75,-13"/>
</a>
</g>
</g>
</g>
</svg>
