<?xml version="1.0" encoding="UTF-8" standalone="no"?>
<!DOCTYPE svg PUBLIC "-//W3C//DTD SVG 1.1//EN"
 "http://www.w3.org/Graphics/SVG/1.1/DTD/svg11.dtd">
<!-- Generated by graphviz version 2.43.0 (0)
 -->
<!-- Title: register_signal_handlers Pages: 1 -->
<svg width="475pt" height="64pt"
 viewBox="0.00 0.00 475.00 64.00" xmlns="http://www.w3.org/2000/svg" xmlns:xlink="http://www.w3.org/1999/xlink">
<g id="graph0" class="graph" transform="scale(1 1) rotate(0) translate(4 60)">
<title>register_signal_handlers</title>
<!-- Node1 -->
<g id="Node000001" class="node">
<title>Node1</title>
<g id="a_Node000001"><a xlink:title="Register all signal handlers for the process.">
<polygon fill="#999999" stroke="#666666" points="136,-38 0,-38 0,-19 136,-19 136,-38"/>
<text text-anchor="middle" x="68" y="-26" font-family="Helvetica,sans-Serif" font-size="10.00">register_signal_handlers</text>
</a>
</g>
</g>
<!-- Node2 -->
<g id="Node000002" class="node">
<title>Node2</title>
<g id="a_Node000002"><a xlink:href="logger_8c.html#a5453dcbc4c790a4aea0e136877073d4d" target="_top" xlink:title="Write formatted log event to file with microsecond timestamp.">
<polygon fill="white" stroke="#666666" points="460.5,-56 395.5,-56 395.5,-37 460.5,-37 460.5,-56"/>
<text text-anchor="middle" x="428" y="-44" font-family="Helvetica,sans-Serif" font-size="10.00">log_event</text>
</a>
</g>
</g>
<!-- Node1&#45;&gt;Node2 -->
<g id="edge1_Node000001_Node000002" class="edge">
<title>Node1&#45;&gt;Node2</title>
<g id="a_edge1_Node000001_Node000002"><a xlink:title=" ">
<path fill="none" stroke="#63b8ff" d="M136.34,-31.89C209.48,-35.56 324.03,-41.32 385.2,-44.4"/>
<polygon fill="#63b8ff" stroke="#63b8ff" points="385.1,-47.9 395.26,-44.9 385.45,-40.91 385.1,-47.9"/>
</a>
</g>
</g>
<!-- Node3 -->
<g id="Node000003" class="node">
<title>Node3</title>
<g id="a_Node000003"><a xlink:href="signals_8c.html#a2227b50e2e42d7fbcaf283ae0b04bda5" target="_top" xlink:title="Wrapper signal handler for safe terminal restoration.">
<polygon fill="white" stroke="#666666" points="262,-19 172,-19 172,0 262,0 262,-19"/>
<text text-anchor="middle" x="217" y="-7" font-family="Helvetica,sans-Serif" font-size="10.00">safe_shutdown</text>
</a>
</g>
</g>
<!-- Node1&#45;&gt;Node3 -->
<g id="edge2_Node000001_Node000003" class="edge">
<title>Node1&#45;&gt;Node3</title>
<g id="a_edge2_Node000001_Node000003"><a xlink:title=" ">
<path fill="none" stroke="#63b8ff" d="M136.05,-19.83C144.66,-18.72 153.39,-17.59 161.77,-16.51"/>
<polygon fill="#63b8ff" stroke="#63b8ff" points="162.3,-19.97 171.77,-15.22 161.4,-13.03 162.3,-19.97"/>
</a>
</g>
</g>
<!-- Node4 -->
<g id="Node000004" class="node">
<title>Node4</title>
<g id="a_Node000004"><a xlink:href="signals_8c.html#aa79b2985b495e6db8bf7675d0a32c3c5" target="_top" xlink:title="Cleanup handler for graceful system shutdown.">
<polygon fill="white" stroke="#666666" points="353,-19 298,-19 298,0 353,0 353,-19"/>
<text text-anchor="middle" x="325.5" y="-7" font-family="Helvetica,sans-Serif" font-size="10.00">cleanup</text>
</a>
</g>
</g>
<!-- Node3&#45;&gt;Node4 -->
<g id="edge3_Node000003_Node000004" class="edge">
<title>Node3&#45;&gt;Node4</title>
<g id="a_edge3_Node000003_Node000004"><a xlink:title=" ">
<path fill="none" stroke="#63b8ff" d="M262.24,-9.5C270.76,-9.5 279.6,-9.5 287.84,-9.5"/>
<polygon fill="#63b8ff" stroke="#63b8ff" points="287.9,-13 297.9,-9.5 287.9,-6 287.9,-13"/>
</a>
</g>
</g>
<!-- Node4&#45;&gt;Node2 -->
<g id="edge4_Node000004_Node000002" class="edge">
<title>Node4&#45;&gt;Node2</title>
<g id="a_edge4_Node000004_Node000002"><a xlink:title=" ">
<path fill="none" stroke="#63b8ff" d="M352.38,-19.03C364.25,-23.4 378.5,-28.64 391.36,-33.38"/>
<polygon fill="#63b8ff" stroke="#63b8ff" points="390.26,-36.7 400.86,-36.88 392.68,-30.14 390.26,-36.7"/>
</a>
</g>
</g>
<!-- Node5 -->
<g id="Node000005" class="node">
<title>Node5</title>
<g id="a_Node000005"><a xlink:href="logger_8c.html#a59c77d233157db1c24d6553a2567e442" target="_top" xlink:title="Close log file and cleanup resources.">
<polygon fill="white" stroke="#666666" points="467,-19 389,-19 389,0 467,0 467,-19"/>
<text text-anchor="middle" x="428" y="-7" font-family="Helvetica,sans-Serif" font-size="10.00">logger_close</text>
</a>
</g>
</g>
<!-- Node4&#45;&gt;Node5 -->
<g id="edge5_Node000004_Node000005" class="edge">
<title>Node4&#45;&gt;Node5</title>
<g id="a_edge5_Node000004_Node000005"><a xlink:title=" ">
<path fill="none" stroke="#63b8ff" d="M353.17,-9.5C361.03,-9.5 369.88,-9.5 378.65,-9.5"/>
<polygon fill="#63b8ff" stroke="#63b8ff" points="378.86,-13 388.86,-9.5 378.86,-6 378.86,-13"/>
</a>
</g>
</g>
</g>
</svg>
