<?xml version="1.0" encoding="UTF-8" standalone="no"?>
<!DOCTYPE svg PUBLIC "-//W3C//DTD SVG 1.1//EN"
 "http://www.w3.org/Graphics/SVG/1.1/DTD/svg11.dtd">
<!-- Generated by graphviz version 2.43.0 (0)
 -->
<!-- Title: cleanup Pages: 1 -->
<svg width="177pt" height="64pt"
 viewBox="0.00 0.00 177.00 64.00" xmlns="http://www.w3.org/2000/svg" xmlns:xlink="http://www.w3.org/1999/xlink">
<g id="graph0" class="graph" transform="scale(1 1) rotate(0) translate(4 60)">
<title>cleanup</title>
<!-- Node1 -->
<g id="Node000001" class="node">
<title>Node1</title>
<g id="a_Node000001"><a xlink:title="Cleanup handler for graceful shutdown.">
<polygon fill="#999999" stroke="#666666" points="55,-37 0,-37 0,-18 55,-18 55,-37"/>
<text text-anchor="middle" x="27.5" y="-25" font-family="Helvetica,sans-Serif" font-size="10.00">cleanup</text>
</a>
</g>
</g>
<!-- Node2 -->
<g id="Node000002" class="node">
<title>Node2</title>
<g id="a_Node000002"><a xlink:href="logger_8c.html#a5453dcbc4c790a4aea0e136877073d4d" target="_top" xlink:title="Write formatted log event to file with microsecond timestamp.">
<polygon fill="white" stroke="#666666" points="162.5,-56 97.5,-56 97.5,-37 162.5,-37 162.5,-56"/>
<text text-anchor="middle" x="130" y="-44" font-family="Helvetica,sans-Serif" font-size="10.00">log_event</text>
</a>
</g>
</g>
<!-- Node1&#45;&gt;Node2 -->
<g id="edge1_Node000001_Node000002" class="edge">
<title>Node1&#45;&gt;Node2</title>
<g id="a_edge1_Node000001_Node000002"><a xlink:title=" ">
<path fill="none" stroke="#63b8ff" d="M55.17,-32.54C64.95,-34.39 76.28,-36.53 87.07,-38.57"/>
<polygon fill="#63b8ff" stroke="#63b8ff" points="86.72,-42.07 97.2,-40.49 88.02,-35.19 86.72,-42.07"/>
</a>
</g>
</g>
<!-- Node3 -->
<g id="Node000003" class="node">
<title>Node3</title>
<g id="a_Node000003"><a xlink:href="logger_8c.html#a59c77d233157db1c24d6553a2567e442" target="_top" xlink:title="Close log file and cleanup resources.">
<polygon fill="white" stroke="#666666" points="169,-19 91,-19 91,0 169,0 169,-19"/>
<text text-anchor="middle" x="130" y="-7" font-family="Helvetica,sans-Serif" font-size="10.00">logger_close</text>
</a>
</g>
</g>
<!-- Node1&#45;&gt;Node3 -->
<g id="edge2_Node000001_Node000003" class="edge">
<title>Node1&#45;&gt;Node3</title>
<g id="a_edge2_Node000001_Node000003"><a xlink:title=" ">
<path fill="none" stroke="#63b8ff" d="M55.17,-22.72C63.11,-21.3 72.07,-19.7 80.94,-18.11"/>
<polygon fill="#63b8ff" stroke="#63b8ff" points="81.63,-21.54 90.86,-16.33 80.39,-14.65 81.63,-21.54"/>
</a>
</g>
</g>
</g>
</svg>
