<?xml version="1.0" encoding="UTF-8" standalone="no"?>
<!DOCTYPE svg PUBLIC "-//W3C//DTD SVG 1.1//EN"
 "http://www.w3.org/Graphics/SVG/1.1/DTD/svg11.dtd">
<!-- Generated by graphviz version 2.43.0 (0)
 -->
<!-- Title: safe_shutdown Pages: 1 -->
<svg width="303pt" height="64pt"
 viewBox="0.00 0.00 303.00 64.00" xmlns="http://www.w3.org/2000/svg" xmlns:xlink="http://www.w3.org/1999/xlink">
<g id="graph0" class="graph" transform="scale(1 1) rotate(0) translate(4 60)">
<title>safe_shutdown</title>
<!-- Node1 -->
<g id="Node000001" class="node">
<title>Node1</title>
<g id="a_Node000001"><a xlink:title="Wrapper signal handler for safe terminal restoration.">
<polygon fill="#999999" stroke="#666666" points="90,-37 0,-37 0,-18 90,-18 90,-37"/>
<text text-anchor="middle" x="45" y="-25" font-family="Helvetica,sans-Serif" font-size="10.00">safe_shutdown</text>
</a>
</g>
</g>
<!-- Node2 -->
<g id="Node000002" class="node">
<title>Node2</title>
<g id="a_Node000002"><a xlink:href="signals_8c.html#aa79b2985b495e6db8bf7675d0a32c3c5" target="_top" xlink:title="Cleanup handler for graceful system shutdown.">
<polygon fill="white" stroke="#666666" points="181,-37 126,-37 126,-18 181,-18 181,-37"/>
<text text-anchor="middle" x="153.5" y="-25" font-family="Helvetica,sans-Serif" font-size="10.00">cleanup</text>
</a>
</g>
</g>
<!-- Node1&#45;&gt;Node2 -->
<g id="edge1_Node000001_Node000002" class="edge">
<title>Node1&#45;&gt;Node2</title>
<g id="a_edge1_Node000001_Node000002"><a xlink:title=" ">
<path fill="none" stroke="#63b8ff" d="M90.24,-27.5C98.76,-27.5 107.6,-27.5 115.84,-27.5"/>
<polygon fill="#63b8ff" stroke="#63b8ff" points="115.9,-31 125.9,-27.5 115.9,-24 115.9,-31"/>
</a>
</g>
</g>
<!-- Node3 -->
<g id="Node000003" class="node">
<title>Node3</title>
<g id="a_Node000003"><a xlink:href="logger_8c.html#a5453dcbc4c790a4aea0e136877073d4d" target="_top" xlink:title="Write formatted log event to file with microsecond timestamp.">
<polygon fill="white" stroke="#666666" points="288.5,-56 223.5,-56 223.5,-37 288.5,-37 288.5,-56"/>
<text text-anchor="middle" x="256" y="-44" font-family="Helvetica,sans-Serif" font-size="10.00">log_event</text>
</a>
</g>
</g>
<!-- Node2&#45;&gt;Node3 -->
<g id="edge2_Node000002_Node000003" class="edge">
<title>Node2&#45;&gt;Node3</title>
<g id="a_edge2_Node000002_Node000003"><a xlink:title=" ">
<path fill="none" stroke="#63b8ff" d="M181.17,-32.54C190.95,-34.39 202.28,-36.53 213.07,-38.57"/>
<polygon fill="#63b8ff" stroke="#63b8ff" points="212.72,-42.07 223.2,-40.49 214.02,-35.19 212.72,-42.07"/>
</a>
</g>
</g>
<!-- Node4 -->
<g id="Node000004" class="node">
<title>Node4</title>
<g id="a_Node000004"><a xlink:href="logger_8c.html#a59c77d233157db1c24d6553a2567e442" target="_top" xlink:title="Close log file and cleanup resources.">
<polygon fill="white" stroke="#666666" points="295,-19 217,-19 217,0 295,0 295,-19"/>
<text text-anchor="middle" x="256" y="-7" font-family="Helvetica,sans-Serif" font-size="10.00">logger_close</text>
</a>
</g>
</g>
<!-- Node2&#45;&gt;Node4 -->
<g id="edge3_Node000002_Node000004" class="edge">
<title>Node2&#45;&gt;Node4</title>
<g id="a_edge3_Node000002_Node000004"><a xlink:title=" ">
<path fill="none" stroke="#63b8ff" d="M181.17,-22.72C189.11,-21.3 198.07,-19.7 206.94,-18.11"/>
<polygon fill="#63b8ff" stroke="#63b8ff" points="207.63,-21.54 216.86,-16.33 206.39,-14.65 207.63,-21.54"/>
</a>
</g>
</g>
</g>
</svg>
