<?xml version="1.0" encoding="UTF-8" standalone="no"?>
<!DOCTYPE svg PUBLIC "-//W3C//DTD SVG 1.1//EN"
 "http://www.w3.org/Graphics/SVG/1.1/DTD/svg11.dtd">
<!-- Generated by graphviz version 2.43.0 (0)
 -->
<!-- Title: ui_draw_workers_table Pages: 1 -->
<svg width="461pt" height="46pt"
 viewBox="0.00 0.00 461.00 46.00" xmlns="http://www.w3.org/2000/svg" xmlns:xlink="http://www.w3.org/1999/xlink">
<g id="graph0" class="graph" transform="scale(1 1) rotate(0) translate(4 42)">
<title>ui_draw_workers_table</title>
<!-- Node1 -->
<g id="Node000001" class="node">
<title>Node1</title>
<g id="a_Node000001"><a xlink:title="Draw worker statistics table with color&#45;coded status.">
<polygon fill="#999999" stroke="#666666" points="453,-38 325,-38 325,-19 453,-19 453,-38"/>
<text text-anchor="middle" x="389" y="-26" font-family="Helvetica,sans-Serif" font-size="10.00">ui_draw_workers_table</text>
</a>
</g>
</g>
<!-- Node2 -->
<g id="Node000002" class="node">
<title>Node2</title>
<g id="a_Node000002"><a xlink:href="UI_8c.html#ae631a5a3ad2c24dd944f5573487f98a3" target="_top" xlink:title="Draw complete dashboard (header + workers + logs)">
<polygon fill="white" stroke="#666666" points="289,-38 178,-38 178,-19 289,-19 289,-38"/>
<text text-anchor="middle" x="233.5" y="-26" font-family="Helvetica,sans-Serif" font-size="10.00">ui_draw_dashboard</text>
</a>
</g>
</g>
<!-- Node1&#45;&gt;Node2 -->
<g id="edge1_Node000001_Node000002" class="edge">
<title>Node1&#45;&gt;Node2</title>
<g id="a_edge1_Node000001_Node000002"><a xlink:title=" ">
<path fill="none" stroke="#63b8ff" d="M314.43,-28.5C305.98,-28.5 297.48,-28.5 289.34,-28.5"/>
<polygon fill="#63b8ff" stroke="#63b8ff" points="314.68,-32 324.68,-28.5 314.68,-25 314.68,-32"/>
</a>
</g>
</g>
<!-- Node3 -->
<g id="Node000003" class="node">
<title>Node3</title>
<g id="a_Node000003"><a xlink:href="main_8c.html#a840291bc02cba5474a4cb46a9b9566fe" target="_top" xlink:title="Main entry point for RT&#45;THM supervisor.">
<polygon fill="white" stroke="#666666" points="41,-38 0,-38 0,-19 41,-19 41,-38"/>
<text text-anchor="middle" x="20.5" y="-26" font-family="Helvetica,sans-Serif" font-size="10.00">main</text>
</a>
</g>
</g>
<!-- Node2&#45;&gt;Node3 -->
<g id="edge2_Node000002_Node000003" class="edge">
<title>Node2&#45;&gt;Node3</title>
<g id="a_edge2_Node000002_Node000003"><a xlink:title=" ">
<path fill="none" stroke="#63b8ff" d="M167.66,-28.5C124.2,-28.5 69.86,-28.5 41.24,-28.5"/>
<polygon fill="#63b8ff" stroke="#63b8ff" points="167.89,-32 177.89,-28.5 167.89,-25 167.89,-32"/>
</a>
</g>
</g>
<!-- Node4 -->
<g id="Node000004" class="node">
<title>Node4</title>
<g id="a_Node000004"><a xlink:href="UI_8c.html#a490ef24341463347d93ff0da36b17180" target="_top" xlink:title="Refresh entire dashboard display.">
<polygon fill="white" stroke="#666666" points="142,-19 77,-19 77,0 142,0 142,-19"/>
<text text-anchor="middle" x="109.5" y="-7" font-family="Helvetica,sans-Serif" font-size="10.00">ui_refresh</text>
</a>
</g>
</g>
<!-- Node2&#45;&gt;Node4 -->
<g id="edge3_Node000002_Node000004" class="edge">
<title>Node2&#45;&gt;Node4</title>
<g id="a_edge3_Node000002_Node000004"><a xlink:title=" ">
<path fill="none" stroke="#63b8ff" d="M167.89,-18.44C159.01,-17.06 150.23,-15.69 142.32,-14.45"/>
<polygon fill="#63b8ff" stroke="#63b8ff" points="167.5,-21.92 177.92,-20 168.58,-15 167.5,-21.92"/>
</a>
</g>
</g>
<!-- Node4&#45;&gt;Node3 -->
<g id="edge4_Node000004_Node000003" class="edge">
<title>Node4&#45;&gt;Node3</title>
<g id="a_edge4_Node000004_Node000003"><a xlink:title=" ">
<path fill="none" stroke="#63b8ff" d="M66.61,-18.65C57.66,-20.6 48.62,-22.58 41,-24.24"/>
<polygon fill="#63b8ff" stroke="#63b8ff" points="67.58,-22.02 76.6,-16.47 66.08,-15.18 67.58,-22.02"/>
</a>
</g>
</g>
</g>
</svg>
