<?xml version="1.0" encoding="UTF-8" standalone="no"?>
<!DOCTYPE svg PUBLIC "-//W3C//DTD SVG 1.1//EN"
 "http://www.w3.org/Graphics/SVG/1.1/DTD/svg11.dtd">
<!-- Generated by graphviz version 2.43.0 (0)
 -->
<!-- Title: include/UI.h Pages: 1 -->
<svg width="1218pt" height="137pt"
 viewBox="0.00 0.00 1217.50 137.00" xmlns="http://www.w3.org/2000/svg" xmlns:xlink="http://www.w3.org/1999/xlink">
<g id="graph0" class="graph" transform="scale(1 1) rotate(0) translate(4 133)">
<title>include/UI.h</title>
<!-- Node1 -->
<g id="Node000001" class="node">
<title>Node1</title>
<g id="a_Node000001"><a xlink:title=" ">
<polygon fill="#999999" stroke="#666666" points="1137,-129 1063,-129 1063,-110 1137,-110 1137,-129"/>
<text text-anchor="middle" x="1100" y="-117" font-family="Helvetica,sans-Serif" font-size="10.00">include/UI.h</text>
</a>
</g>
</g>
<!-- Node2 -->
<g id="Node000002" class="node">
<title>Node2</title>
<g id="a_Node000002"><a xlink:href="project_8h.html" target="_top" xlink:title="Main header for RT&#45;THM (Real&#45;Time Task &amp; Health Monitor)">
<polygon fill="white" stroke="#666666" points="660.5,-74 601.5,-74 601.5,-55 660.5,-55 660.5,-74"/>
<text text-anchor="middle" x="631" y="-62" font-family="Helvetica,sans-Serif" font-size="10.00">project.h</text>
</a>
</g>
</g>
<!-- Node1&#45;&gt;Node2 -->
<g id="edge1_Node000001_Node000002" class="edge">
<title>Node1&#45;&gt;Node2</title>
<g id="a_edge1_Node000001_Node000002"><a xlink:title=" ">
<path fill="none" stroke="#63b8ff" d="M1062.81,-114.3C975.9,-104.48 760.14,-80.09 670.76,-69.99"/>
<polygon fill="#63b8ff" stroke="#63b8ff" points="671.08,-66.51 660.75,-68.86 670.29,-73.46 671.08,-66.51"/>
</a>
</g>
</g>
<!-- Node17 -->
<g id="Node000017" class="node">
<title>Node17</title>
<g id="a_Node000017"><a xlink:title=" ">
<polygon fill="#e0e0e0" stroke="#999999" points="1128,-19 1072,-19 1072,0 1128,0 1128,-19"/>
<text text-anchor="middle" x="1100" y="-7" font-family="Helvetica,sans-Serif" font-size="10.00">stdarg.h</text>
</a>
</g>
</g>
<!-- Node1&#45;&gt;Node17 -->
<g id="edge19_Node000001_Node000017" class="edge">
<title>Node1&#45;&gt;Node17</title>
<g id="a_edge19_Node000001_Node000017"><a xlink:title=" ">
<path fill="none" stroke="#63b8ff" d="M1100,-109.66C1100,-92.17 1100,-52.8 1100,-29.27"/>
<polygon fill="#63b8ff" stroke="#63b8ff" points="1103.5,-29.16 1100,-19.16 1096.5,-29.16 1103.5,-29.16"/>
</a>
</g>
</g>
<!-- Node18 -->
<g id="Node000018" class="node">
<title>Node18</title>
<g id="a_Node000018"><a xlink:title=" ">
<polygon fill="#e0e0e0" stroke="#999999" points="1209.5,-19 1146.5,-19 1146.5,0 1209.5,0 1209.5,-19"/>
<text text-anchor="middle" x="1178" y="-7" font-family="Helvetica,sans-Serif" font-size="10.00">ncurses.h</text>
</a>
</g>
</g>
<!-- Node1&#45;&gt;Node18 -->
<g id="edge18_Node000001_Node000018" class="edge">
<title>Node1&#45;&gt;Node18</title>
<g id="a_edge18_Node000001_Node000018"><a xlink:title=" ">
<path fill="none" stroke="#63b8ff" d="M1106.38,-109.66C1119.36,-91.69 1149.01,-50.64 1165.81,-27.38"/>
<polygon fill="#63b8ff" stroke="#63b8ff" points="1168.73,-29.31 1171.75,-19.16 1163.05,-25.22 1168.73,-29.31"/>
</a>
</g>
</g>
<!-- Node3 -->
<g id="Node000003" class="node">
<title>Node3</title>
<g id="a_Node000003"><a xlink:title=" ">
<polygon fill="#e0e0e0" stroke="#999999" points="656,-19 606,-19 606,0 656,0 656,-19"/>
<text text-anchor="middle" x="631" y="-7" font-family="Helvetica,sans-Serif" font-size="10.00">stdio.h</text>
</a>
</g>
</g>
<!-- Node2&#45;&gt;Node3 -->
<g id="edge2_Node000002_Node000003" class="edge">
<title>Node2&#45;&gt;Node3</title>
<g id="a_edge2_Node000002_Node000003"><a xlink:title=" ">
<path fill="none" stroke="#63b8ff" d="M631,-54.75C631,-47.8 631,-37.85 631,-29.13"/>
<polygon fill="#63b8ff" stroke="#63b8ff" points="634.5,-29.09 631,-19.09 627.5,-29.09 634.5,-29.09"/>
</a>
</g>
</g>
<!-- Node4 -->
<g id="Node000004" class="node">
<title>Node4</title>
<g id="a_Node000004"><a xlink:title=" ">
<polygon fill="#e0e0e0" stroke="#999999" points="727.5,-19 674.5,-19 674.5,0 727.5,0 727.5,-19"/>
<text text-anchor="middle" x="701" y="-7" font-family="Helvetica,sans-Serif" font-size="10.00">stdlib.h</text>
</a>
</g>
</g>
<!-- Node2&#45;&gt;Node4 -->
<g id="edge3_Node000002_Node000004" class="edge">
<title>Node2&#45;&gt;Node4</title>
<g id="a_edge3_Node000002_Node000004"><a xlink:title=" ">
<path fill="none" stroke="#63b8ff" d="M642.25,-54.98C652.8,-47 668.8,-34.88 681.44,-25.31"/>
<polygon fill="#63b8ff" stroke="#63b8ff" points="683.69,-28 689.55,-19.17 679.46,-22.42 683.69,-28"/>
</a>
</g>
</g>
<!-- Node5 -->
<g id="Node000005" class="node">
<title>Node5</title>
<g id="a_Node000005"><a xlink:title=" ">
<polygon fill="#e0e0e0" stroke="#999999" points="802,-19 746,-19 746,0 802,0 802,-19"/>
<text text-anchor="middle" x="774" y="-7" font-family="Helvetica,sans-Serif" font-size="10.00">unistd.h</text>
</a>
</g>
</g>
<!-- Node2&#45;&gt;Node5 -->
<g id="edge4_Node000002_Node000005" class="edge">
<title>Node2&#45;&gt;Node5</title>
<g id="a_edge4_Node000002_Node000005"><a xlink:title=" ">
<path fill="none" stroke="#63b8ff" d="M653.98,-54.98C677.5,-46.27 714.29,-32.63 740.94,-22.75"/>
<polygon fill="#63b8ff" stroke="#63b8ff" points="742.45,-25.93 750.61,-19.17 740.01,-19.36 742.45,-25.93"/>
</a>
</g>
</g>
<!-- Node6 -->
<g id="Node000006" class="node">
<title>Node6</title>
<g id="a_Node000006"><a xlink:title=" ">
<polygon fill="#e0e0e0" stroke="#999999" points="892,-19 820,-19 820,0 892,0 892,-19"/>
<text text-anchor="middle" x="856" y="-7" font-family="Helvetica,sans-Serif" font-size="10.00">sys/types.h</text>
</a>
</g>
</g>
<!-- Node2&#45;&gt;Node6 -->
<g id="edge5_Node000002_Node000006" class="edge">
<title>Node2&#45;&gt;Node6</title>
<g id="a_edge5_Node000002_Node000006"><a xlink:title=" ">
<path fill="none" stroke="#63b8ff" d="M660.88,-56.46C698.92,-47.5 765.04,-31.93 809.65,-21.42"/>
<polygon fill="#63b8ff" stroke="#63b8ff" points="810.73,-24.76 819.66,-19.06 809.12,-17.95 810.73,-24.76"/>
</a>
</g>
</g>
<!-- Node7 -->
<g id="Node000007" class="node">
<title>Node7</title>
<g id="a_Node000007"><a xlink:title=" ">
<polygon fill="#e0e0e0" stroke="#999999" points="969.5,-19 910.5,-19 910.5,0 969.5,0 969.5,-19"/>
<text text-anchor="middle" x="940" y="-7" font-family="Helvetica,sans-Serif" font-size="10.00">sys/ipc.h</text>
</a>
</g>
</g>
<!-- Node2&#45;&gt;Node7 -->
<g id="edge6_Node000002_Node000007" class="edge">
<title>Node2&#45;&gt;Node7</title>
<g id="a_edge6_Node000002_Node000007"><a xlink:title=" ">
<path fill="none" stroke="#63b8ff" d="M660.65,-59.12C708.75,-51.91 806.96,-36.73 900.33,-19.04"/>
<polygon fill="#63b8ff" stroke="#63b8ff" points="901.05,-22.47 910.22,-17.15 899.74,-15.59 901.05,-22.47"/>
</a>
</g>
</g>
<!-- Node8 -->
<g id="Node000008" class="node">
<title>Node8</title>
<g id="a_Node000008"><a xlink:title=" ">
<polygon fill="#e0e0e0" stroke="#999999" points="1054,-19 988,-19 988,0 1054,0 1054,-19"/>
<text text-anchor="middle" x="1021" y="-7" font-family="Helvetica,sans-Serif" font-size="10.00">sys/shm.h</text>
</a>
</g>
</g>
<!-- Node2&#45;&gt;Node8 -->
<g id="edge7_Node000002_Node000008" class="edge">
<title>Node2&#45;&gt;Node8</title>
<g id="a_edge7_Node000002_Node000008"><a xlink:title=" ">
<path fill="none" stroke="#63b8ff" d="M660.81,-60.37C719.37,-54.06 853.77,-38.86 977.66,-18.94"/>
<polygon fill="#63b8ff" stroke="#63b8ff" points="978.39,-22.37 987.71,-17.31 977.27,-15.46 978.39,-22.37"/>
</a>
</g>
</g>
<!-- Node9 -->
<g id="Node000009" class="node">
<title>Node9</title>
<g id="a_Node000009"><a xlink:title=" ">
<polygon fill="#e0e0e0" stroke="#999999" points="66,-19 0,-19 0,0 66,0 66,-19"/>
<text text-anchor="middle" x="33" y="-7" font-family="Helvetica,sans-Serif" font-size="10.00">sys/sem.h</text>
</a>
</g>
</g>
<!-- Node2&#45;&gt;Node9 -->
<g id="edge8_Node000002_Node000009" class="edge">
<title>Node2&#45;&gt;Node9</title>
<g id="a_edge8_Node000002_Node000009"><a xlink:title=" ">
<path fill="none" stroke="#63b8ff" d="M601.33,-62.38C519.35,-59.01 282.73,-47.51 76.51,-19.05"/>
<polygon fill="#63b8ff" stroke="#63b8ff" points="76.8,-15.55 66.41,-17.64 75.83,-22.49 76.8,-15.55"/>
</a>
</g>
</g>
<!-- Node10 -->
<g id="Node000010" class="node">
<title>Node10</title>
<g id="a_Node000010"><a xlink:title=" ">
<polygon fill="#e0e0e0" stroke="#999999" points="150,-19 84,-19 84,0 150,0 150,-19"/>
<text text-anchor="middle" x="117" y="-7" font-family="Helvetica,sans-Serif" font-size="10.00">sys/wait.h</text>
</a>
</g>
</g>
<!-- Node2&#45;&gt;Node10 -->
<g id="edge9_Node000002_Node000010" class="edge">
<title>Node2&#45;&gt;Node10</title>
<g id="a_edge9_Node000002_Node000010"><a xlink:title=" ">
<path fill="none" stroke="#63b8ff" d="M601.32,-61.8C528.12,-57.36 332.93,-44.12 160.43,-19.07"/>
<polygon fill="#63b8ff" stroke="#63b8ff" points="160.82,-15.58 150.41,-17.59 159.8,-22.51 160.82,-15.58"/>
</a>
</g>
</g>
<!-- Node11 -->
<g id="Node000011" class="node">
<title>Node11</title>
<g id="a_Node000011"><a xlink:title=" ">
<polygon fill="#e0e0e0" stroke="#999999" points="223.5,-19 168.5,-19 168.5,0 223.5,0 223.5,-19"/>
<text text-anchor="middle" x="196" y="-7" font-family="Helvetica,sans-Serif" font-size="10.00">signal.h</text>
</a>
</g>
</g>
<!-- Node2&#45;&gt;Node11 -->
<g id="edge10_Node000002_Node000011" class="edge">
<title>Node2&#45;&gt;Node11</title>
<g id="a_edge10_Node000002_Node000011"><a xlink:title=" ">
<path fill="none" stroke="#63b8ff" d="M601.38,-61.35C536.55,-56.41 377.12,-42.9 233.67,-18.92"/>
<polygon fill="#63b8ff" stroke="#63b8ff" points="234.26,-15.47 223.81,-17.25 233.09,-22.37 234.26,-15.47"/>
</a>
</g>
</g>
<!-- Node12 -->
<g id="Node000012" class="node">
<title>Node12</title>
<g id="a_Node000012"><a xlink:title=" ">
<polygon fill="#e0e0e0" stroke="#999999" points="290,-19 242,-19 242,0 290,0 290,-19"/>
<text text-anchor="middle" x="266" y="-7" font-family="Helvetica,sans-Serif" font-size="10.00">time.h</text>
</a>
</g>
</g>
<!-- Node2&#45;&gt;Node12 -->
<g id="edge11_Node000002_Node000012" class="edge">
<title>Node2&#45;&gt;Node12</title>
<g id="a_edge11_Node000002_Node000012"><a xlink:title=" ">
<path fill="none" stroke="#63b8ff" d="M601.5,-60.74C544.89,-55.18 416.98,-41.38 299.92,-18.96"/>
<polygon fill="#63b8ff" stroke="#63b8ff" points="300.56,-15.52 290.08,-17.05 299.22,-22.4 300.56,-15.52"/>
</a>
</g>
</g>
<!-- Node13 -->
<g id="Node000013" class="node">
<title>Node13</title>
<g id="a_Node000013"><a xlink:title=" ">
<polygon fill="#e0e0e0" stroke="#999999" points="376,-19 308,-19 308,0 376,0 376,-19"/>
<text text-anchor="middle" x="342" y="-7" font-family="Helvetica,sans-Serif" font-size="10.00">sys/time.h</text>
</a>
</g>
</g>
<!-- Node2&#45;&gt;Node13 -->
<g id="edge12_Node000002_Node000013" class="edge">
<title>Node2&#45;&gt;Node13</title>
<g id="a_edge12_Node000002_Node000013"><a xlink:title=" ">
<path fill="none" stroke="#63b8ff" d="M601.44,-58.31C556.97,-50.47 469.99,-35.01 386.19,-19.2"/>
<polygon fill="#63b8ff" stroke="#63b8ff" points="386.73,-15.74 376.26,-17.32 385.43,-22.62 386.73,-15.74"/>
</a>
</g>
</g>
<!-- Node14 -->
<g id="Node000014" class="node">
<title>Node14</title>
<g id="a_Node000014"><a xlink:title=" ">
<polygon fill="#e0e0e0" stroke="#999999" points="445.5,-19 394.5,-19 394.5,0 445.5,0 445.5,-19"/>
<text text-anchor="middle" x="420" y="-7" font-family="Helvetica,sans-Serif" font-size="10.00">errno.h</text>
</a>
</g>
</g>
<!-- Node2&#45;&gt;Node14 -->
<g id="edge13_Node000002_Node000014" class="edge">
<title>Node2&#45;&gt;Node14</title>
<g id="a_edge13_Node000002_Node000014"><a xlink:title=" ">
<path fill="none" stroke="#63b8ff" d="M601.22,-56.02C562.89,-46.39 496.38,-29.68 455.47,-19.41"/>
<polygon fill="#63b8ff" stroke="#63b8ff" points="456.21,-15.99 445.66,-16.95 454.51,-22.78 456.21,-15.99"/>
</a>
</g>
</g>
<!-- Node15 -->
<g id="Node000015" class="node">
<title>Node15</title>
<g id="a_Node000015"><a xlink:title=" ">
<polygon fill="#e0e0e0" stroke="#999999" points="516.5,-19 463.5,-19 463.5,0 516.5,0 516.5,-19"/>
<text text-anchor="middle" x="490" y="-7" font-family="Helvetica,sans-Serif" font-size="10.00">string.h</text>
</a>
</g>
</g>
<!-- Node2&#45;&gt;Node15 -->
<g id="edge14_Node000002_Node000015" class="edge">
<title>Node2&#45;&gt;Node15</title>
<g id="a_edge14_Node000002_Node000015"><a xlink:title=" ">
<path fill="none" stroke="#63b8ff" d="M608.35,-54.98C585.15,-46.27 548.88,-32.63 522.6,-22.75"/>
<polygon fill="#63b8ff" stroke="#63b8ff" points="523.66,-19.41 513.07,-19.17 521.2,-25.97 523.66,-19.41"/>
</a>
</g>
</g>
<!-- Node16 -->
<g id="Node000016" class="node">
<title>Node16</title>
<g id="a_Node000016"><a xlink:title=" ">
<polygon fill="#e0e0e0" stroke="#999999" points="587.5,-19 534.5,-19 534.5,0 587.5,0 587.5,-19"/>
<text text-anchor="middle" x="561" y="-7" font-family="Helvetica,sans-Serif" font-size="10.00">ctype.h</text>
</a>
</g>
</g>
<!-- Node2&#45;&gt;Node16 -->
<g id="edge15_Node000002_Node000016" class="edge">
<title>Node2&#45;&gt;Node16</title>
<g id="a_edge15_Node000002_Node000016"><a xlink:title=" ">
<path fill="none" stroke="#63b8ff" d="M619.75,-54.98C609.2,-47 593.2,-34.88 580.56,-25.31"/>
<polygon fill="#63b8ff" stroke="#63b8ff" points="582.54,-22.42 572.45,-19.17 578.31,-28 582.54,-22.42"/>
</a>
</g>
</g>
<!-- Node2&#45;&gt;Node17 -->
<g id="edge16_Node000002_Node000017" class="edge">
<title>Node2&#45;&gt;Node17</title>
<g id="a_edge16_Node000002_Node000017"><a xlink:title=" ">
<path fill="none" stroke="#63b8ff" d="M660.76,-61.7C729.58,-57.28 905.17,-44.44 1061.52,-19.05"/>
<polygon fill="#63b8ff" stroke="#63b8ff" points="1062.49,-22.44 1071.79,-17.36 1061.35,-15.53 1062.49,-22.44"/>
</a>
</g>
</g>
<!-- Node2&#45;&gt;Node18 -->
<g id="edge17_Node000002_Node000018" class="edge">
<title>Node2&#45;&gt;Node18</title>
<g id="a_edge17_Node000002_Node000018"><a xlink:title=" ">
<path fill="none" stroke="#63b8ff" d="M660.51,-62.11C737.24,-58.24 949.42,-45.92 1136.28,-18.92"/>
<polygon fill="#63b8ff" stroke="#63b8ff" points="1136.89,-22.37 1146.28,-17.46 1135.88,-15.44 1136.89,-22.37"/>
</a>
</g>
</g>
</g>
</svg>
