<?xml version="1.0" encoding="UTF-8" standalone="no"?>
<!DOCTYPE svg PUBLIC "-//W3C//DTD SVG 1.1//EN"
 "http://www.w3.org/Graphics/SVG/1.1/DTD/svg11.dtd">
<!-- Generated by graphviz version 2.43.0 (0)
 -->
<!-- Title: src/UI.c Pages: 1 -->
<svg width="1219pt" height="192pt"
 viewBox="0.00 0.00 1218.50 192.00" xmlns="http://www.w3.org/2000/svg" xmlns:xlink="http://www.w3.org/1999/xlink">
<g id="graph0" class="graph" transform="scale(1 1) rotate(0) translate(4 188)">
<title>src/UI.c</title>
<!-- Node1 -->
<g id="Node000001" class="node">
<title>Node1</title>
<g id="a_Node000001"><a xlink:title="Ncurses dashboard implementation for RT&#45;THM.">
<polygon fill="#999999" stroke="#666666" points="947.5,-184 894.5,-184 894.5,-165 947.5,-165 947.5,-184"/>
<text text-anchor="middle" x="921" y="-172" font-family="Helvetica,sans-Serif" font-size="10.00">src/UI.c</text>
</a>
</g>
</g>
<!-- Node2 -->
<g id="Node000002" class="node">
<title>Node2</title>
<g id="a_Node000002"><a xlink:href="project_8h.html" target="_top" xlink:title="Main header for RT&#45;THM (Real&#45;Time Task &amp; Health Monitor)">
<polygon fill="white" stroke="#666666" points="742.5,-74 683.5,-74 683.5,-55 742.5,-55 742.5,-74"/>
<text text-anchor="middle" x="713" y="-62" font-family="Helvetica,sans-Serif" font-size="10.00">project.h</text>
</a>
</g>
</g>
<!-- Node1&#45;&gt;Node2 -->
<g id="edge1_Node000001_Node000002" class="edge">
<title>Node1&#45;&gt;Node2</title>
<g id="a_edge1_Node000001_Node000002"><a xlink:title=" ">
<path fill="none" stroke="#63b8ff" d="M894.44,-170.53C848.13,-164.84 755.31,-150.96 732,-129 719.84,-117.54 715.36,-98.66 713.76,-84.45"/>
<polygon fill="#63b8ff" stroke="#63b8ff" points="717.24,-84.01 713.01,-74.3 710.26,-84.53 717.24,-84.01"/>
</a>
</g>
</g>
<!-- Node5 -->
<g id="Node000005" class="node">
<title>Node5</title>
<g id="a_Node000005"><a xlink:title=" ">
<polygon fill="#e0e0e0" stroke="#999999" points="56,-19 0,-19 0,0 56,0 56,-19"/>
<text text-anchor="middle" x="28" y="-7" font-family="Helvetica,sans-Serif" font-size="10.00">unistd.h</text>
</a>
</g>
</g>
<!-- Node1&#45;&gt;Node5 -->
<g id="edge23_Node000001_Node000005" class="edge">
<title>Node1&#45;&gt;Node5</title>
<g id="a_edge23_Node000001_Node000005"><a xlink:title=" ">
<path fill="none" stroke="#63b8ff" d="M894.29,-169.15C789.74,-152.03 398.21,-87 66.06,-19.14"/>
<polygon fill="#63b8ff" stroke="#63b8ff" points="66.75,-15.71 56.25,-17.13 65.35,-22.57 66.75,-15.71"/>
</a>
</g>
</g>
<!-- Node12 -->
<g id="Node000012" class="node">
<title>Node12</title>
<g id="a_Node000012"><a xlink:title=" ">
<polygon fill="#e0e0e0" stroke="#999999" points="897,-19 849,-19 849,0 897,0 897,-19"/>
<text text-anchor="middle" x="873" y="-7" font-family="Helvetica,sans-Serif" font-size="10.00">time.h</text>
</a>
</g>
</g>
<!-- Node1&#45;&gt;Node12 -->
<g id="edge26_Node000001_Node000012" class="edge">
<title>Node1&#45;&gt;Node12</title>
<g id="a_edge26_Node000001_Node000012"><a xlink:title=" ">
<path fill="none" stroke="#63b8ff" d="M918.42,-164.74C910.9,-139.2 888.88,-64.43 878.52,-29.23"/>
<polygon fill="#63b8ff" stroke="#63b8ff" points="881.78,-27.91 875.59,-19.31 875.06,-29.89 881.78,-27.91"/>
</a>
</g>
</g>
<!-- Node13 -->
<g id="Node000013" class="node">
<title>Node13</title>
<g id="a_Node000013"><a xlink:title=" ">
<polygon fill="#e0e0e0" stroke="#999999" points="983,-19 915,-19 915,0 983,0 983,-19"/>
<text text-anchor="middle" x="949" y="-7" font-family="Helvetica,sans-Serif" font-size="10.00">sys/time.h</text>
</a>
</g>
</g>
<!-- Node1&#45;&gt;Node13 -->
<g id="edge27_Node000001_Node000013" class="edge">
<title>Node1&#45;&gt;Node13</title>
<g id="a_edge27_Node000001_Node000013"><a xlink:title=" ">
<path fill="none" stroke="#63b8ff" d="M922.51,-164.74C926.89,-139.2 939.74,-64.43 945.78,-29.23"/>
<polygon fill="#63b8ff" stroke="#63b8ff" points="949.24,-29.76 947.49,-19.31 942.34,-28.57 949.24,-29.76"/>
</a>
</g>
</g>
<!-- Node15 -->
<g id="Node000015" class="node">
<title>Node15</title>
<g id="a_Node000015"><a xlink:title=" ">
<polygon fill="#e0e0e0" stroke="#999999" points="1054.5,-19 1001.5,-19 1001.5,0 1054.5,0 1054.5,-19"/>
<text text-anchor="middle" x="1028" y="-7" font-family="Helvetica,sans-Serif" font-size="10.00">string.h</text>
</a>
</g>
</g>
<!-- Node1&#45;&gt;Node15 -->
<g id="edge28_Node000001_Node000015" class="edge">
<title>Node1&#45;&gt;Node15</title>
<g id="a_edge28_Node000001_Node000015"><a xlink:title=" ">
<path fill="none" stroke="#63b8ff" d="M925.5,-164.8C939.46,-137.87 981.16,-57.49 983,-55 990.8,-44.45 1001.12,-34.05 1009.9,-25.97"/>
<polygon fill="#63b8ff" stroke="#63b8ff" points="1012.3,-28.53 1017.43,-19.26 1007.64,-23.3 1012.3,-28.53"/>
</a>
</g>
</g>
<!-- Node17 -->
<g id="Node000017" class="node">
<title>Node17</title>
<g id="a_Node000017"><a xlink:title=" ">
<polygon fill="#e0e0e0" stroke="#999999" points="1129,-19 1073,-19 1073,0 1129,0 1129,-19"/>
<text text-anchor="middle" x="1101" y="-7" font-family="Helvetica,sans-Serif" font-size="10.00">stdarg.h</text>
</a>
</g>
</g>
<!-- Node1&#45;&gt;Node17 -->
<g id="edge24_Node000001_Node000017" class="edge">
<title>Node1&#45;&gt;Node17</title>
<g id="a_edge24_Node000001_Node000017"><a xlink:title=" ">
<path fill="none" stroke="#63b8ff" d="M929.61,-164.85C938.28,-156.05 951.91,-141.88 963,-129 990.26,-97.33 989.22,-82.14 1021,-55 1036.01,-42.18 1055.29,-31.32 1071.16,-23.54"/>
<polygon fill="#63b8ff" stroke="#63b8ff" points="1072.99,-26.55 1080.54,-19.11 1070,-20.22 1072.99,-26.55"/>
</a>
</g>
</g>
<!-- Node18 -->
<g id="Node000018" class="node">
<title>Node18</title>
<g id="a_Node000018"><a xlink:title=" ">
<polygon fill="#e0e0e0" stroke="#999999" points="1210.5,-19 1147.5,-19 1147.5,0 1210.5,0 1210.5,-19"/>
<text text-anchor="middle" x="1179" y="-7" font-family="Helvetica,sans-Serif" font-size="10.00">ncurses.h</text>
</a>
</g>
</g>
<!-- Node1&#45;&gt;Node18 -->
<g id="edge25_Node000001_Node000018" class="edge">
<title>Node1&#45;&gt;Node18</title>
<g id="a_edge25_Node000001_Node000018"><a xlink:title=" ">
<path fill="none" stroke="#63b8ff" d="M934.51,-164.97C976.47,-138.46 1104.85,-57.35 1156.82,-24.52"/>
<polygon fill="#63b8ff" stroke="#63b8ff" points="1158.73,-27.45 1165.31,-19.15 1154.99,-21.53 1158.73,-27.45"/>
</a>
</g>
</g>
<!-- Node19 -->
<g id="Node000019" class="node">
<title>Node19</title>
<g id="a_Node000019"><a xlink:href="ipc_8h.html" target="_top" xlink:title="IPC utilities for RT&#45;THM (Shared Memory &amp; Semaphores)">
<polygon fill="white" stroke="#666666" points="781,-129 741,-129 741,-110 781,-110 781,-129"/>
<text text-anchor="middle" x="761" y="-117" font-family="Helvetica,sans-Serif" font-size="10.00">ipc.h</text>
</a>
</g>
</g>
<!-- Node1&#45;&gt;Node19 -->
<g id="edge18_Node000001_Node000019" class="edge">
<title>Node1&#45;&gt;Node19</title>
<g id="a_edge18_Node000001_Node000019"><a xlink:title=" ">
<path fill="none" stroke="#63b8ff" d="M895.29,-164.98C866.72,-155.52 820.66,-140.26 790.6,-130.31"/>
<polygon fill="#63b8ff" stroke="#63b8ff" points="791.67,-126.97 781.07,-127.15 789.46,-133.62 791.67,-126.97"/>
</a>
</g>
</g>
<!-- Node20 -->
<g id="Node000020" class="node">
<title>Node20</title>
<g id="a_Node000020"><a xlink:href="config_8h.html" target="_top" xlink:title="Configuration parser for RT&#45;THM.">
<polygon fill="white" stroke="#666666" points="854.5,-129 799.5,-129 799.5,-110 854.5,-110 854.5,-129"/>
<text text-anchor="middle" x="827" y="-117" font-family="Helvetica,sans-Serif" font-size="10.00">config.h</text>
</a>
</g>
</g>
<!-- Node1&#45;&gt;Node20 -->
<g id="edge20_Node000001_Node000020" class="edge">
<title>Node1&#45;&gt;Node20</title>
<g id="a_edge20_Node000001_Node000020"><a xlink:title=" ">
<path fill="none" stroke="#63b8ff" d="M905.9,-164.98C891.18,-156.69 868.58,-143.94 851.33,-134.22"/>
<polygon fill="#63b8ff" stroke="#63b8ff" points="852.81,-131.03 842.38,-129.17 849.37,-137.13 852.81,-131.03"/>
</a>
</g>
</g>
<!-- Node21 -->
<g id="Node000021" class="node">
<title>Node21</title>
<g id="a_Node000021"><a xlink:title=" ">
<polygon fill="#e0e0e0" stroke="#999999" points="1098.5,-129 1063.5,-129 1063.5,-110 1098.5,-110 1098.5,-129"/>
<text text-anchor="middle" x="1081" y="-117" font-family="Helvetica,sans-Serif" font-size="10.00">ui.h</text>
</a>
</g>
</g>
<!-- Node1&#45;&gt;Node21 -->
<g id="edge22_Node000001_Node000021" class="edge">
<title>Node1&#45;&gt;Node21</title>
<g id="a_edge22_Node000001_Node000021"><a xlink:title=" ">
<path fill="none" stroke="#63b8ff" d="M946.71,-164.98C975.94,-155.3 1023.5,-139.55 1053.47,-129.62"/>
<polygon fill="#63b8ff" stroke="#63b8ff" points="1054.89,-132.84 1063.28,-126.37 1052.69,-126.19 1054.89,-132.84"/>
</a>
</g>
</g>
<!-- Node22 -->
<g id="Node000022" class="node">
<title>Node22</title>
<g id="a_Node000022"><a xlink:title=" ">
<polygon fill="#e0e0e0" stroke="#999999" points="1179.5,-129 1116.5,-129 1116.5,-110 1179.5,-110 1179.5,-129"/>
<text text-anchor="middle" x="1148" y="-117" font-family="Helvetica,sans-Serif" font-size="10.00">pthread.h</text>
</a>
</g>
</g>
<!-- Node1&#45;&gt;Node22 -->
<g id="edge29_Node000001_Node000022" class="edge">
<title>Node1&#45;&gt;Node22</title>
<g id="a_edge29_Node000001_Node000022"><a xlink:title=" ">
<path fill="none" stroke="#63b8ff" d="M947.93,-167.21C987.13,-158.06 1060.24,-140.99 1106.39,-130.21"/>
<polygon fill="#63b8ff" stroke="#63b8ff" points="1107.43,-133.57 1116.38,-127.88 1105.84,-126.75 1107.43,-133.57"/>
</a>
</g>
</g>
<!-- Node3 -->
<g id="Node000003" class="node">
<title>Node3</title>
<g id="a_Node000003"><a xlink:title=" ">
<polygon fill="#e0e0e0" stroke="#999999" points="265,-19 215,-19 215,0 265,0 265,-19"/>
<text text-anchor="middle" x="240" y="-7" font-family="Helvetica,sans-Serif" font-size="10.00">stdio.h</text>
</a>
</g>
</g>
<!-- Node2&#45;&gt;Node3 -->
<g id="edge2_Node000002_Node000003" class="edge">
<title>Node2&#45;&gt;Node3</title>
<g id="a_edge2_Node000002_Node000003"><a xlink:title=" ">
<path fill="none" stroke="#63b8ff" d="M683.25,-61.97C613.56,-58.06 434.18,-46.17 275.13,-18.95"/>
<polygon fill="#63b8ff" stroke="#63b8ff" points="275.62,-15.48 265.16,-17.22 274.42,-22.38 275.62,-15.48"/>
</a>
</g>
</g>
<!-- Node4 -->
<g id="Node000004" class="node">
<title>Node4</title>
<g id="a_Node000004"><a xlink:title=" ">
<polygon fill="#e0e0e0" stroke="#999999" points="336.5,-19 283.5,-19 283.5,0 336.5,0 336.5,-19"/>
<text text-anchor="middle" x="310" y="-7" font-family="Helvetica,sans-Serif" font-size="10.00">stdlib.h</text>
</a>
</g>
</g>
<!-- Node2&#45;&gt;Node4 -->
<g id="edge3_Node000002_Node000004" class="edge">
<title>Node2&#45;&gt;Node4</title>
<g id="a_edge3_Node000002_Node000004"><a xlink:title=" ">
<path fill="none" stroke="#63b8ff" d="M683.34,-61.03C622.3,-55.71 478.05,-41.9 346.89,-18.96"/>
<polygon fill="#63b8ff" stroke="#63b8ff" points="347.12,-15.44 336.67,-17.15 345.9,-22.34 347.12,-15.44"/>
</a>
</g>
</g>
<!-- Node2&#45;&gt;Node5 -->
<g id="edge4_Node000002_Node000005" class="edge">
<title>Node2&#45;&gt;Node5</title>
<g id="a_edge4_Node000002_Node000005"><a xlink:title=" ">
<path fill="none" stroke="#63b8ff" d="M683.44,-63.12C592.62,-61.61 309.64,-54.31 66.29,-18.94"/>
<polygon fill="#63b8ff" stroke="#63b8ff" points="66.6,-15.45 56.19,-17.46 65.58,-22.38 66.6,-15.45"/>
</a>
</g>
</g>
<!-- Node6 -->
<g id="Node000006" class="node">
<title>Node6</title>
<g id="a_Node000006"><a xlink:title=" ">
<polygon fill="#e0e0e0" stroke="#999999" points="427,-19 355,-19 355,0 427,0 427,-19"/>
<text text-anchor="middle" x="391" y="-7" font-family="Helvetica,sans-Serif" font-size="10.00">sys/types.h</text>
</a>
</g>
</g>
<!-- Node2&#45;&gt;Node6 -->
<g id="edge5_Node000002_Node000006" class="edge">
<title>Node2&#45;&gt;Node6</title>
<g id="a_edge5_Node000002_Node000006"><a xlink:title=" ">
<path fill="none" stroke="#63b8ff" d="M683.44,-59.02C634.47,-51.55 533.2,-35.84 437.47,-19.22"/>
<polygon fill="#63b8ff" stroke="#63b8ff" points="437.79,-15.72 427.33,-17.45 436.58,-22.62 437.79,-15.72"/>
</a>
</g>
</g>
<!-- Node7 -->
<g id="Node000007" class="node">
<title>Node7</title>
<g id="a_Node000007"><a xlink:title=" ">
<polygon fill="#e0e0e0" stroke="#999999" points="504.5,-19 445.5,-19 445.5,0 504.5,0 504.5,-19"/>
<text text-anchor="middle" x="475" y="-7" font-family="Helvetica,sans-Serif" font-size="10.00">sys/ipc.h</text>
</a>
</g>
</g>
<!-- Node2&#45;&gt;Node7 -->
<g id="edge6_Node000002_Node000007" class="edge">
<title>Node2&#45;&gt;Node7</title>
<g id="a_edge6_Node000002_Node000007"><a xlink:title=" ">
<path fill="none" stroke="#63b8ff" d="M683.34,-56.89C640.73,-47.41 562.12,-29.9 514.59,-19.32"/>
<polygon fill="#63b8ff" stroke="#63b8ff" points="515.18,-15.86 504.66,-17.11 513.66,-22.7 515.18,-15.86"/>
</a>
</g>
</g>
<!-- Node8 -->
<g id="Node000008" class="node">
<title>Node8</title>
<g id="a_Node000008"><a xlink:title=" ">
<polygon fill="#e0e0e0" stroke="#999999" points="589,-19 523,-19 523,0 589,0 589,-19"/>
<text text-anchor="middle" x="556" y="-7" font-family="Helvetica,sans-Serif" font-size="10.00">sys/shm.h</text>
</a>
</g>
</g>
<!-- Node2&#45;&gt;Node8 -->
<g id="edge7_Node000002_Node000008" class="edge">
<title>Node2&#45;&gt;Node8</title>
<g id="a_edge7_Node000002_Node000008"><a xlink:title=" ">
<path fill="none" stroke="#63b8ff" d="M687.78,-54.98C661.64,-46.16 620.6,-32.31 591.27,-22.41"/>
<polygon fill="#63b8ff" stroke="#63b8ff" points="592.02,-18.96 581.42,-19.08 589.78,-25.6 592.02,-18.96"/>
</a>
</g>
</g>
<!-- Node9 -->
<g id="Node000009" class="node">
<title>Node9</title>
<g id="a_Node000009"><a xlink:title=" ">
<polygon fill="#e0e0e0" stroke="#999999" points="673,-19 607,-19 607,0 673,0 673,-19"/>
<text text-anchor="middle" x="640" y="-7" font-family="Helvetica,sans-Serif" font-size="10.00">sys/sem.h</text>
</a>
</g>
</g>
<!-- Node2&#45;&gt;Node9 -->
<g id="edge8_Node000002_Node000009" class="edge">
<title>Node2&#45;&gt;Node9</title>
<g id="a_edge8_Node000002_Node000009"><a xlink:title=" ">
<path fill="none" stroke="#63b8ff" d="M701.27,-54.98C690.27,-47 673.58,-34.88 660.4,-25.31"/>
<polygon fill="#63b8ff" stroke="#63b8ff" points="662.09,-22.21 651.94,-19.17 657.98,-27.88 662.09,-22.21"/>
</a>
</g>
</g>
<!-- Node10 -->
<g id="Node000010" class="node">
<title>Node10</title>
<g id="a_Node000010"><a xlink:title=" ">
<polygon fill="#e0e0e0" stroke="#999999" points="757,-19 691,-19 691,0 757,0 757,-19"/>
<text text-anchor="middle" x="724" y="-7" font-family="Helvetica,sans-Serif" font-size="10.00">sys/wait.h</text>
</a>
</g>
</g>
<!-- Node2&#45;&gt;Node10 -->
<g id="edge9_Node000002_Node000010" class="edge">
<title>Node2&#45;&gt;Node10</title>
<g id="a_edge9_Node000002_Node000010"><a xlink:title=" ">
<path fill="none" stroke="#63b8ff" d="M714.82,-54.75C716.26,-47.8 718.32,-37.85 720.13,-29.13"/>
<polygon fill="#63b8ff" stroke="#63b8ff" points="723.61,-29.59 722.22,-19.09 716.76,-28.17 723.61,-29.59"/>
</a>
</g>
</g>
<!-- Node11 -->
<g id="Node000011" class="node">
<title>Node11</title>
<g id="a_Node000011"><a xlink:title=" ">
<polygon fill="#e0e0e0" stroke="#999999" points="830.5,-19 775.5,-19 775.5,0 830.5,0 830.5,-19"/>
<text text-anchor="middle" x="803" y="-7" font-family="Helvetica,sans-Serif" font-size="10.00">signal.h</text>
</a>
</g>
</g>
<!-- Node2&#45;&gt;Node11 -->
<g id="edge10_Node000002_Node000011" class="edge">
<title>Node2&#45;&gt;Node11</title>
<g id="a_edge10_Node000002_Node000011"><a xlink:title=" ">
<path fill="none" stroke="#63b8ff" d="M727.46,-54.98C741.42,-46.77 762.79,-34.18 779.25,-24.49"/>
<polygon fill="#63b8ff" stroke="#63b8ff" points="781.44,-27.26 788.28,-19.17 777.88,-21.23 781.44,-27.26"/>
</a>
</g>
</g>
<!-- Node2&#45;&gt;Node12 -->
<g id="edge11_Node000002_Node000012" class="edge">
<title>Node2&#45;&gt;Node12</title>
<g id="a_edge11_Node000002_Node000012"><a xlink:title=" ">
<path fill="none" stroke="#63b8ff" d="M738.71,-54.98C766.01,-45.94 809.28,-31.61 839.3,-21.66"/>
<polygon fill="#63b8ff" stroke="#63b8ff" points="840.54,-24.94 848.93,-18.47 838.33,-18.3 840.54,-24.94"/>
</a>
</g>
</g>
<!-- Node2&#45;&gt;Node13 -->
<g id="edge12_Node000002_Node000013" class="edge">
<title>Node2&#45;&gt;Node13</title>
<g id="a_edge12_Node000002_Node000013"><a xlink:title=" ">
<path fill="none" stroke="#63b8ff" d="M742.89,-56.79C783.8,-47.6 857.52,-31.04 904.81,-20.42"/>
<polygon fill="#63b8ff" stroke="#63b8ff" points="905.78,-23.79 914.77,-18.19 904.25,-16.96 905.78,-23.79"/>
</a>
</g>
</g>
<!-- Node14 -->
<g id="Node000014" class="node">
<title>Node14</title>
<g id="a_Node000014"><a xlink:title=" ">
<polygon fill="#e0e0e0" stroke="#999999" points="125.5,-19 74.5,-19 74.5,0 125.5,0 125.5,-19"/>
<text text-anchor="middle" x="100" y="-7" font-family="Helvetica,sans-Serif" font-size="10.00">errno.h</text>
</a>
</g>
</g>
<!-- Node2&#45;&gt;Node14 -->
<g id="edge13_Node000002_Node000014" class="edge">
<title>Node2&#45;&gt;Node14</title>
<g id="a_edge13_Node000002_Node000014"><a xlink:title=" ">
<path fill="none" stroke="#63b8ff" d="M683.27,-62.98C598.8,-61.12 350.17,-53.07 135.4,-18.96"/>
<polygon fill="#63b8ff" stroke="#63b8ff" points="135.95,-15.51 125.52,-17.37 134.84,-22.42 135.95,-15.51"/>
</a>
</g>
</g>
<!-- Node2&#45;&gt;Node15 -->
<g id="edge14_Node000002_Node000015" class="edge">
<title>Node2&#45;&gt;Node15</title>
<g id="a_edge14_Node000002_Node000015"><a xlink:title=" ">
<path fill="none" stroke="#63b8ff" d="M742.86,-59.47C792.35,-52.64 894.68,-37.85 991.37,-18.99"/>
<polygon fill="#63b8ff" stroke="#63b8ff" points="992.18,-22.4 1001.31,-17.03 990.82,-15.53 992.18,-22.4"/>
</a>
</g>
</g>
<!-- Node16 -->
<g id="Node000016" class="node">
<title>Node16</title>
<g id="a_Node000016"><a xlink:title=" ">
<polygon fill="#e0e0e0" stroke="#999999" points="196.5,-19 143.5,-19 143.5,0 196.5,0 196.5,-19"/>
<text text-anchor="middle" x="170" y="-7" font-family="Helvetica,sans-Serif" font-size="10.00">ctype.h</text>
</a>
</g>
</g>
<!-- Node2&#45;&gt;Node16 -->
<g id="edge15_Node000002_Node000016" class="edge">
<title>Node2&#45;&gt;Node16</title>
<g id="a_edge15_Node000002_Node000016"><a xlink:title=" ">
<path fill="none" stroke="#63b8ff" d="M683.38,-62.39C606.4,-59.21 393.58,-48.37 206.66,-18.85"/>
<polygon fill="#63b8ff" stroke="#63b8ff" points="207.08,-15.37 196.65,-17.24 205.97,-22.28 207.08,-15.37"/>
</a>
</g>
</g>
<!-- Node2&#45;&gt;Node17 -->
<g id="edge16_Node000002_Node000017" class="edge">
<title>Node2&#45;&gt;Node17</title>
<g id="a_edge16_Node000002_Node000017"><a xlink:title=" ">
<path fill="none" stroke="#63b8ff" d="M742.74,-60.74C801.82,-55.04 938.32,-40.8 1062.7,-19.07"/>
<polygon fill="#63b8ff" stroke="#63b8ff" points="1063.54,-22.48 1072.78,-17.29 1062.32,-15.58 1063.54,-22.48"/>
</a>
</g>
</g>
<!-- Node2&#45;&gt;Node18 -->
<g id="edge17_Node000002_Node000018" class="edge">
<title>Node2&#45;&gt;Node18</title>
<g id="a_edge17_Node000002_Node000018"><a xlink:title=" ">
<path fill="none" stroke="#63b8ff" d="M742.5,-61.43C810.31,-56.47 982.67,-42.6 1137.13,-18.97"/>
<polygon fill="#63b8ff" stroke="#63b8ff" points="1137.93,-22.39 1147.27,-17.4 1136.86,-15.48 1137.93,-22.39"/>
</a>
</g>
</g>
<!-- Node19&#45;&gt;Node2 -->
<g id="edge19_Node000019_Node000002" class="edge">
<title>Node19&#45;&gt;Node2</title>
<g id="a_edge19_Node000019_Node000002"><a xlink:title=" ">
<path fill="none" stroke="#63b8ff" d="M753.07,-109.75C746.15,-102.11 735.93,-90.82 727.55,-81.56"/>
<polygon fill="#63b8ff" stroke="#63b8ff" points="730.09,-79.15 720.78,-74.09 724.9,-83.85 730.09,-79.15"/>
</a>
</g>
</g>
<!-- Node20&#45;&gt;Node2 -->
<g id="edge21_Node000020_Node000002" class="edge">
<title>Node20&#45;&gt;Node2</title>
<g id="a_edge21_Node000020_Node000002"><a xlink:title=" ">
<path fill="none" stroke="#63b8ff" d="M808.68,-109.98C790.34,-101.46 761.89,-88.23 740.77,-78.41"/>
<polygon fill="#63b8ff" stroke="#63b8ff" points="742.19,-75.21 731.65,-74.17 739.24,-81.56 742.19,-75.21"/>
</a>
</g>
</g>
</g>
</svg>
