<?xml version="1.0" encoding="UTF-8" standalone="no"?>
<!DOCTYPE svg PUBLIC "-//W3C//DTD SVG 1.1//EN"
 "http://www.w3.org/Graphics/SVG/1.1/DTD/svg11.dtd">
<!-- Generated by graphviz version 2.43.0 (0)
 -->
<!-- Title: ui_add_log Pages: 1 -->
<svg width="322pt" height="46pt"
 viewBox="0.00 0.00 322.00 46.00" xmlns="http://www.w3.org/2000/svg" xmlns:xlink="http://www.w3.org/1999/xlink">
<g id="graph0" class="graph" transform="scale(1 1) rotate(0) translate(4 42)">
<title>ui_add_log</title>
<!-- Node1 -->
<g id="Node000001" class="node">
<title>Node1</title>
<g id="a_Node000001"><a xlink:title="Add formatted log message to UI console buffer.">
<polygon fill="#999999" stroke="#666666" points="314,-19 245,-19 245,0 314,0 314,-19"/>
<text text-anchor="middle" x="279.5" y="-7" font-family="Helvetica,sans-Serif" font-size="10.00">ui_add_log</text>
</a>
</g>
</g>
<!-- Node2 -->
<g id="Node000002" class="node">
<title>Node2</title>
<g id="a_Node000002"><a xlink:href="main_8c.html#a1594c6785b808f6766d6f6a82852bf61" target="_top" xlink:title="Check for worker timeouts and send pause/resume signals.">
<polygon fill="white" stroke="#666666" points="209,-38 77,-38 77,-19 209,-19 209,-38"/>
<text text-anchor="middle" x="143" y="-26" font-family="Helvetica,sans-Serif" font-size="10.00">check_worker_timeouts</text>
</a>
</g>
</g>
<!-- Node1&#45;&gt;Node2 -->
<g id="edge1_Node000001_Node000002" class="edge">
<title>Node1&#45;&gt;Node2</title>
<g id="a_edge1_Node000001_Node000002"><a xlink:title=" ">
<path fill="none" stroke="#63b8ff" d="M234.83,-15.67C226.61,-16.83 217.86,-18.07 209.15,-19.3"/>
<polygon fill="#63b8ff" stroke="#63b8ff" points="235.49,-19.11 244.91,-14.25 234.52,-12.18 235.49,-19.11"/>
</a>
</g>
</g>
<!-- Node3 -->
<g id="Node000003" class="node">
<title>Node3</title>
<g id="a_Node000003"><a xlink:href="main_8c.html#a840291bc02cba5474a4cb46a9b9566fe" target="_top" xlink:title="Main entry point for RT&#45;THM supervisor.">
<polygon fill="white" stroke="#666666" points="41,-19 0,-19 0,0 41,0 41,-19"/>
<text text-anchor="middle" x="20.5" y="-7" font-family="Helvetica,sans-Serif" font-size="10.00">main</text>
</a>
</g>
</g>
<!-- Node1&#45;&gt;Node3 -->
<g id="edge3_Node000001_Node000003" class="edge">
<title>Node1&#45;&gt;Node3</title>
<g id="a_edge3_Node000001_Node000003"><a xlink:title=" ">
<path fill="none" stroke="#63b8ff" d="M234.83,-9.5C178.3,-9.5 82.18,-9.5 41.08,-9.5"/>
<polygon fill="#63b8ff" stroke="#63b8ff" points="234.9,-13 244.9,-9.5 234.9,-6 234.9,-13"/>
</a>
</g>
</g>
<!-- Node2&#45;&gt;Node3 -->
<g id="edge2_Node000002_Node000003" class="edge">
<title>Node2&#45;&gt;Node3</title>
<g id="a_edge2_Node000002_Node000003"><a xlink:title=" ">
<path fill="none" stroke="#63b8ff" d="M71.23,-17.34C60.25,-15.61 49.75,-13.96 41.26,-12.62"/>
<polygon fill="#63b8ff" stroke="#63b8ff" points="70.97,-20.84 81.4,-18.94 72.06,-13.93 70.97,-20.84"/>
</a>
</g>
</g>
</g>
</svg>
