<?xml version="1.0" encoding="UTF-8" standalone="no"?>
<!DOCTYPE svg PUBLIC "-//W3C//DTD SVG 1.1//EN"
 "http://www.w3.org/Graphics/SVG/1.1/DTD/svg11.dtd">
<!-- Generated by graphviz version 2.43.0 (0)
 -->
<!-- Title: ui_draw_dashboard Pages: 1 -->
<svg width="509pt" height="101pt"
 viewBox="0.00 0.00 509.00 101.00" xmlns="http://www.w3.org/2000/svg" xmlns:xlink="http://www.w3.org/1999/xlink">
<g id="graph0" class="graph" transform="scale(1 1) rotate(0) translate(4 97)">
<title>ui_draw_dashboard</title>
<!-- Node1 -->
<g id="Node000001" class="node">
<title>Node1</title>
<g id="a_Node000001"><a xlink:title="Draw complete dashboard (header + workers + logs)">
<polygon fill="#999999" stroke="#666666" points="111,-56 0,-56 0,-37 111,-37 111,-56"/>
<text text-anchor="middle" x="55.5" y="-44" font-family="Helvetica,sans-Serif" font-size="10.00">ui_draw_dashboard</text>
</a>
</g>
</g>
<!-- Node2 -->
<g id="Node000002" class="node">
<title>Node2</title>
<g id="a_Node000002"><a xlink:href="UI_8c.html#a0c8a8e30c481fd6b8a234acef9cd0e75" target="_top" xlink:title="Draw live log console at bottom of screen.">
<polygon fill="white" stroke="#666666" points="272.5,-93 149.5,-93 149.5,-74 272.5,-74 272.5,-93"/>
<text text-anchor="middle" x="211" y="-81" font-family="Helvetica,sans-Serif" font-size="10.00">ui_draw_logs_console</text>
</a>
</g>
</g>
<!-- Node1&#45;&gt;Node2 -->
<g id="edge1_Node000001_Node000002" class="edge">
<title>Node1&#45;&gt;Node2</title>
<g id="a_edge1_Node000001_Node000002"><a xlink:title=" ">
<path fill="none" stroke="#63b8ff" d="M96.03,-56.03C115.65,-60.76 139.55,-66.52 160.39,-71.54"/>
<polygon fill="#63b8ff" stroke="#63b8ff" points="159.8,-75 170.34,-73.94 161.44,-68.19 159.8,-75"/>
</a>
</g>
</g>
<!-- Node3 -->
<g id="Node000003" class="node">
<title>Node3</title>
<g id="a_Node000003"><a xlink:href="UI_8c.html#a38bf702c2b7d95494c0fd8e838debce4" target="_top" xlink:title="Draw system status header (time, workers, tasks)">
<polygon fill="white" stroke="#666666" points="271,-19 151,-19 151,0 271,0 271,-19"/>
<text text-anchor="middle" x="211" y="-7" font-family="Helvetica,sans-Serif" font-size="10.00">ui_draw_system_info</text>
</a>
</g>
</g>
<!-- Node1&#45;&gt;Node3 -->
<g id="edge2_Node000001_Node000003" class="edge">
<title>Node1&#45;&gt;Node3</title>
<g id="a_edge2_Node000001_Node000003"><a xlink:title=" ">
<path fill="none" stroke="#63b8ff" d="M96.03,-36.97C115.65,-32.24 139.55,-26.48 160.39,-21.46"/>
<polygon fill="#63b8ff" stroke="#63b8ff" points="161.44,-24.81 170.34,-19.06 159.8,-18 161.44,-24.81"/>
</a>
</g>
</g>
<!-- Node7 -->
<g id="Node000007" class="node">
<title>Node7</title>
<g id="a_Node000007"><a xlink:href="UI_8c.html#a3e6d8479ebd16234c91a359c675e0329" target="_top" xlink:title="Draw worker statistics table with color&#45;coded status.">
<polygon fill="white" stroke="#666666" points="275,-56 147,-56 147,-37 275,-37 275,-56"/>
<text text-anchor="middle" x="211" y="-44" font-family="Helvetica,sans-Serif" font-size="10.00">ui_draw_workers_table</text>
</a>
</g>
</g>
<!-- Node1&#45;&gt;Node7 -->
<g id="edge7_Node000001_Node000007" class="edge">
<title>Node1&#45;&gt;Node7</title>
<g id="a_edge7_Node000001_Node000007"><a xlink:title=" ">
<path fill="none" stroke="#63b8ff" d="M111.05,-46.5C119.41,-46.5 128.16,-46.5 136.84,-46.5"/>
<polygon fill="#63b8ff" stroke="#63b8ff" points="136.98,-50 146.98,-46.5 136.98,-43 136.98,-50"/>
</a>
</g>
</g>
<!-- Node4 -->
<g id="Node000004" class="node">
<title>Node4</title>
<g id="a_Node000004"><a xlink:href="ipc__utils_8c.html#a10e9222ec21173d9cec5e4a2abc7454b" target="_top" xlink:title="Release semaphore lock (V operation)">
<polygon fill="white" stroke="#666666" points="400,-56 311,-56 311,-37 400,-37 400,-56"/>
<text text-anchor="middle" x="355.5" y="-44" font-family="Helvetica,sans-Serif" font-size="10.00">sem_signal_op</text>
</a>
</g>
</g>
<!-- Node3&#45;&gt;Node4 -->
<g id="edge3_Node000003_Node000004" class="edge">
<title>Node3&#45;&gt;Node4</title>
<g id="a_edge3_Node000003_Node000004"><a xlink:title=" ">
<path fill="none" stroke="#63b8ff" d="M248.7,-19.03C266.67,-23.7 288.52,-29.37 307.69,-34.35"/>
<polygon fill="#63b8ff" stroke="#63b8ff" points="306.87,-37.75 317.43,-36.88 308.63,-30.97 306.87,-37.75"/>
</a>
</g>
</g>
<!-- Node6 -->
<g id="Node000006" class="node">
<title>Node6</title>
<g id="a_Node000006"><a xlink:href="ipc__utils_8c.html#a5d0cc554e478b3289951da79d95b8594" target="_top" xlink:title="Acquire semaphore lock (P operation)">
<polygon fill="white" stroke="#666666" points="396,-19 315,-19 315,0 396,0 396,-19"/>
<text text-anchor="middle" x="355.5" y="-7" font-family="Helvetica,sans-Serif" font-size="10.00">sem_wait_op</text>
</a>
</g>
</g>
<!-- Node3&#45;&gt;Node6 -->
<g id="edge5_Node000003_Node000006" class="edge">
<title>Node3&#45;&gt;Node6</title>
<g id="a_edge5_Node000003_Node000006"><a xlink:title=" ">
<path fill="none" stroke="#63b8ff" d="M271.19,-9.5C282.32,-9.5 293.85,-9.5 304.66,-9.5"/>
<polygon fill="#63b8ff" stroke="#63b8ff" points="304.76,-13 314.76,-9.5 304.76,-6 304.76,-13"/>
</a>
</g>
</g>
<!-- Node5 -->
<g id="Node000005" class="node">
<title>Node5</title>
<g id="a_Node000005"><a xlink:href="logger_8c.html#a5453dcbc4c790a4aea0e136877073d4d" target="_top" xlink:title="Write formatted log event to file with microsecond timestamp.">
<polygon fill="white" stroke="#666666" points="501,-37 436,-37 436,-18 501,-18 501,-37"/>
<text text-anchor="middle" x="468.5" y="-25" font-family="Helvetica,sans-Serif" font-size="10.00">log_event</text>
</a>
</g>
</g>
<!-- Node4&#45;&gt;Node5 -->
<g id="edge4_Node000004_Node000005" class="edge">
<title>Node4&#45;&gt;Node5</title>
<g id="a_edge4_Node000004_Node000005"><a xlink:title=" ">
<path fill="none" stroke="#63b8ff" d="M400.05,-39.05C408.51,-37.6 417.37,-36.08 425.77,-34.64"/>
<polygon fill="#63b8ff" stroke="#63b8ff" points="426.47,-38.07 435.74,-32.94 425.29,-31.17 426.47,-38.07"/>
</a>
</g>
</g>
<!-- Node6&#45;&gt;Node5 -->
<g id="edge6_Node000006_Node000005" class="edge">
<title>Node6&#45;&gt;Node5</title>
<g id="a_edge6_Node000006_Node000005"><a xlink:title=" ">
<path fill="none" stroke="#63b8ff" d="M396.26,-15.95C405.76,-17.49 415.94,-19.14 425.53,-20.69"/>
<polygon fill="#63b8ff" stroke="#63b8ff" points="425.23,-24.19 435.66,-22.34 426.35,-17.28 425.23,-24.19"/>
</a>
</g>
</g>
<!-- Node7&#45;&gt;Node4 -->
<g id="edge8_Node000007_Node000004" class="edge">
<title>Node7&#45;&gt;Node4</title>
<g id="a_edge8_Node000007_Node000004"><a xlink:title=" ">
<path fill="none" stroke="#63b8ff" d="M275.33,-46.5C283.8,-46.5 292.42,-46.5 300.7,-46.5"/>
<polygon fill="#63b8ff" stroke="#63b8ff" points="300.98,-50 310.98,-46.5 300.98,-43 300.98,-50"/>
</a>
</g>
</g>
<!-- Node7&#45;&gt;Node6 -->
<g id="edge9_Node000007_Node000006" class="edge">
<title>Node7&#45;&gt;Node6</title>
<g id="a_edge9_Node000007_Node000006"><a xlink:title=" ">
<path fill="none" stroke="#63b8ff" d="M248.7,-36.97C266.67,-32.3 288.52,-26.63 307.69,-21.65"/>
<polygon fill="#63b8ff" stroke="#63b8ff" points="308.63,-25.03 317.43,-19.12 306.87,-18.25 308.63,-25.03"/>
</a>
</g>
</g>
</g>
</svg>
