<?xml version="1.0" encoding="UTF-8" standalone="no"?>
<!DOCTYPE svg PUBLIC "-//W3C//DTD SVG 1.1//EN"
 "http://www.w3.org/Graphics/SVG/1.1/DTD/svg11.dtd">
<!-- Generated by graphviz version 2.43.0 (0)
 -->
<!-- Title: ui_draw_system_info Pages: 1 -->
<svg width="354pt" height="64pt"
 viewBox="0.00 0.00 354.00 64.00" xmlns="http://www.w3.org/2000/svg" xmlns:xlink="http://www.w3.org/1999/xlink">
<g id="graph0" class="graph" transform="scale(1 1) rotate(0) translate(4 60)">
<title>ui_draw_system_info</title>
<!-- Node1 -->
<g id="Node000001" class="node">
<title>Node1</title>
<g id="a_Node000001"><a xlink:title="Draw system status header (time, workers, tasks)">
<polygon fill="#999999" stroke="#666666" points="120,-37 0,-37 0,-18 120,-18 120,-37"/>
<text text-anchor="middle" x="60" y="-25" font-family="Helvetica,sans-Serif" font-size="10.00">ui_draw_system_info</text>
</a>
</g>
</g>
<!-- Node2 -->
<g id="Node000002" class="node">
<title>Node2</title>
<g id="a_Node000002"><a xlink:href="ipc__utils_8c.html#a10e9222ec21173d9cec5e4a2abc7454b" target="_top" xlink:title="Release semaphore lock (V operation)">
<polygon fill="white" stroke="#666666" points="245,-56 156,-56 156,-37 245,-37 245,-56"/>
<text text-anchor="middle" x="200.5" y="-44" font-family="Helvetica,sans-Serif" font-size="10.00">sem_signal_op</text>
</a>
</g>
</g>
<!-- Node1&#45;&gt;Node2 -->
<g id="edge1_Node000001_Node000002" class="edge">
<title>Node1&#45;&gt;Node2</title>
<g id="a_edge1_Node000001_Node000002"><a xlink:title=" ">
<path fill="none" stroke="#63b8ff" d="M120.14,-35.61C128.61,-36.77 137.28,-37.96 145.64,-39.11"/>
<polygon fill="#63b8ff" stroke="#63b8ff" points="145.26,-42.59 155.64,-40.48 146.21,-35.66 145.26,-42.59"/>
</a>
</g>
</g>
<!-- Node4 -->
<g id="Node000004" class="node">
<title>Node4</title>
<g id="a_Node000004"><a xlink:href="ipc__utils_8c.html#a5d0cc554e478b3289951da79d95b8594" target="_top" xlink:title="Acquire semaphore lock (P operation)">
<polygon fill="white" stroke="#666666" points="241,-19 160,-19 160,0 241,0 241,-19"/>
<text text-anchor="middle" x="200.5" y="-7" font-family="Helvetica,sans-Serif" font-size="10.00">sem_wait_op</text>
</a>
</g>
</g>
<!-- Node1&#45;&gt;Node4 -->
<g id="edge3_Node000001_Node000004" class="edge">
<title>Node1&#45;&gt;Node4</title>
<g id="a_edge3_Node000001_Node000004"><a xlink:title=" ">
<path fill="none" stroke="#63b8ff" d="M120.14,-19.81C129.97,-18.54 140.07,-17.22 149.64,-15.98"/>
<polygon fill="#63b8ff" stroke="#63b8ff" points="150.3,-19.42 159.77,-14.66 149.4,-12.48 150.3,-19.42"/>
</a>
</g>
</g>
<!-- Node3 -->
<g id="Node000003" class="node">
<title>Node3</title>
<g id="a_Node000003"><a xlink:href="logger_8c.html#a5453dcbc4c790a4aea0e136877073d4d" target="_top" xlink:title="Write formatted log event to file with microsecond timestamp.">
<polygon fill="white" stroke="#666666" points="346,-37 281,-37 281,-18 346,-18 346,-37"/>
<text text-anchor="middle" x="313.5" y="-25" font-family="Helvetica,sans-Serif" font-size="10.00">log_event</text>
</a>
</g>
</g>
<!-- Node2&#45;&gt;Node3 -->
<g id="edge2_Node000002_Node000003" class="edge">
<title>Node2&#45;&gt;Node3</title>
<g id="a_edge2_Node000002_Node000003"><a xlink:title=" ">
<path fill="none" stroke="#63b8ff" d="M245.05,-39.05C253.51,-37.6 262.37,-36.08 270.77,-34.64"/>
<polygon fill="#63b8ff" stroke="#63b8ff" points="271.47,-38.07 280.74,-32.94 270.29,-31.17 271.47,-38.07"/>
</a>
</g>
</g>
<!-- Node4&#45;&gt;Node3 -->
<g id="edge4_Node000004_Node000003" class="edge">
<title>Node4&#45;&gt;Node3</title>
<g id="a_edge4_Node000004_Node000003"><a xlink:title=" ">
<path fill="none" stroke="#63b8ff" d="M241.26,-15.95C250.76,-17.49 260.94,-19.14 270.53,-20.69"/>
<polygon fill="#63b8ff" stroke="#63b8ff" points="270.23,-24.19 280.66,-22.34 271.35,-17.28 270.23,-24.19"/>
</a>
</g>
</g>
</g>
</svg>
