<?xml version="1.0" encoding="UTF-8" standalone="no"?>
<!DOCTYPE svg PUBLIC "-//W3C//DTD SVG 1.1//EN"
 "http://www.w3.org/Graphics/SVG/1.1/DTD/svg11.dtd">
<!-- Generated by graphviz version 2.43.0 (0)
 -->
<!-- Title: ui_refresh Pages: 1 -->
<svg width="610pt" height="101pt"
 viewBox="0.00 0.00 610.00 101.00" xmlns="http://www.w3.org/2000/svg" xmlns:xlink="http://www.w3.org/1999/xlink">
<g id="graph0" class="graph" transform="scale(1 1) rotate(0) translate(4 97)">
<title>ui_refresh</title>
<!-- Node1 -->
<g id="Node000001" class="node">
<title>Node1</title>
<g id="a_Node000001"><a xlink:title="Refresh entire dashboard display.">
<polygon fill="#999999" stroke="#666666" points="65,-56 0,-56 0,-37 65,-37 65,-56"/>
<text text-anchor="middle" x="32.5" y="-44" font-family="Helvetica,sans-Serif" font-size="10.00">ui_refresh</text>
</a>
</g>
</g>
<!-- Node2 -->
<g id="Node000002" class="node">
<title>Node2</title>
<g id="a_Node000002"><a xlink:href="UI_8c.html#ae631a5a3ad2c24dd944f5573487f98a3" target="_top" xlink:title="Draw complete dashboard (header + workers + logs)">
<polygon fill="white" stroke="#666666" points="212,-56 101,-56 101,-37 212,-37 212,-56"/>
<text text-anchor="middle" x="156.5" y="-44" font-family="Helvetica,sans-Serif" font-size="10.00">ui_draw_dashboard</text>
</a>
</g>
</g>
<!-- Node1&#45;&gt;Node2 -->
<g id="edge1_Node000001_Node000002" class="edge">
<title>Node1&#45;&gt;Node2</title>
<g id="a_edge1_Node000001_Node000002"><a xlink:title=" ">
<path fill="none" stroke="#63b8ff" d="M65.24,-46.5C73.14,-46.5 81.89,-46.5 90.76,-46.5"/>
<polygon fill="#63b8ff" stroke="#63b8ff" points="90.77,-50 100.77,-46.5 90.77,-43 90.77,-50"/>
</a>
</g>
</g>
<!-- Node3 -->
<g id="Node000003" class="node">
<title>Node3</title>
<g id="a_Node000003"><a xlink:href="UI_8c.html#a0c8a8e30c481fd6b8a234acef9cd0e75" target="_top" xlink:title="Draw live log console at bottom of screen.">
<polygon fill="white" stroke="#666666" points="373.5,-93 250.5,-93 250.5,-74 373.5,-74 373.5,-93"/>
<text text-anchor="middle" x="312" y="-81" font-family="Helvetica,sans-Serif" font-size="10.00">ui_draw_logs_console</text>
</a>
</g>
</g>
<!-- Node2&#45;&gt;Node3 -->
<g id="edge2_Node000002_Node000003" class="edge">
<title>Node2&#45;&gt;Node3</title>
<g id="a_edge2_Node000002_Node000003"><a xlink:title=" ">
<path fill="none" stroke="#63b8ff" d="M197.03,-56.03C216.65,-60.76 240.55,-66.52 261.39,-71.54"/>
<polygon fill="#63b8ff" stroke="#63b8ff" points="260.8,-75 271.34,-73.94 262.44,-68.19 260.8,-75"/>
</a>
</g>
</g>
<!-- Node4 -->
<g id="Node000004" class="node">
<title>Node4</title>
<g id="a_Node000004"><a xlink:href="UI_8c.html#a38bf702c2b7d95494c0fd8e838debce4" target="_top" xlink:title="Draw system status header (time, workers, tasks)">
<polygon fill="white" stroke="#666666" points="372,-19 252,-19 252,0 372,0 372,-19"/>
<text text-anchor="middle" x="312" y="-7" font-family="Helvetica,sans-Serif" font-size="10.00">ui_draw_system_info</text>
</a>
</g>
</g>
<!-- Node2&#45;&gt;Node4 -->
<g id="edge3_Node000002_Node000004" class="edge">
<title>Node2&#45;&gt;Node4</title>
<g id="a_edge3_Node000002_Node000004"><a xlink:title=" ">
<path fill="none" stroke="#63b8ff" d="M197.03,-36.97C216.65,-32.24 240.55,-26.48 261.39,-21.46"/>
<polygon fill="#63b8ff" stroke="#63b8ff" points="262.44,-24.81 271.34,-19.06 260.8,-18 262.44,-24.81"/>
</a>
</g>
</g>
<!-- Node8 -->
<g id="Node000008" class="node">
<title>Node8</title>
<g id="a_Node000008"><a xlink:href="UI_8c.html#a3e6d8479ebd16234c91a359c675e0329" target="_top" xlink:title="Draw worker statistics table with color&#45;coded status.">
<polygon fill="white" stroke="#666666" points="376,-56 248,-56 248,-37 376,-37 376,-56"/>
<text text-anchor="middle" x="312" y="-44" font-family="Helvetica,sans-Serif" font-size="10.00">ui_draw_workers_table</text>
</a>
</g>
</g>
<!-- Node2&#45;&gt;Node8 -->
<g id="edge8_Node000002_Node000008" class="edge">
<title>Node2&#45;&gt;Node8</title>
<g id="a_edge8_Node000002_Node000008"><a xlink:title=" ">
<path fill="none" stroke="#63b8ff" d="M212.05,-46.5C220.41,-46.5 229.16,-46.5 237.84,-46.5"/>
<polygon fill="#63b8ff" stroke="#63b8ff" points="237.98,-50 247.98,-46.5 237.98,-43 237.98,-50"/>
</a>
</g>
</g>
<!-- Node5 -->
<g id="Node000005" class="node">
<title>Node5</title>
<g id="a_Node000005"><a xlink:href="ipc__utils_8c.html#a10e9222ec21173d9cec5e4a2abc7454b" target="_top" xlink:title="Release semaphore lock (V operation)">
<polygon fill="white" stroke="#666666" points="501,-56 412,-56 412,-37 501,-37 501,-56"/>
<text text-anchor="middle" x="456.5" y="-44" font-family="Helvetica,sans-Serif" font-size="10.00">sem_signal_op</text>
</a>
</g>
</g>
<!-- Node4&#45;&gt;Node5 -->
<g id="edge4_Node000004_Node000005" class="edge">
<title>Node4&#45;&gt;Node5</title>
<g id="a_edge4_Node000004_Node000005"><a xlink:title=" ">
<path fill="none" stroke="#63b8ff" d="M349.7,-19.03C367.67,-23.7 389.52,-29.37 408.69,-34.35"/>
<polygon fill="#63b8ff" stroke="#63b8ff" points="407.87,-37.75 418.43,-36.88 409.63,-30.97 407.87,-37.75"/>
</a>
</g>
</g>
<!-- Node7 -->
<g id="Node000007" class="node">
<title>Node7</title>
<g id="a_Node000007"><a xlink:href="ipc__utils_8c.html#a5d0cc554e478b3289951da79d95b8594" target="_top" xlink:title="Acquire semaphore lock (P operation)">
<polygon fill="white" stroke="#666666" points="497,-19 416,-19 416,0 497,0 497,-19"/>
<text text-anchor="middle" x="456.5" y="-7" font-family="Helvetica,sans-Serif" font-size="10.00">sem_wait_op</text>
</a>
</g>
</g>
<!-- Node4&#45;&gt;Node7 -->
<g id="edge6_Node000004_Node000007" class="edge">
<title>Node4&#45;&gt;Node7</title>
<g id="a_edge6_Node000004_Node000007"><a xlink:title=" ">
<path fill="none" stroke="#63b8ff" d="M372.19,-9.5C383.32,-9.5 394.85,-9.5 405.66,-9.5"/>
<polygon fill="#63b8ff" stroke="#63b8ff" points="405.76,-13 415.76,-9.5 405.76,-6 405.76,-13"/>
</a>
</g>
</g>
<!-- Node6 -->
<g id="Node000006" class="node">
<title>Node6</title>
<g id="a_Node000006"><a xlink:href="logger_8c.html#a5453dcbc4c790a4aea0e136877073d4d" target="_top" xlink:title="Write formatted log event to file with microsecond timestamp.">
<polygon fill="white" stroke="#666666" points="602,-37 537,-37 537,-18 602,-18 602,-37"/>
<text text-anchor="middle" x="569.5" y="-25" font-family="Helvetica,sans-Serif" font-size="10.00">log_event</text>
</a>
</g>
</g>
<!-- Node5&#45;&gt;Node6 -->
<g id="edge5_Node000005_Node000006" class="edge">
<title>Node5&#45;&gt;Node6</title>
<g id="a_edge5_Node000005_Node000006"><a xlink:title=" ">
<path fill="none" stroke="#63b8ff" d="M501.05,-39.05C509.51,-37.6 518.37,-36.08 526.77,-34.64"/>
<polygon fill="#63b8ff" stroke="#63b8ff" points="527.47,-38.07 536.74,-32.94 526.29,-31.17 527.47,-38.07"/>
</a>
</g>
</g>
<!-- Node7&#45;&gt;Node6 -->
<g id="edge7_Node000007_Node000006" class="edge">
<title>Node7&#45;&gt;Node6</title>
<g id="a_edge7_Node000007_Node000006"><a xlink:title=" ">
<path fill="none" stroke="#63b8ff" d="M497.26,-15.95C506.76,-17.49 516.94,-19.14 526.53,-20.69"/>
<polygon fill="#63b8ff" stroke="#63b8ff" points="526.23,-24.19 536.66,-22.34 527.35,-17.28 526.23,-24.19"/>
</a>
</g>
</g>
<!-- Node8&#45;&gt;Node5 -->
<g id="edge9_Node000008_Node000005" class="edge">
<title>Node8&#45;&gt;Node5</title>
<g id="a_edge9_Node000008_Node000005"><a xlink:title=" ">
<path fill="none" stroke="#63b8ff" d="M376.33,-46.5C384.8,-46.5 393.42,-46.5 401.7,-46.5"/>
<polygon fill="#63b8ff" stroke="#63b8ff" points="401.98,-50 411.98,-46.5 401.98,-43 401.98,-50"/>
</a>
</g>
</g>
<!-- Node8&#45;&gt;Node7 -->
<g id="edge10_Node000008_Node000007" class="edge">
<title>Node8&#45;&gt;Node7</title>
<g id="a_edge10_Node000008_Node000007"><a xlink:title=" ">
<path fill="none" stroke="#63b8ff" d="M349.7,-36.97C367.67,-32.3 389.52,-26.63 408.69,-21.65"/>
<polygon fill="#63b8ff" stroke="#63b8ff" points="409.63,-25.03 418.43,-19.12 407.87,-18.25 409.63,-25.03"/>
</a>
</g>
</g>
</g>
</svg>
