<?xml version="1.0" encoding="UTF-8" standalone="no"?>
<!DOCTYPE svg PUBLIC "-//W3C//DTD SVG 1.1//EN"
 "http://www.w3.org/Graphics/SVG/1.1/DTD/svg11.dtd">
<!-- Generated by graphviz version 2.43.0 (0)
 -->
<!-- Title: worker_process Pages: 1 -->
<svg width="376pt" height="177pt"
 viewBox="0.00 0.00 376.00 177.00" xmlns="http://www.w3.org/2000/svg" xmlns:xlink="http://www.w3.org/1999/xlink">
<g id="graph0" class="graph" transform="scale(1 1) rotate(0) translate(4 173)">
<title>worker_process</title>
<!-- Node1 -->
<g id="Node000001" class="node">
<title>Node1</title>
<g id="a_Node000001"><a xlink:title="Main entry point for worker process.">
<polygon fill="#999999" stroke="#666666" points="92,-93 0,-93 0,-74 92,-74 92,-93"/>
<text text-anchor="middle" x="46" y="-81" font-family="Helvetica,sans-Serif" font-size="10.00">worker_process</text>
</a>
</g>
</g>
<!-- Node2 -->
<g id="Node000002" class="node">
<title>Node2</title>
<g id="a_Node000002"><a xlink:href="signals_8c.html#aa79b2985b495e6db8bf7675d0a32c3c5" target="_top" xlink:title="Cleanup handler for graceful system shutdown.">
<polygon fill="white" stroke="#666666" points="218.5,-169 163.5,-169 163.5,-150 218.5,-150 218.5,-169"/>
<text text-anchor="middle" x="191" y="-157" font-family="Helvetica,sans-Serif" font-size="10.00">cleanup</text>
</a>
</g>
</g>
<!-- Node1&#45;&gt;Node2 -->
<g id="edge1_Node000001_Node000002" class="edge">
<title>Node1&#45;&gt;Node2</title>
<g id="a_edge1_Node000001_Node000002"><a xlink:title=" ">
<path fill="none" stroke="#63b8ff" d="M59.98,-93C75.59,-104.14 102.82,-122.71 128,-135.5 136.15,-139.64 145.19,-143.52 153.79,-146.89"/>
<polygon fill="#63b8ff" stroke="#63b8ff" points="152.65,-150.21 163.24,-150.48 155.14,-143.66 152.65,-150.21"/>
</a>
</g>
</g>
<!-- Node3 -->
<g id="Node000003" class="node">
<title>Node3</title>
<g id="a_Node000003"><a xlink:href="logger_8c.html#a5453dcbc4c790a4aea0e136877073d4d" target="_top" xlink:title="Write formatted log event to file with microsecond timestamp.">
<polygon fill="white" stroke="#666666" points="361.5,-112 296.5,-112 296.5,-93 361.5,-93 361.5,-112"/>
<text text-anchor="middle" x="329" y="-100" font-family="Helvetica,sans-Serif" font-size="10.00">log_event</text>
</a>
</g>
</g>
<!-- Node1&#45;&gt;Node3 -->
<g id="edge4_Node000001_Node000003" class="edge">
<title>Node1&#45;&gt;Node3</title>
<g id="a_edge4_Node000001_Node000003"><a xlink:title=" ">
<path fill="none" stroke="#63b8ff" d="M79.8,-93.01C94.42,-96.77 111.93,-100.64 128,-102.5 182.42,-108.8 245.72,-107.33 286.29,-105.28"/>
<polygon fill="#63b8ff" stroke="#63b8ff" points="286.55,-108.77 296.35,-104.74 286.17,-101.78 286.55,-108.77"/>
</a>
</g>
</g>
<!-- Node5 -->
<g id="Node000005" class="node">
<title>Node5</title>
<g id="a_Node000005"><a xlink:href="ipc__utils_8c.html#a10e9222ec21173d9cec5e4a2abc7454b" target="_top" xlink:title="Release semaphore lock (V operation)">
<polygon fill="white" stroke="#666666" points="235.5,-93 146.5,-93 146.5,-74 235.5,-74 235.5,-93"/>
<text text-anchor="middle" x="191" y="-81" font-family="Helvetica,sans-Serif" font-size="10.00">sem_signal_op</text>
</a>
</g>
</g>
<!-- Node1&#45;&gt;Node5 -->
<g id="edge5_Node000001_Node000005" class="edge">
<title>Node1&#45;&gt;Node5</title>
<g id="a_edge5_Node000001_Node000005"><a xlink:title=" ">
<path fill="none" stroke="#63b8ff" d="M92.25,-83.5C106.07,-83.5 121.42,-83.5 135.78,-83.5"/>
<polygon fill="#63b8ff" stroke="#63b8ff" points="136.03,-87 146.03,-83.5 136.03,-80 136.03,-87"/>
</a>
</g>
</g>
<!-- Node6 -->
<g id="Node000006" class="node">
<title>Node6</title>
<g id="a_Node000006"><a xlink:href="ipc__utils_8c.html#a5d0cc554e478b3289951da79d95b8594" target="_top" xlink:title="Acquire semaphore lock (P operation)">
<polygon fill="white" stroke="#666666" points="231.5,-56 150.5,-56 150.5,-37 231.5,-37 231.5,-56"/>
<text text-anchor="middle" x="191" y="-44" font-family="Helvetica,sans-Serif" font-size="10.00">sem_wait_op</text>
</a>
</g>
</g>
<!-- Node1&#45;&gt;Node6 -->
<g id="edge7_Node000001_Node000006" class="edge">
<title>Node1&#45;&gt;Node6</title>
<g id="a_edge7_Node000001_Node000006"><a xlink:title=" ">
<path fill="none" stroke="#63b8ff" d="M83.83,-73.97C101.87,-69.3 123.79,-63.63 143.02,-58.65"/>
<polygon fill="#63b8ff" stroke="#63b8ff" points="144,-62.02 152.8,-56.12 142.24,-55.24 144,-62.02"/>
</a>
</g>
</g>
<!-- Node7 -->
<g id="Node000007" class="node">
<title>Node7</title>
<g id="a_Node000007"><a xlink:href="signals_8c.html#aae335edcfdcb000211d477ee50cbfdae" target="_top" xlink:title="Worker signal handler for SIGUSR1/SIGUSR2.">
<polygon fill="white" stroke="#666666" points="254,-19 128,-19 128,0 254,0 254,-19"/>
<text text-anchor="middle" x="191" y="-7" font-family="Helvetica,sans-Serif" font-size="10.00">worker_signal_handler</text>
</a>
</g>
</g>
<!-- Node1&#45;&gt;Node7 -->
<g id="edge9_Node000001_Node000007" class="edge">
<title>Node1&#45;&gt;Node7</title>
<g id="a_edge9_Node000001_Node000007"><a xlink:title=" ">
<path fill="none" stroke="#63b8ff" d="M58.34,-73.87C73.37,-61.55 101.13,-40.27 128,-27.5 131.87,-25.66 135.97,-23.97 140.14,-22.42"/>
<polygon fill="#63b8ff" stroke="#63b8ff" points="141.61,-25.62 149.94,-19.07 139.34,-18.99 141.61,-25.62"/>
</a>
</g>
</g>
<!-- Node2&#45;&gt;Node3 -->
<g id="edge2_Node000002_Node000003" class="edge">
<title>Node2&#45;&gt;Node3</title>
<g id="a_edge2_Node000002_Node000003"><a xlink:title=" ">
<path fill="none" stroke="#63b8ff" d="M217.45,-149.98C228.71,-145.68 242.07,-140.47 254,-135.5 268.63,-129.41 284.71,-122.29 298.14,-116.23"/>
<polygon fill="#63b8ff" stroke="#63b8ff" points="299.73,-119.35 307.39,-112.03 296.83,-112.97 299.73,-119.35"/>
</a>
</g>
</g>
<!-- Node4 -->
<g id="Node000004" class="node">
<title>Node4</title>
<g id="a_Node000004"><a xlink:href="logger_8c.html#a59c77d233157db1c24d6553a2567e442" target="_top" xlink:title="Close log file and cleanup resources.">
<polygon fill="white" stroke="#666666" points="368,-169 290,-169 290,-150 368,-150 368,-169"/>
<text text-anchor="middle" x="329" y="-157" font-family="Helvetica,sans-Serif" font-size="10.00">logger_close</text>
</a>
</g>
</g>
<!-- Node2&#45;&gt;Node4 -->
<g id="edge3_Node000002_Node000004" class="edge">
<title>Node2&#45;&gt;Node4</title>
<g id="a_edge3_Node000002_Node000004"><a xlink:title=" ">
<path fill="none" stroke="#63b8ff" d="M218.55,-159.5C235.94,-159.5 259.18,-159.5 279.77,-159.5"/>
<polygon fill="#63b8ff" stroke="#63b8ff" points="279.94,-163 289.94,-159.5 279.94,-156 279.94,-163"/>
</a>
</g>
</g>
<!-- Node5&#45;&gt;Node3 -->
<g id="edge6_Node000005_Node000003" class="edge">
<title>Node5&#45;&gt;Node3</title>
<g id="a_edge6_Node000005_Node000003"><a xlink:title=" ">
<path fill="none" stroke="#63b8ff" d="M235.78,-89.62C251.96,-91.88 270.24,-94.43 286.24,-96.67"/>
<polygon fill="#63b8ff" stroke="#63b8ff" points="285.99,-100.16 296.37,-98.08 286.95,-93.23 285.99,-100.16"/>
</a>
</g>
</g>
<!-- Node6&#45;&gt;Node3 -->
<g id="edge8_Node000006_Node000003" class="edge">
<title>Node6&#45;&gt;Node3</title>
<g id="a_edge8_Node000006_Node000003"><a xlink:title=" ">
<path fill="none" stroke="#63b8ff" d="M229.11,-56.01C237.4,-58.49 246.08,-61.35 254,-64.5 270.68,-71.13 288.61,-80.29 302.64,-87.95"/>
<polygon fill="#63b8ff" stroke="#63b8ff" points="301.23,-91.16 311.67,-92.96 304.63,-85.05 301.23,-91.16"/>
</a>
</g>
</g>
</g>
</svg>
